<?xml version="1.0" encoding="UTF-8" standalone="no"?>
<svg
   xmlns:dc="http://purl.org/dc/elements/1.1/"
   xmlns:cc="http://creativecommons.org/ns#"
   xmlns:rdf="http://www.w3.org/1999/02/22-rdf-syntax-ns#"
   xmlns:svg="http://www.w3.org/2000/svg"
   xmlns="http://www.w3.org/2000/svg"
   viewBox="0 0 1210.9427 1413.6533"
   height="1413.6533"
   width="1210.9427"
   xml:space="preserve"
   id="svg2"
   version="1.1"><metadata
     id="metadata8"><rdf:RDF><cc:Work
         rdf:about=""><dc:format>image/svg+xml</dc:format><dc:type
           rdf:resource="http://purl.org/dc/dcmitype/StillImage" /></cc:Work></rdf:RDF></metadata><defs
     id="defs6"><clipPath
       id="clipPath22"
       clipPathUnits="userSpaceOnUse"><path
         id="path20"
         d="M 0,1060.241 H 908.207 V 0 H 0 Z" /></clipPath><clipPath
       id="clipPath54"
       clipPathUnits="userSpaceOnUse"><path
         id="path52"
         d="M 167.21,467.203 H 742.744 V 434.094 H 167.21 Z" /></clipPath><clipPath
       id="clipPath58"
       clipPathUnits="userSpaceOnUse"><path
         id="path56"
         d="m 167.21,434.094 h 575.534 v 33.109 H 167.21 Z" /></clipPath></defs><g
     transform="matrix(1.3333333,0,0,-1.3333333,0,1413.6533)"
     id="g10"><path
       id="path12"
       style="fill:#f8f8f8;fill-opacity:1;fill-rule:nonzero;stroke:none"
       d="M 0,0 H 908.207 V 1060.241 H 0 Z" /><path
       id="path14"
       style="fill:#fcf59d;fill-opacity:1;fill-rule:nonzero;stroke:#000000;stroke-width:7;stroke-linecap:butt;stroke-linejoin:miter;stroke-miterlimit:4;stroke-dasharray:none;stroke-opacity:1"
       d="M 889,39.241 H 15 v 992 h 874 z" /><g
       id="g16"><g
         clip-path="url(#clipPath22)"
         id="g18"><g
           transform="translate(276.0347,519.7314)"
           id="g24"><path
             id="path26"
             style="fill:#434142;fill-opacity:1;fill-rule:nonzero;stroke:none"
             d="m 0,0 c -0.403,-2.023 -2.021,-2.83 -4.04,-2.83 h -29.086 c -2.02,0 -3.232,0.807 -4.041,2.83 l -75.14,246.43 c 0,0.405 -0.403,1.211 -0.403,1.615 0,2.424 1.615,3.635 4.443,3.635 h 40.398 c 2.425,0 3.633,-0.807 4.04,-2.828 L -17.774,84.835 26.26,248.852 c 0.404,2.021 1.616,2.828 4.039,2.828 h 40.804 c 2.827,0 4.443,-1.211 4.443,-3.635 0,-0.404 -0.403,-1.21 -0.403,-1.615 z" /></g><g
           transform="translate(491.3643,699.9077)"
           id="g28"><path
             id="path30"
             style="fill:#434142;fill-opacity:1;fill-rule:nonzero;stroke:none"
             d="m 0,0 c 0,15.755 -12.927,29.086 -29.088,29.086 h -36.358 c -2.828,0 -4.04,-1.212 -4.04,-4.04 v -53.729 c 0,-2.828 1.212,-4.04 4.04,-4.04 h 36.358 C -12.927,-32.723 0,-19.796 0,-3.637 Z m 46.055,-3.637 c 0,-41.609 -30.299,-71.506 -75.143,-71.506 h -36.358 c -2.828,0 -4.04,-1.21 -4.04,-4.038 v -99.783 c 0,-2.83 -1.212,-4.042 -4.04,-4.042 h -38.377 c -2.828,0 -4.043,1.212 -4.043,4.042 V 67.465 c 0,2.828 1.215,4.041 4.043,4.041 h 82.815 c 45.65,0 75.143,-29.492 75.143,-75.143" /></g><g
           transform="translate(694.5684,699.9077)"
           id="g32"><path
             id="path34"
             style="fill:#434142;fill-opacity:1;fill-rule:nonzero;stroke:none"
             d="m 0,0 c 0,15.755 -13.333,29.086 -29.087,29.086 h -44.438 c -2.829,0 -4.04,-1.212 -4.04,-4.04 v -53.729 c 0,-2.828 1.211,-4.04 4.04,-4.04 h 44.438 C -13.333,-32.723 0,-19.796 0,-3.637 Z m 50.497,-179.775 c 0,-2.019 -1.214,-3.231 -4.04,-3.231 H 4.849 c -1.214,0 -2.425,0.806 -3.639,2.826 l -35.549,102.615 -3.231,2.422 h -35.955 c -2.829,0 -4.04,-1.21 -4.04,-4.038 v -99.783 c 0,-2.83 -1.214,-4.042 -4.04,-4.042 h -38.377 c -2.829,0 -4.041,1.212 -4.041,4.042 V 67.465 c 0,2.828 1.212,4.041 4.041,4.041 h 90.895 c 46.054,0 75.141,-29.089 75.141,-75.143 v -4.039 c 0,-18.988 -9.695,-34.338 -17.775,-43.225 -7.271,-6.87 -16.564,-11.716 -16.564,-15.352 v -0.406 l 38.379,-111.092 c 0.403,-0.812 0.403,-1.619 0.403,-2.024" /></g><g
           transform="translate(459.0723,944.2002)"
           id="g36"><path
             id="path38"
             style="fill:#717175;fill-opacity:1;fill-rule:nonzero;stroke:none"
             d="m 0,0 c 0,15.904 -12.939,28.575 -29.114,28.575 h -34.234 c -1.888,0 -2.695,-0.809 -2.695,-2.697 v -54.991 c 0,-1.887 0.807,-2.695 2.695,-2.695 h 34.234 C -12.672,-31.808 0,-19.14 0,-2.696 Z m 18.33,-123.46 c 0,-1.35 -1.078,-2.158 -2.695,-2.158 H 1.078 c -1.348,0.538 -2.156,1.078 -2.425,1.886 l -25.88,74.94 c -0.269,0.539 -0.807,1.079 -2.156,1.618 h -33.965 c -1.888,0 -2.695,-0.808 -2.695,-2.695 v -73.053 c 0,-1.888 -0.809,-2.696 -2.697,-2.696 h -12.669 c -1.886,0 -2.697,0.808 -2.697,2.696 V 41.243 c 0,1.887 0.811,2.697 2.697,2.697 h 52.295 c 28.844,0 47.175,-18.332 47.175,-46.636 v -2.965 c 0,-9.435 -5.66,-20.756 -16.174,-29.652 -5.931,-4.852 -11.053,-5.392 -11.053,-8.087 0,-0.269 0.271,-0.54 0.271,-0.808 l 26.956,-77.906 c 0.269,-0.538 0.269,-0.808 0.269,-1.346" /></g><g
           transform="translate(587.8975,946.8965)"
           id="g40"><path
             id="path42"
             style="fill:#717175;fill-opacity:1;fill-rule:nonzero;stroke:none"
             d="M 0,0 C 0,15.904 -12.671,28.573 -28.843,28.573 H -37.2 c -16.175,0 -28.574,-12.4 -28.574,-28.573 v -86.801 c 0,-16.174 12.67,-28.845 28.574,-28.845 h 8.357 c 15.634,0 28.843,12.941 28.843,28.845 z M -28.843,-131.011 H -37.2 c -28.574,0 -46.904,17.792 -46.904,44.21 V 0 c 0,26.417 18.33,44.208 46.904,44.208 h 8.357 C -0.27,44.208 18.329,26.147 18.329,0 v -86.801 c 0,-26.418 -18.599,-44.21 -47.172,-44.21" /></g><g
           transform="translate(730.252,818.582)"
           id="g44"><path
             id="path46"
             style="fill:#717175;fill-opacity:1;fill-rule:nonzero;stroke:none"
             d="m 0,0 h -88.417 c -1.887,0 -2.695,0.808 -2.695,2.696 v 164.166 c 0,1.886 0.808,2.695 2.695,2.695 H 0 c 1.887,0 2.695,-0.809 2.695,-2.695 v -9.975 c 0,-1.885 -0.808,-2.694 -2.695,-2.694 h -70.356 c -1.887,0 -2.696,-0.81 -2.696,-2.695 V 96.504 c 0,-1.885 0.809,-2.694 2.696,-2.694 h 57.687 c 1.887,0 2.695,-0.809 2.695,-2.696 v -9.975 c 0,-1.886 -0.808,-2.695 -2.695,-2.695 h -57.687 c -1.887,0 -2.696,-0.809 -2.696,-2.695 V 18.062 c 0,-1.889 0.809,-2.696 2.696,-2.696 H 0 c 1.887,0 2.695,-1.078 2.695,-2.698 V 2.696 C 2.695,0.808 1.887,0 0,0" /></g><g
           id="g48"><g
             id="g50" /><g
             id="g174"><g
               style="opacity:0.80000299"
               id="g172"
               clip-path="url(#clipPath54)"><g
                 id="g170"><g
                   id="g168"
                   clip-path="url(#clipPath58)"><g
                     id="g62"
                     transform="translate(177.0913,434.7871)"><path
                       id="path60"
                       style="fill:#322e2c;fill-opacity:1;fill-rule:nonzero;stroke:none"
                       d="m 0,0 c -0.082,-0.202 -0.203,-0.284 -0.403,-0.284 h -1.616 c -0.199,0 -0.319,0.082 -0.401,0.284 l -7.418,24.554 c 0,0.082 -0.041,0.121 -0.041,0.163 0,0.242 0.162,0.363 0.442,0.363 H -7.5 c 0.201,0 0.363,-0.082 0.402,-0.285 L -1.21,4.272 h 0.201 l 5.685,20.523 c 0.041,0.203 0.161,0.285 0.403,0.285 h 1.936 c 0.282,0 0.442,-0.121 0.442,-0.363 0,-0.042 -0.039,-0.081 -0.039,-0.163 z" /></g><g
                     id="g66"
                     transform="translate(193.3809,453.7783)"><path
                       id="path64"
                       style="fill:#322e2c;fill-opacity:1;fill-rule:nonzero;stroke:none"
                       d="M 0,0 C -0.043,0.16 -0.203,0.686 -0.444,1.571 H -0.608 C -0.766,0.928 -0.928,0.401 -1.048,0 l -2.864,-10.36 c 0,-0.082 -0.04,-0.121 -0.04,-0.164 0,-0.243 0.161,-0.363 0.444,-0.363 h 5.804 c 0.285,0 0.444,0.12 0.444,0.363 0,0.043 -0.039,0.121 -0.039,0.164 z m 8.104,-18.909 c 0,-0.241 -0.164,-0.366 -0.444,-0.366 H 5.604 c -0.242,0 -0.363,0.082 -0.404,0.284 l -1.575,5.562 c -0.037,0.203 -0.16,0.246 -0.399,0.246 h -7.584 c -0.242,0 -0.36,-0.043 -0.399,-0.246 l -1.573,-5.562 c -0.041,-0.202 -0.203,-0.284 -0.403,-0.284 H -8.79 c -0.282,0 -0.444,0.125 -0.444,0.366 0,0.039 0.041,0.078 0.041,0.16 l 7.459,24.553 c 0.079,0.203 0.161,0.285 0.403,0.285 h 1.532 c 0.202,0 0.323,-0.082 0.403,-0.285 l 7.459,-24.553 c 0,-0.082 0.041,-0.121 0.041,-0.16" /></g><g
                     id="g70"
                     transform="translate(218.7407,453.2949)"><path
                       id="path68"
                       style="fill:#322e2c;fill-opacity:1;fill-rule:nonzero;stroke:none"
                       d="m 0,0 c 0,2.378 -1.937,4.276 -4.354,4.276 h -5.122 c -0.284,0 -0.403,-0.125 -0.403,-0.405 v -19.958 c 0,-0.284 0.119,-0.405 0.403,-0.405 h 5.122 c 2.46,0 4.354,1.898 4.354,4.315 z m -4.354,-18.792 h -7.823 c -0.282,0 -0.406,0.125 -0.406,0.405 V 6.167 c 0,0.284 0.124,0.405 0.406,0.405 h 7.823 c 4.312,0 7.056,-2.744 7.056,-6.977 v -11.327 c 0,-4.316 -2.744,-7.06 -7.056,-7.06" /></g><g
                     id="g74"
                     transform="translate(240.9512,434.5068)"><path
                       id="path72"
                       style="fill:#322e2c;fill-opacity:1;fill-rule:nonzero;stroke:none"
                       d="m 0,0 h -13.226 c -0.284,0 -0.403,0.121 -0.403,0.401 v 24.554 c 0,0.284 0.119,0.405 0.403,0.405 H 0 c 0.283,0 0.404,-0.121 0.404,-0.405 V 23.466 C 0.404,23.181 0.283,23.061 0,23.061 h -10.524 c -0.283,0 -0.406,-0.122 -0.406,-0.402 v -8.228 c 0,-0.282 0.123,-0.403 0.406,-0.403 h 8.628 c 0.283,0 0.403,-0.12 0.403,-0.401 v -1.492 c 0,-0.285 -0.12,-0.403 -0.403,-0.403 h -8.628 c -0.283,0 -0.406,-0.124 -0.406,-0.405 V 2.701 c 0,-0.284 0.123,-0.405 0.406,-0.405 L 0,2.296 c 0.283,0 0.404,-0.16 0.404,-0.401 V 0.401 C 0.404,0.121 0.283,0 0,0" /></g><g
                     id="g78"
                     transform="translate(258.1685,438.5371)"><path
                       id="path76"
                       style="fill:#322e2c;fill-opacity:1;fill-rule:nonzero;stroke:none"
                       d="m 0,0 c -0.043,-0.082 -0.162,-0.202 -0.362,-0.241 h -0.645 c -0.162,0 -0.283,0.078 -0.365,0.241 l -6.693,15.927 0.242,-19.556 c 0,-0.28 -0.121,-0.401 -0.402,-0.401 h -1.896 c -0.282,0 -0.403,0.121 -0.403,0.401 v 24.554 c 0,0.284 0.121,0.405 0.403,0.405 h 1.853 c 0.203,-0.043 0.324,-0.164 0.365,-0.242 L -0.727,4.151 h 0.119 l 7.137,16.937 c 0.043,0.121 0.164,0.199 0.365,0.242 H 8.79 c 0.283,0 0.401,-0.121 0.401,-0.405 V -3.629 C 9.191,-3.909 9.073,-4.03 8.79,-4.03 H 6.894 c -0.283,0 -0.402,0.121 -0.402,0.401 l 0.242,19.638 z" /></g><g
                     id="g82"
                     transform="translate(288.5664,434.5068)"><path
                       id="path80"
                       style="fill:#322e2c;fill-opacity:1;fill-rule:nonzero;stroke:none"
                       d="m 0,0 h -13.226 c -0.282,0 -0.403,0.121 -0.403,0.401 v 24.554 c 0,0.284 0.121,0.405 0.403,0.405 H 0 c 0.283,0 0.404,-0.121 0.404,-0.405 V 23.466 C 0.404,23.181 0.283,23.061 0,23.061 h -10.524 c -0.281,0 -0.404,-0.122 -0.404,-0.402 v -8.228 c 0,-0.282 0.123,-0.403 0.404,-0.403 h 8.628 c 0.281,0 0.403,-0.12 0.403,-0.401 v -1.492 c 0,-0.285 -0.122,-0.403 -0.403,-0.403 h -8.628 c -0.281,0 -0.404,-0.124 -0.404,-0.405 V 2.701 c 0,-0.284 0.123,-0.405 0.404,-0.405 L 0,2.296 c 0.283,0 0.404,-0.16 0.404,-0.401 V 0.401 C 0.404,0.121 0.283,0 0,0" /></g><g
                     id="g86"
                     transform="translate(307.916,437.6484)"><path
                       id="path84"
                       style="fill:#322e2c;fill-opacity:1;fill-rule:nonzero;stroke:none"
                       d="M 0,0 C 0,-1.286 -2.459,-3.547 -6.25,-3.547 H -7.5 c -4.274,0 -7.016,2.662 -7.016,6.614 v 12.981 c 0,3.953 2.742,6.615 7.016,6.615 h 1.25 c 3.71,0 6.291,-2.18 6.291,-3.513 0,-0.116 -0.123,-0.237 -0.283,-0.319 l -1.694,-0.846 c -0.079,-0.043 -0.161,-0.043 -0.202,-0.043 -0.121,0 -0.16,0.043 -0.28,0.164 -1.211,1.169 -2.098,2.214 -3.832,2.214 H -7.5 c -2.418,0 -4.274,-1.851 -4.274,-4.272 V 3.067 c 0,-2.42 1.895,-4.314 4.274,-4.314 h 1.25 c 0.927,0 1.976,0.401 2.621,1.006 0.887,0.845 1.249,1.454 1.491,1.454 0.041,0 0.123,0 0.202,-0.043 L -0.242,0.323 C -0.043,0.242 0,0.164 0,0" /></g><g
                     id="g90"
                     transform="translate(321.0269,434.1016)"><path
                       id="path88"
                       style="fill:#322e2c;fill-opacity:1;fill-rule:nonzero;stroke:none"
                       d="m 0,0 h -1.25 c -4.273,0 -7.018,2.662 -7.018,6.61 v 18.754 c 0,0.281 0.123,0.402 0.406,0.402 h 1.933 c 0.284,0 0.406,-0.121 0.406,-0.402 V 6.61 c 0,-2.416 1.894,-4.31 4.273,-4.31 H 0 c 2.338,0 4.315,1.937 4.315,4.31 v 18.754 c 0,0.281 0.121,0.402 0.401,0.402 h 1.938 c 0.282,0 0.403,-0.121 0.403,-0.402 V 6.61 C 7.057,2.662 4.274,0 0,0" /></g><g
                     id="g94"
                     transform="translate(345.5,438.5371)"><path
                       id="path92"
                       style="fill:#322e2c;fill-opacity:1;fill-rule:nonzero;stroke:none"
                       d="m 0,0 c -0.043,-0.082 -0.162,-0.202 -0.365,-0.241 h -0.643 c -0.161,0 -0.283,0.078 -0.362,0.241 l -6.695,15.927 0.242,-19.556 c 0,-0.28 -0.121,-0.401 -0.402,-0.401 h -1.896 c -0.283,0 -0.403,0.121 -0.403,0.401 v 24.554 c 0,0.284 0.12,0.405 0.403,0.405 h 1.855 c 0.201,-0.043 0.322,-0.164 0.363,-0.242 L -0.727,4.151 h 0.121 l 7.137,16.937 c 0.041,0.121 0.162,0.199 0.363,0.242 h 1.894 c 0.282,0 0.405,-0.121 0.405,-0.405 V -3.629 C 9.193,-3.909 9.07,-4.03 8.788,-4.03 H 6.894 c -0.281,0 -0.404,0.121 -0.404,0.401 l 0.243,19.638 z" /></g><g
                     id="g98"
                     transform="translate(382.8735,453.2949)"><path
                       id="path96"
                       style="fill:#322e2c;fill-opacity:1;fill-rule:nonzero;stroke:none"
                       d="m 0,0 c 0,2.378 -1.936,4.276 -4.356,4.276 h -5.12 c -0.283,0 -0.403,-0.125 -0.403,-0.405 v -8.225 c 0,-0.285 0.12,-0.406 0.403,-0.406 h 5.12 C -1.895,-4.76 0,-2.865 0,-0.405 Z m 2.701,-0.203 c 0,-4.073 -2.824,-6.857 -7.057,-6.857 h -5.12 c -0.283,0 -0.403,-0.116 -0.403,-0.401 v -10.926 c 0,-0.28 -0.121,-0.405 -0.402,-0.405 h -1.898 c -0.281,0 -0.402,0.125 -0.402,0.405 V 6.167 c 0,0.284 0.121,0.405 0.402,0.405 h 7.823 c 4.274,0 7.057,-2.822 7.057,-6.775" /></g><g
                     id="g102"
                     transform="translate(402.749,453.6963)"><path
                       id="path100"
                       style="fill:#322e2c;fill-opacity:1;fill-rule:nonzero;stroke:none"
                       d="M 0,0 C 0,2.382 -1.895,4.276 -4.315,4.276 H -5.564 C -7.983,4.276 -9.84,2.421 -9.84,0 v -12.98 c 0,-2.42 1.896,-4.315 4.276,-4.315 h 1.249 c 2.338,0 4.315,1.934 4.315,4.315 z m -4.315,-19.595 h -1.249 c -4.276,0 -7.017,2.662 -7.017,6.615 V 0 c 0,3.953 2.741,6.615 7.017,6.615 h 1.249 C -0.043,6.615 2.742,3.91 2.742,0 v -12.98 c 0,-3.953 -2.785,-6.615 -7.057,-6.615" /></g><g
                     id="g106"
                     transform="translate(413.1021,453.8174)"><path
                       id="path104"
                       style="fill:#322e2c;fill-opacity:1;fill-rule:nonzero;stroke:none"
                       d="m 0,0 c 0,-1.812 1.249,-3.146 3.83,-4.354 2.015,-0.966 3.87,-1.735 5.322,-2.822 1.894,-1.454 2.822,-3.427 2.822,-5.926 0,-3.952 -2.742,-6.614 -7.055,-6.614 H 3.185 c -3.831,0 -6.251,2.257 -6.251,3.508 0,0.16 0.082,0.242 0.244,0.324 l 1.692,0.885 c 0.081,0.043 0.161,0.043 0.202,0.043 0.162,0 0.201,-0.082 0.322,-0.203 1.13,-1.169 1.935,-2.257 3.791,-2.257 h 1.734 c 2.418,0 4.352,1.855 4.352,4.314 0,2.703 -2.054,3.75 -5.484,5.404 -4.152,2.014 -6.53,3.465 -6.53,7.577 0,3.953 2.743,6.611 7.017,6.611 h 0.645 c 3.787,0 6.289,-2.257 6.289,-3.544 0,-0.124 -0.121,-0.202 -0.282,-0.284 L 9.232,1.816 C 9.152,1.773 9.07,1.773 9.029,1.773 8.911,1.773 8.829,1.816 8.749,1.937 7.618,3.106 6.772,4.155 4.919,4.155 H 4.274 C 1.894,4.155 0,2.339 0,0" /></g><g
                     id="g110"
                     transform="translate(442.4512,453.6963)"><path
                       id="path108"
                       style="fill:#322e2c;fill-opacity:1;fill-rule:nonzero;stroke:none"
                       d="M 0,0 C 0,2.382 -1.894,4.276 -4.315,4.276 H -5.564 C -7.983,4.276 -9.838,2.421 -9.838,0 v -12.98 c 0,-2.42 1.894,-4.315 4.274,-4.315 h 1.249 c 2.339,0 4.315,1.934 4.315,4.315 z m -4.315,-19.595 h -1.249 c -4.274,0 -7.019,2.662 -7.019,6.615 V 0 c 0,3.953 2.745,6.615 7.019,6.615 h 1.249 C -0.042,6.615 2.742,3.91 2.742,0 v -12.98 c 0,-3.953 -2.784,-6.615 -7.057,-6.615" /></g><g
                     id="g114"
                     transform="translate(464.749,434.5068)"><path
                       id="path112"
                       style="fill:#322e2c;fill-opacity:1;fill-rule:nonzero;stroke:none"
                       d="m 0,0 h -13.225 c -0.283,0 -0.404,0.121 -0.404,0.401 v 24.554 c 0,0.284 0.121,0.405 0.404,0.405 h 1.896 c 0.281,0 0.402,-0.121 0.402,-0.405 V 2.701 c 0,-0.284 0.122,-0.405 0.403,-0.405 L 0,2.296 c 0.283,0 0.404,-0.16 0.404,-0.401 V 0.401 C 0.404,0.121 0.283,0 0,0" /></g><g
                     id="g118"
                     transform="translate(477.3672,462.2832)"><path
                       id="path116"
                       style="fill:#322e2c;fill-opacity:1;fill-rule:nonzero;stroke:none"
                       d="m 0,0 -1.049,-0.077 c -0.28,0 -0.442,0.12 -0.442,0.28 0,0.121 0.039,0.241 0.121,0.362 L 1.452,4.76 1.775,4.92 h 2.741 c 0.28,0 0.485,-0.16 0.485,-0.324 0,-0.117 -0.082,-0.242 -0.205,-0.359 z m 4.96,-8.587 c 0,2.378 -1.895,4.273 -4.315,4.273 h -1.251 c -2.416,0 -4.272,-1.852 -4.272,-4.273 v -12.98 c 0,-2.42 1.894,-4.315 4.272,-4.315 h 1.251 c 2.338,0 4.315,1.934 4.315,4.315 z M 0.645,-28.182 h -1.251 c -4.272,0 -7.014,2.662 -7.014,6.615 v 12.98 c 0,3.953 2.742,6.611 7.014,6.611 h 1.251 c 4.274,0 7.055,-2.697 7.055,-6.611 v -12.98 c 0,-3.953 -2.781,-6.615 -7.055,-6.615" /></g><g
                     id="g122"
                     transform="translate(499.583,434.1016)"><path
                       id="path120"
                       style="fill:#322e2c;fill-opacity:1;fill-rule:nonzero;stroke:none"
                       d="m 0,0 h -1.249 c -4.274,0 -7.019,2.662 -7.019,6.61 v 12.985 c 0,3.953 2.745,6.615 7.019,6.615 h 2.016 c 3.75,0 6.25,-2.18 6.25,-3.509 0,-0.124 -0.121,-0.241 -0.283,-0.323 L 5.04,21.532 c -0.081,-0.043 -0.163,-0.043 -0.2,-0.043 -0.123,0 -0.203,0.043 -0.283,0.164 -1.128,1.169 -1.976,2.218 -3.79,2.218 h -2.016 c -2.419,0 -4.274,-1.855 -4.274,-4.276 V 6.61 c 0,-2.416 1.894,-4.31 4.274,-4.31 L 0,2.3 c 2.339,0 4.315,1.937 4.315,4.31 v 3.228 c 0,0.242 -0.162,0.402 -0.403,0.402 h -4.233 c -0.283,0 -0.404,0.12 -0.404,0.406 v 1.531 c 0,0.281 0.121,0.401 0.404,0.401 h 6.975 c 0.242,0 0.404,-0.12 0.404,-0.401 V 6.61 C 7.058,2.662 4.274,0 0,0" /></g><g
                     id="g126"
                     transform="translate(514.5029,434.5068)"><path
                       id="path124"
                       style="fill:#322e2c;fill-opacity:1;fill-rule:nonzero;stroke:none"
                       d="M 0,0 H -1.896 C -2.179,0 -2.3,0.121 -2.3,0.401 v 24.554 c 0,0.284 0.121,0.405 0.404,0.405 H 0 c 0.28,0 0.401,-0.121 0.401,-0.405 V 0.401 C 0.401,0.121 0.28,0 0,0" /></g><g
                     id="g130"
                     transform="translate(536.3545,437.6484)"><path
                       id="path128"
                       style="fill:#322e2c;fill-opacity:1;fill-rule:nonzero;stroke:none"
                       d="M 0,0 C 0,-1.286 -2.46,-3.547 -6.25,-3.547 H -7.5 c -4.273,0 -7.016,2.662 -7.016,6.614 v 12.981 c 0,3.953 2.743,6.615 7.016,6.615 h 1.25 c 3.711,0 6.291,-2.18 6.291,-3.513 0,-0.116 -0.123,-0.237 -0.282,-0.319 l -1.695,-0.846 c -0.079,-0.043 -0.161,-0.043 -0.202,-0.043 -0.121,0 -0.16,0.043 -0.281,0.164 -1.21,1.169 -2.097,2.214 -3.831,2.214 H -7.5 c -2.418,0 -4.273,-1.851 -4.273,-4.272 V 3.067 c 0,-2.42 1.894,-4.314 4.273,-4.314 h 1.25 c 0.928,0 1.976,0.401 2.621,1.006 0.887,0.845 1.249,1.454 1.491,1.454 0.041,0 0.123,0 0.202,-0.043 L -0.241,0.323 C -0.043,0.242 0,0.164 0,0" /></g><g
                     id="g134"
                     transform="translate(553.5332,453.6963)"><path
                       id="path132"
                       style="fill:#322e2c;fill-opacity:1;fill-rule:nonzero;stroke:none"
                       d="M 0,0 C 0,2.382 -1.895,4.276 -4.315,4.276 H -5.564 C -7.983,4.276 -9.841,2.421 -9.841,0 v -12.98 c 0,-2.42 1.897,-4.315 4.277,-4.315 h 1.249 c 2.338,0 4.315,1.934 4.315,4.315 z m -4.315,-19.595 h -1.249 c -4.277,0 -7.017,2.662 -7.017,6.615 V 0 c 0,3.953 2.74,6.615 7.017,6.615 h 1.249 C -0.043,6.615 2.742,3.91 2.742,0 v -12.98 c 0,-3.953 -2.785,-6.615 -7.057,-6.615" /></g><g
                     id="g138"
                     transform="translate(583.7695,453.2949)"><path
                       id="path136"
                       style="fill:#322e2c;fill-opacity:1;fill-rule:nonzero;stroke:none"
                       d="m 0,0 c 0,2.378 -1.936,4.276 -4.356,4.276 h -5.121 c -0.282,0 -0.403,-0.125 -0.403,-0.405 v -8.225 c 0,-0.285 0.121,-0.406 0.403,-0.406 h 5.121 C -1.895,-4.76 0,-2.865 0,-0.405 Z m 2.742,-18.469 c 0,-0.198 -0.162,-0.323 -0.404,-0.323 H 0.161 c -0.204,0.082 -0.323,0.164 -0.366,0.284 l -3.869,11.207 c -0.04,0.082 -0.122,0.164 -0.322,0.241 h -5.081 c -0.282,0 -0.403,-0.116 -0.403,-0.401 v -10.926 c 0,-0.28 -0.121,-0.405 -0.401,-0.405 h -1.899 c -0.28,0 -0.401,0.125 -0.401,0.405 V 6.167 c 0,0.284 0.121,0.405 0.401,0.405 h 7.824 c 4.313,0 7.057,-2.744 7.057,-6.977 v -0.441 c 0,-1.411 -0.846,-3.106 -2.419,-4.435 -0.888,-0.726 -1.652,-0.808 -1.652,-1.213 0,-0.039 0.038,-0.078 0.038,-0.117 l 4.033,-11.655 c 0.041,-0.078 0.041,-0.121 0.041,-0.203" /></g><g
                     id="g142"
                     transform="translate(604.0459,453.6963)"><path
                       id="path140"
                       style="fill:#322e2c;fill-opacity:1;fill-rule:nonzero;stroke:none"
                       d="m 0,0 c 0,2.382 -1.895,4.276 -4.314,4.276 h -1.25 C -7.982,4.276 -9.84,2.421 -9.84,0 v -12.98 c 0,-2.42 1.897,-4.315 4.276,-4.315 h 1.25 c 2.338,0 4.314,1.934 4.314,4.315 z m -4.314,-19.595 h -1.25 c -4.276,0 -7.016,2.662 -7.016,6.615 V 0 c 0,3.953 2.74,6.615 7.016,6.615 h 1.25 C -0.043,6.615 2.742,3.91 2.742,0 v -12.98 c 0,-3.953 -2.785,-6.615 -7.056,-6.615" /></g><g
                     id="g146"
                     transform="translate(626.3447,434.5068)"><path
                       id="path144"
                       style="fill:#322e2c;fill-opacity:1;fill-rule:nonzero;stroke:none"
                       d="m 0,0 h -13.227 c -0.284,0 -0.403,0.121 -0.403,0.401 v 24.554 c 0,0.284 0.119,0.405 0.403,0.405 H 0 c 0.282,0 0.403,-0.121 0.403,-0.405 V 23.466 C 0.403,23.181 0.282,23.061 0,23.061 h -10.524 c -0.284,0 -0.407,-0.122 -0.407,-0.402 v -8.228 c 0,-0.282 0.123,-0.403 0.407,-0.403 h 8.628 c 0.282,0 0.403,-0.12 0.403,-0.401 v -1.492 c 0,-0.285 -0.121,-0.403 -0.403,-0.403 h -8.628 c -0.284,0 -0.407,-0.124 -0.407,-0.405 V 2.701 c 0,-0.284 0.123,-0.405 0.407,-0.405 L 0,2.296 c 0.282,0 0.403,-0.16 0.403,-0.401 V 0.401 C 0.403,0.121 0.282,0 0,0" /></g><g
                     id="g150"
                     transform="translate(643.5596,438.5371)"><path
                       id="path148"
                       style="fill:#322e2c;fill-opacity:1;fill-rule:nonzero;stroke:none"
                       d="m 0,0 c -0.043,-0.082 -0.162,-0.202 -0.364,-0.241 h -0.644 c -0.161,0 -0.282,0.078 -0.362,0.241 l -6.694,15.927 0.241,-19.556 c 0,-0.28 -0.121,-0.401 -0.402,-0.401 h -1.896 c -0.282,0 -0.403,0.121 -0.403,0.401 v 24.554 c 0,0.284 0.121,0.405 0.403,0.405 h 1.855 c 0.202,-0.043 0.322,-0.164 0.363,-0.242 L -0.727,4.151 h 0.121 l 7.137,16.937 c 0.041,0.121 0.161,0.199 0.363,0.242 h 1.894 c 0.282,0 0.405,-0.121 0.405,-0.405 V -3.629 C 9.193,-3.909 9.07,-4.03 8.788,-4.03 H 6.894 c -0.281,0 -0.404,0.121 -0.404,0.401 l 0.243,19.638 z" /></g><g
                     id="g154"
                     transform="translate(670.8525,438.5371)"><path
                       id="path152"
                       style="fill:#322e2c;fill-opacity:1;fill-rule:nonzero;stroke:none"
                       d="m 0,0 c -0.043,-0.082 -0.161,-0.202 -0.364,-0.241 h -0.643 c -0.162,0 -0.283,0.078 -0.363,0.241 l -6.694,15.927 0.241,-19.556 c 0,-0.28 -0.12,-0.401 -0.402,-0.401 h -1.895 c -0.283,0 -0.404,0.121 -0.404,0.401 v 24.554 c 0,0.284 0.121,0.405 0.404,0.405 h 1.854 c 0.202,-0.043 0.323,-0.164 0.364,-0.242 L -0.727,4.151 h 0.122 l 7.136,16.937 c 0.041,0.121 0.162,0.199 0.363,0.242 h 1.894 c 0.283,0 0.405,-0.121 0.405,-0.405 V -3.629 c 0,-0.28 -0.122,-0.401 -0.405,-0.401 H 6.894 c -0.281,0 -0.404,0.121 -0.404,0.401 l 0.244,19.638 z" /></g><g
                     id="g158"
                     transform="translate(701.251,434.5068)"><path
                       id="path156"
                       style="fill:#322e2c;fill-opacity:1;fill-rule:nonzero;stroke:none"
                       d="m 0,0 h -13.226 c -0.285,0 -0.403,0.121 -0.403,0.401 v 24.554 c 0,0.284 0.118,0.405 0.403,0.405 H 0 c 0.282,0 0.403,-0.121 0.403,-0.405 V 23.466 C 0.403,23.181 0.282,23.061 0,23.061 h -10.524 c -0.283,0 -0.406,-0.122 -0.406,-0.402 v -8.228 c 0,-0.282 0.123,-0.403 0.406,-0.403 h 8.628 c 0.282,0 0.403,-0.12 0.403,-0.401 v -1.492 c 0,-0.285 -0.121,-0.403 -0.403,-0.403 h -8.628 c -0.283,0 -0.406,-0.124 -0.406,-0.405 V 2.701 c 0,-0.284 0.123,-0.405 0.406,-0.405 L 0,2.296 c 0.282,0 0.403,-0.16 0.403,-0.401 V 0.401 C 0.403,0.121 0.282,0 0,0" /></g><g
                     id="g162"
                     transform="translate(720.5225,453.2949)"><path
                       id="path160"
                       style="fill:#322e2c;fill-opacity:1;fill-rule:nonzero;stroke:none"
                       d="m 0,0 c 0,2.378 -1.937,4.276 -4.354,4.276 h -5.122 c -0.285,0 -0.404,-0.125 -0.404,-0.405 v -8.225 c 0,-0.285 0.119,-0.406 0.404,-0.406 h 5.122 C -1.895,-4.76 0,-2.865 0,-0.405 Z m 2.742,-18.469 c 0,-0.198 -0.162,-0.323 -0.403,-0.323 H 0.162 c -0.205,0.082 -0.324,0.164 -0.365,0.284 l -3.87,11.207 c -0.039,0.082 -0.121,0.164 -0.323,0.241 h -5.08 c -0.285,0 -0.404,-0.116 -0.404,-0.401 v -10.926 c 0,-0.28 -0.122,-0.405 -0.401,-0.405 h -1.896 c -0.283,0 -0.406,0.125 -0.406,0.405 V 6.167 c 0,0.284 0.123,0.405 0.406,0.405 h 7.823 c 4.311,0 7.055,-2.744 7.055,-6.977 v -0.441 c 0,-1.411 -0.847,-3.106 -2.419,-4.435 -0.886,-0.726 -1.654,-0.808 -1.654,-1.213 0,-0.039 0.041,-0.078 0.041,-0.117 l 4.032,-11.655 c 0.041,-0.078 0.041,-0.121 0.041,-0.203" /></g><g
                     id="g166"
                     transform="translate(730.7637,453.8174)"><path
                       id="path164"
                       style="fill:#322e2c;fill-opacity:1;fill-rule:nonzero;stroke:none"
                       d="m 0,0 c 0,-1.812 1.25,-3.146 3.83,-4.354 2.016,-0.966 3.871,-1.735 5.323,-2.822 1.894,-1.454 2.822,-3.427 2.822,-5.926 0,-3.952 -2.743,-6.614 -7.055,-6.614 H 3.186 c -3.831,0 -6.251,2.257 -6.251,3.508 0,0.16 0.082,0.242 0.244,0.324 l 1.691,0.885 c 0.082,0.043 0.162,0.043 0.203,0.043 0.161,0 0.2,-0.082 0.322,-0.203 1.129,-1.169 1.935,-2.257 3.791,-2.257 H 4.92 c 2.418,0 4.351,1.855 4.351,4.314 0,2.703 -2.053,3.75 -5.484,5.404 -4.151,2.014 -6.529,3.465 -6.529,7.577 0,3.953 2.742,6.611 7.016,6.611 H 4.92 c 3.787,0 6.289,-2.257 6.289,-3.544 0,-0.124 -0.121,-0.202 -0.282,-0.284 L 9.232,1.816 C 9.153,1.773 9.071,1.773 9.03,1.773 8.911,1.773 8.829,1.816 8.749,1.937 7.619,3.106 6.773,4.155 4.92,4.155 H 4.274 C 1.895,4.155 0,2.339 0,0" /></g></g></g></g></g></g><path
           id="path176"
           style="fill:#211915;fill-opacity:1;fill-rule:nonzero;stroke:none"
           d="m 508.999,134.721 h -97.862 v 97.861 h 97.862 z" /><path
           id="path178"
           style="fill:#211915;fill-opacity:1;fill-rule:nonzero;stroke:none"
           d="m 348.685,130.09 h -17.034 v -9.593 h 17.034 z m -21.737,4.615 h 26.447 V 115.788 H 342.847 L 355.37,99.693 h -6.208 l -12.709,16.095 H 331.65 V 99.693 h -4.702 z" /><path
           id="path180"
           style="fill:#211915;fill-opacity:1;fill-rule:nonzero;stroke:none"
           d="m 363.06,99.693 h 23.25 v 22.405 h -23.25 z m 4.709,17.69 h 13.837 v -13.07 h -13.837 z" /><g
           transform="translate(416.563,122.0986)"
           id="g182"><path
             id="path184"
             style="fill:#211915;fill-opacity:1;fill-rule:nonzero;stroke:none"
             d="M 0,0 H -21.643 V -22.405 H 0 v 4.619 h -16.94 v 4.179 H 0 v 4.697 h -16.94 v 4.194 H 0 Z" /></g><g
           transform="translate(425.2461,99.6934)"
           id="g186"><path
             id="path188"
             style="fill:#211915;fill-opacity:1;fill-rule:nonzero;stroke:none"
             d="m 0,0 h 4.701 v 17.693 h 9.134 V 0 h 4.698 v 17.693 h 9.134 V 0 h 4.709 V 22.409 H 0 Z" /></g><g
           transform="translate(466.3164,99.6934)"
           id="g190"><path
             id="path192"
             style="fill:#211915;fill-opacity:1;fill-rule:nonzero;stroke:none"
             d="m 0,0 h 4.707 v 17.693 h 9.131 V 0 h 4.701 v 17.693 h 9.137 V 0 h 4.708 V 22.409 H 0 Z" /></g><g
           transform="translate(528.9834,122.0986)"
           id="g194"><path
             id="path196"
             style="fill:#211915;fill-opacity:1;fill-rule:nonzero;stroke:none"
             d="M 0,0 H -21.647 V -22.405 H 0 v 4.619 h -16.94 v 4.179 H 0 v 4.697 h -16.94 v 4.194 H 0 Z" /></g><path
           id="path198"
           style="fill:#211915;fill-opacity:1;fill-rule:nonzero;stroke:none"
           d="m 542.328,112.717 h 12.519 v 4.931 h -12.519 z m -4.736,-13.024 v 22.406 h 21.928 v -13.837 h -6.397 l 8.099,-8.569 h -6.399 l -8.005,8.569 h -4.515 v -8.569 z" /><g
           transform="translate(572.8047,105.4395)"
           id="g200"><path
             id="path202"
             style="fill:#211915;fill-opacity:1;fill-rule:nonzero;stroke:none"
             d="M 0,0 H -4.709 V -5.746 H 19.955 V 3.477 L 0,10.349 v 1.598 H 15.154 V 10.82 h 4.801 v 5.843 H -4.709 V 6.954 L 15.154,0.187 V -1.127 L 0,-1.127 Z" /></g><g
           transform="translate(454.5776,201.8857)"
           id="g204"><path
             id="path206"
             style="fill:#ffffff;fill-opacity:1;fill-rule:nonzero;stroke:none"
             d="m 0,0 c -3.822,-8.898 -5.662,-16.531 -5.662,-16.531 0,0 2.986,-6.587 0.827,-18.453 -1.579,-8.669 -3.582,-14.181 -7.026,-17.358 0,0 3.03,-0.963 9.499,-1.102 0,0 -0.013,5.098 0.965,8.403 1.105,3.727 1.383,13.094 1.383,16.535 l 4.816,2.339 c 1.899,-1.243 5.678,-8.38 6.888,-13.627 1.247,-5.379 0.413,-13.713 0.413,-13.713 6.968,0.141 9.23,0.897 9.23,0.897 0,0 -3.108,5.991 -4.677,12.816 -1.931,8.397 -8.548,16.383 -8.548,16.383 0.556,0.55 5.786,3.586 5.656,12.115 C 13.604,-1.922 5.354,10.61 5.354,10.61 3.242,7.184 1.79,4.171 0,0 m 2.557,-2.452 c 1.717,4.147 3.071,6.592 3.071,6.592 0,0 3.817,-5.524 2.622,-16.395 -1.238,-11.292 -8.542,-12.259 -8.542,-12.259 -0.273,4.541 -1.519,8.544 -1.519,8.544 0.686,4.405 2.61,9.25 4.368,13.518" /></g><g
           transform="translate(348.4312,76.9414)"
           id="g208"><path
             id="path210"
             style="fill:#211915;fill-opacity:1;fill-rule:nonzero;stroke:none"
             d="m 0,0 -0.214,0.109 c 0.013,0.09 0.013,0.167 0.013,0.238 0,0.366 -1.783,1.305 -3.615,1.305 -2.343,0 -4.454,-1.067 -4.454,-3.776 0,-2.706 2.111,-3.766 4.622,-3.766 2.056,0 3.804,1.146 3.804,1.813 0,0.07 -0.033,0.198 -0.06,0.257 l 0.142,0.113 1.524,-2.167 -0.123,-0.07 c -0.045,0.035 -0.131,0.054 -0.183,0.054 -0.431,0 -1.571,-1.742 -5.272,-1.742 -3.288,0 -6.551,1.637 -6.551,5.508 0,3.445 3.041,5.508 6.644,5.508 2.597,0 4.331,-1.155 4.643,-1.155 0.148,0 0.234,0.02 0.339,0.184 L 1.456,2.335 Z" /></g><g
           transform="translate(353.9663,74.8174)"
           id="g212"><path
             id="path214"
             style="fill:#211915;fill-opacity:1;fill-rule:nonzero;stroke:none"
             d="m 0,0 c 0,-2.456 1.822,-3.766 4.06,-3.766 2.237,0 4.045,1.31 4.045,3.766 0,2.463 -1.808,3.776 -4.045,3.776 C 1.822,3.776 0,2.463 0,0 m 10.199,0 c 0,-3.56 -2.744,-5.512 -6.139,-5.512 -3.405,0 -6.145,1.952 -6.145,5.512 0,3.555 2.74,5.512 6.145,5.512 3.395,0 6.139,-1.957 6.139,-5.512" /></g><g
           transform="translate(377.2954,70.1084)"
           id="g216"><path
             id="path218"
             style="fill:#211915;fill-opacity:1;fill-rule:nonzero;stroke:none"
             d="m 0,0 c 0,-0.327 0.103,-0.444 0.401,-0.444 v -0.203 h -2.726 v 0.203 c 0.15,0 0.296,0.027 0.296,0.117 0,0.128 -0.096,0.194 -0.286,0.397 L -8.94,7.18 V 0 c 0,-0.327 0.08,-0.444 0.396,-0.444 v -0.203 h -2.6 v 0.203 c 0.323,0 0.351,0.117 0.351,0.444 v 9.421 c 0,0.32 -0.028,0.44 -0.351,0.44 v 0.2 h 3.136 v -0.2 c -0.287,0 -0.396,-0.062 -0.396,-0.194 0,-0.039 0.056,-0.117 0.16,-0.219 l 6.383,-6.786 v 6.759 c 0,0.32 -0.024,0.44 -0.372,0.44 v 0.2 h 2.634 v -0.2 C 0.103,9.861 0,9.741 0,9.421 Z" /></g><g
           transform="translate(390.1353,76.9414)"
           id="g220"><path
             id="path222"
             style="fill:#211915;fill-opacity:1;fill-rule:nonzero;stroke:none"
             d="m 0,0 -0.216,0.109 c 0.008,0.09 0.008,0.167 0.008,0.238 0,0.366 -1.78,1.305 -3.616,1.305 -2.352,0 -4.455,-1.067 -4.455,-3.776 0,-2.706 2.103,-3.766 4.629,-3.766 2.05,0 3.798,1.146 3.798,1.813 0,0.07 -0.027,0.198 -0.055,0.257 l 0.143,0.113 1.516,-2.167 -0.117,-0.07 C 1.59,-5.909 1.499,-5.89 1.463,-5.89 c -0.448,0 -1.582,-1.742 -5.287,-1.742 -3.288,0 -6.537,1.637 -6.537,5.508 0,3.445 3.033,5.508 6.638,5.508 2.585,0 4.323,-1.155 4.633,-1.155 0.144,0 0.242,0.02 0.341,0.184 L 1.463,2.335 Z" /></g><g
           transform="translate(396.668,70.1084)"
           id="g224"><path
             id="path226"
             style="fill:#211915;fill-opacity:1;fill-rule:nonzero;stroke:none"
             d="m 0,0 c 0,-0.327 0.078,-0.444 0.548,-0.444 v -0.203 h -3.161 v 0.203 c 0.462,0 0.528,0.117 0.528,0.444 v 9.421 c 0,0.32 -0.066,0.44 -0.528,0.44 v 0.2 h 3.161 v -0.2 C 0.078,9.861 0,9.741 0,9.421 Z" /></g><g
           transform="translate(399.6167,69.6641)"
           id="g228"><path
             id="path230"
             style="fill:#211915;fill-opacity:1;fill-rule:nonzero;stroke:none"
             d="m 0,0 c 0.32,0 0.386,0.121 0.386,0.444 v 9.425 c 0,0.32 -0.066,0.437 -0.386,0.437 v 0.199 h 9.556 c 0.347,0 0.503,0.133 0.503,0.327 h 0.205 V 8.399 h -0.205 c 0,0.258 -0.156,0.387 -0.503,0.387 H 2.479 V 6.154 h 4.613 c 0.357,0 0.511,0.121 0.511,0.379 H 7.798 V 4.069 H 7.603 C 7.603,4.303 7.449,4.42 7.092,4.42 H 2.479 V 1.531 h 7.206 c 0.349,0 0.508,0.125 0.508,0.356 h 0.201 v -2.413 h -0.201 c 0,0.203 -0.159,0.323 -0.508,0.323 l -9.685,0 z" /></g><g
           transform="translate(423.0864,70.1084)"
           id="g232"><path
             id="path234"
             style="fill:#211915;fill-opacity:1;fill-rule:nonzero;stroke:none"
             d="m 0,0 c 0,-0.327 0.109,-0.444 0.396,-0.444 v -0.203 h -2.723 v 0.203 c 0.15,0 0.292,0.027 0.292,0.117 0,0.128 -0.091,0.194 -0.275,0.397 L -8.938,7.18 V 0 c 0,-0.327 0.076,-0.444 0.392,-0.444 v -0.203 h -2.596 v 0.203 c 0.317,0 0.35,0.117 0.35,0.444 v 9.421 c 0,0.32 -0.033,0.44 -0.35,0.44 v 0.2 h 3.132 v -0.2 c -0.279,0 -0.394,-0.062 -0.394,-0.194 0,-0.039 0.058,-0.117 0.158,-0.219 l 6.391,-6.786 v 6.759 c 0,0.32 -0.026,0.44 -0.386,0.44 v 0.2 h 2.637 v -0.2 C 0.109,9.861 0,9.741 0,9.421 Z" /></g><g
           transform="translate(435.9243,76.9414)"
           id="g236"><path
             id="path238"
             style="fill:#211915;fill-opacity:1;fill-rule:nonzero;stroke:none"
             d="m 0,0 -0.218,0.109 c 0.008,0.09 0.008,0.167 0.008,0.238 0,0.366 -1.782,1.305 -3.614,1.305 -2.346,0 -4.451,-1.067 -4.451,-3.776 0,-2.706 2.105,-3.766 4.627,-3.766 2.044,0 3.79,1.146 3.79,1.813 0,0.07 -0.025,0.198 -0.055,0.257 l 0.149,0.113 1.51,-2.167 -0.119,-0.07 C 1.596,-5.909 1.5,-5.89 1.454,-5.89 c -0.441,0 -1.569,-1.742 -5.278,-1.742 -3.288,0 -6.535,1.637 -6.535,5.508 0,3.445 3.023,5.508 6.64,5.508 2.589,0 4.327,-1.155 4.631,-1.155 0.146,0 0.242,0.02 0.341,0.184 L 1.454,2.335 Z" /></g><g
           transform="translate(442.4609,70.1084)"
           id="g240"><path
             id="path242"
             style="fill:#211915;fill-opacity:1;fill-rule:nonzero;stroke:none"
             d="m 0,0 c 0,-0.327 0.078,-0.444 0.544,-0.444 v -0.203 h -3.161 v 0.203 c 0.47,0 0.528,0.117 0.528,0.444 v 9.421 c 0,0.32 -0.058,0.44 -0.528,0.44 v 0.2 h 3.161 v -0.2 C 0.078,9.861 0,9.741 0,9.421 Z" /></g><g
           transform="translate(452.3442,73.9668)"
           id="g244"><path
             id="path246"
             style="fill:#211915;fill-opacity:1;fill-rule:nonzero;stroke:none"
             d="M 0,0 -1.77,3.852 -3.506,0 Z m -7.675,-4.506 v 0.203 c 0.271,0.02 0.353,0.086 0.563,0.57 l 4.013,9.035 c 0.074,0.148 0.164,0.303 0.164,0.432 0,0.161 -0.113,0.242 -0.304,0.269 v 0.203 h 3.208 V 6.003 C -0.255,5.976 -0.337,5.887 -0.337,5.785 c 0,-0.117 0.052,-0.23 0.13,-0.386 l 4.275,-9.132 c 0.21,-0.464 0.257,-0.57 0.562,-0.57 V -4.506 H 1.708 v 0.203 c 0.185,0 0.261,0.078 0.261,0.145 0,0.167 -0.131,0.37 -1.121,2.486 h -5.052 c -0.844,-1.918 -1.07,-2.214 -1.07,-2.405 0,-0.14 0.094,-0.206 0.226,-0.226 v -0.203 z" /></g><g
           transform="translate(466.3652,75.834)"
           id="g248"><path
             id="path250"
             style="fill:#211915;fill-opacity:1;fill-rule:nonzero;stroke:none"
             d="m 0,0 h 4.525 c 1.114,0 1.439,0.34 1.439,1.307 0,0.95 -0.325,1.309 -1.439,1.309 L 0,2.616 Z m 0,-5.726 c 0,-0.319 0.059,-0.428 0.413,-0.428 v -0.211 h -2.908 v 0.211 c 0.346,0 0.404,0.109 0.404,0.428 v 9.429 c 0,0.324 -0.058,0.441 -0.404,0.441 v 0.21 h 7.044 c 2.333,0 3.506,-1.185 3.506,-3.047 0,-1.868 -0.938,-3.057 -3.506,-3.057 H 0 Z" /></g><g
           transform="translate(477.8506,74.8174)"
           id="g252"><path
             id="path254"
             style="fill:#211915;fill-opacity:1;fill-rule:nonzero;stroke:none"
             d="m 0,0 c 0,-2.456 1.812,-3.758 4.048,-3.758 2.237,0 4.054,1.302 4.054,3.758 0,2.467 -1.817,3.776 -4.054,3.776 C 1.812,3.776 0,2.467 0,0 m 10.195,0 c 0,-3.56 -2.748,-5.504 -6.147,-5.504 -3.407,0 -6.14,1.944 -6.14,5.504 0,3.566 2.733,5.516 6.14,5.516 3.399,0 6.147,-1.95 6.147,-5.516" /></g><g
           transform="translate(492.5146,75.7725)"
           id="g256"><path
             id="path258"
             style="fill:#211915;fill-opacity:1;fill-rule:nonzero;stroke:none"
             d="m 0,0 h 4.457 c 1.064,0 1.922,0.401 1.922,1.333 0,0.932 -0.858,1.345 -1.922,1.345 H 0 Z m -0.047,-5.664 c 0,-0.319 0.061,-0.429 0.419,-0.429 v -0.211 h -2.916 v 0.211 c 0.352,0 0.416,0.11 0.416,0.429 v 9.429 c 0,0.324 -0.064,0.44 -0.416,0.44 v 0.211 h 7.091 c 2.564,0 3.921,-1.356 3.921,-3.083 0,-1.751 -1.077,-2.85 -2.886,-3.139 l 2.729,-3.858 c 0.2,-0.289 0.323,-0.429 0.627,-0.429 V -6.304 H 5.665 v 0.211 c 0.186,0 0.211,0.047 0.211,0.11 0,0.12 -0.039,0.182 -0.189,0.389 l -2.702,3.855 h -3.032 z" /></g><g
           transform="translate(508.8506,69.6797)"
           id="g260"><path
             id="path262"
             style="fill:#211915;fill-opacity:1;fill-rule:nonzero;stroke:none"
             d="m 0,0 c 0.315,0 0.38,0.109 0.38,0.429 v 9.428 c 0,0.325 -0.065,0.441 -0.38,0.441 v 0.211 h 2.906 v -0.211 c -0.372,0 -0.44,-0.116 -0.44,-0.441 V 1.516 h 6.805 c 0.357,0 0.503,0.125 0.503,0.363 H 9.977 V -0.53 H 9.774 c 0,0.195 -0.146,0.319 -0.503,0.319 l -9.271,0 z" /></g><g
           transform="translate(527.1787,73.9668)"
           id="g264"><path
             id="path266"
             style="fill:#211915;fill-opacity:1;fill-rule:nonzero;stroke:none"
             d="M 0,0 -1.771,3.852 -3.508,0 Z m -7.677,-4.498 v 0.211 c 0.259,0.004 0.357,0.082 0.566,0.554 l 4.02,9.043 c 0.072,0.14 0.162,0.299 0.162,0.436 0,0.168 -0.119,0.23 -0.314,0.265 v 0.211 h 3.206 V 6.011 c -0.216,-0.035 -0.3,-0.116 -0.3,-0.218 0,-0.125 0.051,-0.238 0.129,-0.39 l 4.277,-9.136 c 0.2,-0.464 0.26,-0.554 0.564,-0.554 V -4.498 H 1.709 v 0.211 c 0.189,0 0.266,0.062 0.266,0.14 0,0.156 -0.131,0.359 -1.125,2.475 h -5.052 c -0.846,-1.918 -1.073,-2.214 -1.073,-2.405 0,-0.128 0.088,-0.206 0.227,-0.21 v -0.211 z" /></g><g
           transform="translate(550.0439,80.1885)"
           id="g268"><path
             id="path270"
             style="fill:#211915;fill-opacity:1;fill-rule:nonzero;stroke:none"
             d="m 0,0 v -0.211 c -0.323,-0.023 -0.417,-0.202 -0.597,-0.572 l -3.981,-9.129 c -0.061,-0.141 -0.121,-0.223 -0.121,-0.387 0,-0.143 0.111,-0.21 0.295,-0.21 v -0.211 h -2.885 v 0.211 c 0.207,0.02 0.238,0.047 0.238,0.163 0,0.168 -0.088,0.293 -0.148,0.434 l -4.079,9.141 c -0.188,0.444 -0.26,0.49 -0.667,0.56 V 0 h 3.095 v -0.211 c -0.144,0 -0.285,-0.097 -0.285,-0.218 0,-0.105 0.106,-0.293 0.268,-0.659 l 3.104,-6.841 3.034,6.908 c 0.106,0.238 0.219,0.409 0.219,0.592 0,0.121 -0.113,0.218 -0.263,0.218 l 0,0.211 z" /></g><g
           transform="translate(554.1133,70.1084)"
           id="g272"><path
             id="path274"
             style="fill:#211915;fill-opacity:1;fill-rule:nonzero;stroke:none"
             d="M 0,0 C 0,-0.319 0.061,-0.429 0.534,-0.429 V -0.64 h -3.157 v 0.211 c 0.47,0 0.526,0.11 0.526,0.429 v 9.429 c 0,0.324 -0.056,0.44 -0.526,0.44 V 10.08 H 0.534 V 9.869 C 0.061,9.869 0,9.753 0,9.429 Z" /></g><g
           transform="translate(559.5469,71.1953)"
           id="g276"><path
             id="path278"
             style="fill:#211915;fill-opacity:1;fill-rule:nonzero;stroke:none"
             d="m 0,0 h 4.335 c 1.83,0 2.916,0.951 2.916,3.622 0,2.86 -1.472,3.633 -3.419,3.633 H 0 Z m -2.083,8.342 c 0,0.324 -0.061,0.44 -0.413,0.44 V 8.993 H 4.01 c 3.74,0 5.332,-2.139 5.332,-5.371 0,-3.56 -1.973,-5.349 -5.007,-5.349 h -6.831 v 0.211 c 0.352,0 0.413,0.11 0.413,0.429 z" /></g><g
           transform="translate(576.9941,73.9668)"
           id="g280"><path
             id="path282"
             style="fill:#211915;fill-opacity:1;fill-rule:nonzero;stroke:none"
             d="M 0,0 -1.771,3.852 -3.504,0 Z m -7.681,-4.498 v 0.211 c 0.271,0.004 0.357,0.082 0.564,0.554 l 4.016,9.043 c 0.075,0.14 0.168,0.299 0.168,0.436 0,0.168 -0.119,0.23 -0.306,0.265 v 0.211 h 3.202 V 6.011 C -0.253,5.976 -0.351,5.895 -0.351,5.793 c 0,-0.125 0.069,-0.238 0.137,-0.39 L 4.062,-3.733 C 4.261,-4.197 4.323,-4.287 4.633,-4.287 V -4.498 H 1.704 v 0.211 c 0.194,0 0.259,0.062 0.259,0.14 0,0.156 -0.129,0.359 -1.121,2.475 h -5.043 c -0.851,-1.918 -1.074,-2.214 -1.074,-2.405 0,-0.128 0.086,-0.206 0.223,-0.21 v -0.211 z" /></g><g
           transform="translate(478.5596,146.5703)"
           id="g284"><path
             id="path286"
             style="fill:#ffffff;fill-opacity:1;fill-rule:nonzero;stroke:none"
             d="m 0,0 c -6.072,-1.068 -12.29,-1.622 -18.665,-1.622 -6.307,0 -12.499,0.507 -18.507,1.552 -0.057,1.571 -0.106,3.118 -0.106,4.693 0,24.997 6.799,48.49 18.617,68.58 C -6.782,53.07 0.049,29.679 0.049,4.623 0.049,3.079 0.049,1.536 0,0 m 3.051,4.514 c 0,27.34 -7.962,52.829 -21.659,74.279 -13.692,-21.45 -21.66,-46.947 -21.66,-74.279 0,-2.394 0.061,-4.76 0.18,-7.129 6.932,-1.353 14.089,-2.055 21.423,-2.055 7.369,0 14.574,0.714 21.53,2.086 0.121,2.346 0.186,4.716 0.186,7.098" /></g></g></g></g></svg>