<?xml version="1.0" encoding="utf-8"?>
<!-- Generator: Adobe Illustrator 16.0.0, SVG Export Plug-In . SVG Version: 6.00 Build 0)  -->
<!DOCTYPE svg PUBLIC "-//W3C//DTD SVG 1.1//EN" "http://www.w3.org/Graphics/SVG/1.1/DTD/svg11.dtd">
<svg version="1.1"
	 id="svg2" xmlns:rdf="http://www.w3.org/1999/02/22-rdf-syntax-ns#" xmlns:dc="http://purl.org/dc/elements/1.1/" xmlns:svg="http://www.w3.org/2000/svg" xmlns:cc="http://creativecommons.org/ns#"
	 xmlns="http://www.w3.org/2000/svg" xmlns:xlink="http://www.w3.org/1999/xlink" x="0px" y="0px" width="177.586px"
	 height="88.78px" viewBox="0 0 177.586 88.78" enable-background="new 0 0 177.586 88.78" xml:space="preserve">
<g id="g10" transform="matrix(1.3333333,0,0,-1.3333333,0,108.84173)">
	<path id="path12" fill="#1E130F" d="M42.185,32.598h49.036v49.033H42.185V32.598z"/>
	<g id="g14" transform="translate(0,32.5899)">
		<path id="path16" fill="#1E130F" d="M0,0v-17.543h2.357v8.063h2.406l6.369-8.063h3.11L7.968-9.48h5.284V0H0z M2.357-2.313h8.535
			v-4.805H2.357V-2.313z"/>
	</g>
	<path id="path18" fill="#1E130F" d="M18.095,15.047h11.649v11.227H18.095V15.047z M20.455,23.91h6.934v-6.55h-6.934V23.91z"/>
	<g id="g20" transform="translate(44.9038,26.2734)">
		<path id="path22" fill="#1E130F" d="M0,0h-10.844v-11.227H0v2.314h-8.488v2.095H0v2.353h-8.488v2.101H0V0z"/>
	</g>
	<g id="g24" transform="translate(49.2544,15.0469)">
		<path id="path26" fill="#1E130F" d="M0,0h2.355v8.863h4.578V0h2.353v8.863h4.578V0h2.359v11.227H0V0z"/>
	</g>
	<g id="g28" transform="translate(69.8335,15.0469)">
		<path id="path30" fill="#1E130F" d="M0,0h2.358v8.863h4.576V0h2.355v8.863h4.578V0h2.36v11.227H0V0z"/>
	</g>
	<g id="g32" transform="translate(101.2339,26.2734)">
		<path id="path34" fill="#1E130F" d="M0,0h-10.847v-11.227H0v2.314h-8.488v2.095H0v2.353h-8.488v2.101H0V0z"/>
	</g>
	<path id="path36" fill="#1E130F" d="M107.92,21.571h6.272v2.473h-6.272V21.571z M105.547,15.047v11.226h10.988v-6.935h-3.205
		l4.057-4.291h-3.206l-4.011,4.291h-2.262v-4.291H105.547z"/>
	<g id="g38" transform="translate(120.8313,26.2737)">
		<path id="path40" fill="#1E130F" d="M0,0v-4.865l9.953-3.391v-0.658H2.36v0.564H0v-2.878h12.359v4.619L2.36-3.163v0.8h7.593
			v-0.563h2.406V0H0z"/>
	</g>
	<g id="g42">
		<g>
			<defs>
				<rect id="SVGID_1_" x="-22.198" y="-13.605" width="177.586" height="108.841"/>
			</defs>
			<clipPath id="SVGID_2_">
				<use xlink:href="#SVGID_1_"  overflow="visible"/>
			</clipPath>
			<g id="g44" clip-path="url(#SVGID_2_)">
				<g id="g50" transform="translate(63.9517,66.252)">
					<path id="path52" fill="#FFFFFF" d="M0,0c-1.915-4.459-2.837-8.283-2.837-8.283s1.496-3.302,0.414-9.246
						c-0.791-4.345-1.795-7.107-3.52-8.698c0,0,1.518-0.483,4.76-0.552c0,0-0.007,2.554,0.483,4.211
						c0.554,1.867,0.694,6.561,0.694,8.285l2.413,1.173c0.952-0.624,2.845-4.2,3.451-6.83c0.625-2.694,0.207-6.871,0.207-6.871
						c3.492,0.072,4.625,0.45,4.625,0.45s-1.557,3.002-2.343,6.421c-0.968,4.207-4.283,8.21-4.283,8.21
						c0.278,0.276,2.9,1.797,2.833,6.071C6.816-0.963,2.683,5.316,2.683,5.316C1.624,3.599,0.897,2.09,0,0 M1.281-1.229
						c0.861,2.078,1.54,3.303,1.54,3.303s1.911-2.767,1.313-8.216c-0.62-5.658-4.28-6.141-4.28-6.141
						c-0.137,2.274-0.761,4.28-0.761,4.28C-0.563-5.796,0.4-3.368,1.281-1.229"/>
				</g>
				<g id="g130" transform="translate(75.9683,38.5352)">
					<path id="path132" fill="#FFFFFF" d="M0,0c-3.043-0.535-6.158-0.814-9.352-0.814c-3.161,0-6.263,0.255-9.274,0.779
						c-0.028,0.787-0.052,1.562-0.052,2.35c0,12.526,3.406,24.298,9.328,34.364C-3.398,26.591,0.024,14.87,0.024,2.315
						C0.024,1.542,0.024,0.768,0,0 M1.528,2.262c0,13.699-3.989,26.47-10.852,37.218c-6.861-10.748-10.853-23.523-10.853-37.218
						c0-1.2,0.031-2.385,0.09-3.574c3.475-0.676,7.061-1.028,10.735-1.028c3.692,0,7.302,0.357,10.788,1.044
						C1.496-0.12,1.528,1.068,1.528,2.262"/>
				</g>
			</g>
		</g>
	</g>
</g>
</svg>
