<?xml version="1.0" encoding="UTF-8" standalone="no"?>
<svg
   xmlns:dc="http://purl.org/dc/elements/1.1/"
   xmlns:cc="http://creativecommons.org/ns#"
   xmlns:rdf="http://www.w3.org/1999/02/22-rdf-syntax-ns#"
   xmlns:svg="http://www.w3.org/2000/svg"
   xmlns="http://www.w3.org/2000/svg"
   viewBox="0 0 177.58667 108.84173"
   height="108.84173"
   width="177.58667"
   xml:space="preserve"
   id="svg2"
   version="1.1"><metadata
     id="metadata8"><rdf:RDF><cc:Work
         rdf:about=""><dc:format>image/svg+xml</dc:format><dc:type
           rdf:resource="http://purl.org/dc/dcmitype/StillImage" /></cc:Work></rdf:RDF></metadata><defs
     id="defs6"><clipPath
       id="clipPath48"
       clipPathUnits="userSpaceOnUse"><path
         id="path46"
         d="M 0,81.631 H 133.19 V 0 H 0 Z" /></clipPath></defs><g
     transform="matrix(1.3333333,0,0,-1.3333333,0,108.84173)"
     id="g10"><path
       id="path12"
       style="fill:#1e130f;fill-opacity:1;fill-rule:nonzero;stroke:none"
       d="M 42.185,32.598 H 91.221 V 81.631 H 42.185 Z" /><g
       transform="translate(0,32.5899)"
       id="g14"><path
         id="path16"
         style="fill:#1e130f;fill-opacity:1;fill-rule:nonzero;stroke:none"
         d="m 0,0 v -17.543 h 2.357 v 8.063 h 2.406 l 6.369,-8.063 h 3.11 L 7.968,-9.48 h 5.284 V 0 Z m 2.357,-2.313 h 8.535 V -7.119 H 2.357 Z" /></g><path
       id="path18"
       style="fill:#1e130f;fill-opacity:1;fill-rule:nonzero;stroke:none"
       d="M 18.095,15.047 H 29.744 V 26.274 H 18.095 Z m 2.36,8.863 h 6.934 v -6.55 h -6.934 z" /><g
       transform="translate(44.9038,26.2734)"
       id="g20"><path
         id="path22"
         style="fill:#1e130f;fill-opacity:1;fill-rule:nonzero;stroke:none"
         d="M 0,0 H -10.844 V -11.227 H 0 v 2.314 h -8.488 v 2.095 H 0 v 2.353 h -8.488 v 2.102 H 0 Z" /></g><g
       transform="translate(49.2544,15.0469)"
       id="g24"><path
         id="path26"
         style="fill:#1e130f;fill-opacity:1;fill-rule:nonzero;stroke:none"
         d="M 0,0 H 2.355 V 8.863 H 6.933 V 0 h 2.353 v 8.863 h 4.578 V 0 h 2.359 V 11.227 H 0 Z" /></g><g
       transform="translate(69.8335,15.0469)"
       id="g28"><path
         id="path30"
         style="fill:#1e130f;fill-opacity:1;fill-rule:nonzero;stroke:none"
         d="M 0,0 H 2.358 V 8.863 H 6.934 V 0 h 2.355 v 8.863 h 4.578 V 0 h 2.36 V 11.227 H 0 Z" /></g><g
       transform="translate(101.2339,26.2734)"
       id="g32"><path
         id="path34"
         style="fill:#1e130f;fill-opacity:1;fill-rule:nonzero;stroke:none"
         d="M 0,0 H -10.847 V -11.227 H 0 v 2.314 h -8.488 v 2.095 H 0 v 2.353 h -8.488 v 2.102 H 0 Z" /></g><path
       id="path36"
       style="fill:#1e130f;fill-opacity:1;fill-rule:nonzero;stroke:none"
       d="m 107.92,21.571 h 6.272 v 2.472 h -6.272 z m -2.373,-6.524 v 11.226 h 10.988 v -6.935 h -3.205 l 4.057,-4.291 h -3.206 l -4.011,4.291 h -2.262 v -4.291 z" /><g
       transform="translate(120.8313,26.2737)"
       id="g38"><path
         id="path40"
         style="fill:#1e130f;fill-opacity:1;fill-rule:nonzero;stroke:none"
         d="M 0,0 V -4.864 L 9.953,-8.255 V -8.913 H 2.36 v 0.564 H 0 v -2.878 h 12.359 v 4.62 L 2.36,-3.163 v 0.8 h 7.593 v -0.563 h 2.406 V 0 Z" /></g><g
       id="g42"><g
         clip-path="url(#clipPath48)"
         id="g44"><g
           transform="translate(63.9517,66.252)"
           id="g50"><path
             id="path52"
             style="fill:#ffffff;fill-opacity:1;fill-rule:nonzero;stroke:none"
             d="m 0,0 c -1.915,-4.459 -2.837,-8.283 -2.837,-8.283 0,0 1.496,-3.302 0.414,-9.246 -0.791,-4.345 -1.795,-7.107 -3.52,-8.698 0,0 1.518,-0.483 4.76,-0.553 0,0 -0.007,2.554 0.483,4.211 0.554,1.867 0.693,6.561 0.693,8.285 l 2.413,1.173 c 0.952,-0.624 2.845,-4.2 3.451,-6.83 0.625,-2.694 0.207,-6.871 0.207,-6.871 3.492,0.072 4.625,0.45 4.625,0.45 0,0 -1.557,3.002 -2.343,6.421 -0.968,4.207 -4.283,8.21 -4.283,8.21 0.278,0.276 2.899,1.797 2.833,6.071 C 6.816,-0.963 2.683,5.316 2.683,5.316 1.624,3.599 0.897,2.09 0,0 m 1.281,-1.229 c 0.861,2.078 1.54,3.303 1.54,3.303 0,0 1.911,-2.767 1.313,-8.216 -0.62,-5.658 -4.28,-6.141 -4.28,-6.141 -0.137,2.274 -0.761,4.28 -0.761,4.28 0.344,2.207 1.307,4.635 2.188,6.774" /></g><g
           transform="translate(10.7651,3.6465)"
           id="g54"><path
             id="path56"
             style="fill:#1e130f;fill-opacity:1;fill-rule:nonzero;stroke:none"
             d="M 0,0 -0.107,0.055 C -0.1,0.1 -0.1,0.139 -0.1,0.174 c 0,0.182 -0.894,0.653 -1.812,0.653 -1.174,0 -2.231,-0.534 -2.231,-1.892 0,-1.355 1.057,-1.888 2.315,-1.888 1.03,0 1.906,0.574 1.906,0.91 0,0.035 -0.016,0.099 -0.03,0.129 l 0.071,0.056 0.764,-1.086 -0.062,-0.035 c -0.022,0.016 -0.065,0.026 -0.091,0.026 -0.216,0 -0.787,-0.873 -2.642,-0.873 -1.648,0 -3.282,0.822 -3.282,2.761 0,1.727 1.523,2.76 3.329,2.76 1.301,0 2.17,-0.578 2.326,-0.578 0.074,0 0.117,0.008 0.17,0.092 L 0.73,1.17 Z" /></g><g
           transform="translate(13.5386,2.5801)"
           id="g58"><path
             id="path60"
             style="fill:#1e130f;fill-opacity:1;fill-rule:nonzero;stroke:none"
             d="m 0,0 c 0,-1.229 0.913,-1.886 2.034,-1.886 1.122,0 2.028,0.657 2.028,1.886 0,1.235 -0.906,1.894 -2.028,1.894 C 0.913,1.894 0,1.235 0,0 m 5.11,0 c 0,-1.781 -1.374,-2.76 -3.076,-2.76 -1.706,0 -3.079,0.979 -3.079,2.76 0,1.783 1.373,2.763 3.079,2.763 C 3.736,2.763 5.11,1.783 5.11,0" /></g><g
           transform="translate(25.228,0.2217)"
           id="g62"><path
             id="path64"
             style="fill:#1e130f;fill-opacity:1;fill-rule:nonzero;stroke:none"
             d="m 0,0 c 0,-0.163 0.052,-0.222 0.201,-0.222 v -0.101 h -1.366 v 0.101 c 0.075,0 0.149,0.013 0.149,0.059 0,0.062 -0.048,0.096 -0.144,0.198 L -4.479,3.598 V 0 c 0,-0.163 0.04,-0.222 0.198,-0.222 v -0.101 h -1.303 v 0.101 c 0.162,0 0.176,0.059 0.176,0.222 v 4.722 c 0,0.16 -0.014,0.218 -0.176,0.218 v 0.102 h 1.571 V 4.94 c -0.143,0 -0.198,-0.029 -0.198,-0.095 0,-0.02 0.029,-0.059 0.08,-0.11 l 3.199,-3.401 v 3.388 c 0,0.16 -0.012,0.218 -0.187,0.218 v 0.102 h 1.32 V 4.94 C 0.052,4.94 0,4.882 0,4.722 Z" /></g><g
           transform="translate(31.6616,3.6465)"
           id="g66"><path
             id="path68"
             style="fill:#1e130f;fill-opacity:1;fill-rule:nonzero;stroke:none"
             d="m 0,0 -0.108,0.055 c 0.004,0.045 0.004,0.084 0.004,0.119 0,0.182 -0.892,0.653 -1.812,0.653 -1.178,0 -2.232,-0.534 -2.232,-1.892 0,-1.355 1.054,-1.888 2.319,-1.888 1.027,0 1.903,0.574 1.903,0.91 0,0.035 -0.013,0.099 -0.027,0.129 l 0.071,0.056 0.76,-1.086 -0.058,-0.035 c -0.023,0.016 -0.069,0.026 -0.087,0.026 -0.224,0 -0.792,-0.873 -2.649,-0.873 -1.647,0 -3.275,0.822 -3.275,2.761 0,1.727 1.519,2.76 3.326,2.76 1.295,0 2.166,-0.578 2.321,-0.578 0.073,0 0.121,0.008 0.171,0.092 L 0.733,1.17 Z" /></g><g
           transform="translate(34.9351,0.2217)"
           id="g70"><path
             id="path72"
             style="fill:#1e130f;fill-opacity:1;fill-rule:nonzero;stroke:none"
             d="M 0,0 C 0,-0.163 0.039,-0.222 0.275,-0.222 V -0.323 H -1.31 v 0.101 c 0.232,0 0.265,0.059 0.265,0.222 v 4.722 c 0,0.16 -0.033,0.218 -0.265,0.218 V 5.042 H 0.275 V 4.94 C 0.039,4.94 0,4.882 0,4.722 Z" /></g><g
           transform="translate(36.4126)"
           id="g74"><path
             id="path76"
             style="fill:#1e130f;fill-opacity:1;fill-rule:nonzero;stroke:none"
             d="M 0,0 C 0.16,0 0.194,0.059 0.194,0.222 V 4.943 C 0.194,5.104 0.16,5.163 0,5.163 v 0.101 h 4.788 c 0.174,0 0.252,0.066 0.252,0.164 H 5.143 V 4.208 H 5.04 c 0,0.13 -0.078,0.194 -0.252,0.194 H 1.242 V 3.084 h 2.312 c 0.179,0 0.256,0.059 0.256,0.189 H 3.907 V 2.038 H 3.81 c 0,0.116 -0.077,0.176 -0.256,0.176 H 1.242 V 0.768 h 3.611 c 0.175,0 0.254,0.062 0.254,0.175 H 5.208 V -0.266 H 5.107 c 0,0.104 -0.079,0.164 -0.254,0.164 l -4.853,0 z" /></g><g
           transform="translate(48.1724,0.2217)"
           id="g78"><path
             id="path80"
             style="fill:#1e130f;fill-opacity:1;fill-rule:nonzero;stroke:none"
             d="m 0,0 c 0,-0.163 0.055,-0.222 0.198,-0.222 v -0.101 h -1.364 v 0.101 c 0.075,0 0.147,0.013 0.147,0.059 0,0.062 -0.046,0.096 -0.138,0.198 L -4.479,3.598 V 0 c 0,-0.163 0.039,-0.222 0.197,-0.222 v -0.101 h -1.301 v 0.101 c 0.159,0 0.176,0.059 0.176,0.222 v 4.722 c 0,0.16 -0.017,0.218 -0.176,0.218 v 0.102 h 1.57 V 4.94 c -0.14,0 -0.198,-0.029 -0.198,-0.095 0,-0.02 0.03,-0.059 0.079,-0.11 L -0.93,1.334 v 3.388 c 0,0.16 -0.012,0.218 -0.193,0.218 V 5.042 H 0.198 V 4.94 C 0.055,4.94 0,4.882 0,4.722 Z" /></g><g
           transform="translate(54.605,3.6465)"
           id="g82"><path
             id="path84"
             style="fill:#1e130f;fill-opacity:1;fill-rule:nonzero;stroke:none"
             d="m 0,0 -0.109,0.055 c 0.004,0.045 0.004,0.084 0.004,0.119 0,0.182 -0.893,0.653 -1.811,0.653 -1.176,0 -2.23,-0.534 -2.23,-1.892 0,-1.355 1.054,-1.888 2.318,-1.888 1.025,0 1.9,0.574 1.9,0.91 0,0.035 -0.013,0.099 -0.028,0.129 l 0.074,0.056 0.757,-1.086 -0.059,-0.035 c -0.016,0.016 -0.064,0.026 -0.087,0.026 -0.221,0 -0.787,-0.873 -2.645,-0.873 -1.647,0 -3.274,0.822 -3.274,2.761 0,1.727 1.514,2.76 3.327,2.76 1.297,0 2.168,-0.578 2.32,-0.578 0.074,0 0.121,0.008 0.171,0.092 L 0.729,1.17 Z" /></g><g
           transform="translate(57.8804,0.2217)"
           id="g86"><path
             id="path88"
             style="fill:#1e130f;fill-opacity:1;fill-rule:nonzero;stroke:none"
             d="m 0,0 c 0,-0.163 0.039,-0.222 0.273,-0.222 v -0.101 h -1.585 v 0.101 c 0.236,0 0.265,0.059 0.265,0.222 v 4.722 c 0,0.16 -0.029,0.218 -0.265,0.218 V 5.042 H 0.273 V 4.94 C 0.039,4.94 0,4.882 0,4.722 Z" /></g><g
           transform="translate(62.8325,2.1553)"
           id="g90"><path
             id="path92"
             style="fill:#1e130f;fill-opacity:1;fill-rule:nonzero;stroke:none"
             d="M 0,0 -0.887,1.931 -1.757,0 Z m -3.845,-2.257 v 0.102 c 0.135,0.009 0.176,0.042 0.282,0.285 l 2.01,4.525 c 0.038,0.074 0.083,0.153 0.083,0.219 0,0.08 -0.057,0.121 -0.153,0.134 v 0.1 h 1.608 v -0.1 C -0.128,2.995 -0.169,2.949 -0.169,2.897 c 0,-0.056 0.027,-0.114 0.065,-0.192 L 2.038,-1.87 C 2.144,-2.103 2.167,-2.155 2.321,-2.155 V -2.257 H 0.856 v 0.102 c 0.092,0 0.131,0.039 0.131,0.072 0,0.083 -0.066,0.186 -0.562,1.245 h -2.531 c -0.423,-0.96 -0.536,-1.108 -0.536,-1.204 0,-0.071 0.047,-0.104 0.113,-0.113 v -0.102 z" /></g><g
           transform="translate(69.8579,3.0898)"
           id="g94"><path
             id="path96"
             style="fill:#1e130f;fill-opacity:1;fill-rule:nonzero;stroke:none"
             d="m 0,0 h 2.268 c 0.557,0 0.72,0.172 0.72,0.656 0,0.475 -0.163,0.656 -0.72,0.656 H 0 Z M 0,-2.869 C 0,-3.028 0.029,-3.082 0.207,-3.082 V -3.188 H -1.25 v 0.106 c 0.173,0 0.202,0.054 0.202,0.213 v 4.725 c 0,0.164 -0.029,0.221 -0.202,0.221 v 0.107 h 3.529 c 1.169,0 1.757,-0.596 1.757,-1.528 0,-0.936 -0.47,-1.531 -1.757,-1.531 H 0 Z" /></g><g
           transform="translate(75.6128,2.5801)"
           id="g98"><path
             id="path100"
             style="fill:#1e130f;fill-opacity:1;fill-rule:nonzero;stroke:none"
             d="M 0,0 C 0,-1.229 0.908,-1.882 2.028,-1.882 3.149,-1.882 4.06,-1.229 4.06,0 4.06,1.238 3.149,1.894 2.028,1.894 0.908,1.894 0,1.238 0,0 m 5.108,0 c 0,-1.781 -1.377,-2.757 -3.08,-2.757 -1.707,0 -3.076,0.976 -3.076,2.757 0,1.789 1.369,2.766 3.076,2.766 1.703,0 3.08,-0.977 3.08,-2.766" /></g><g
           transform="translate(82.9604,3.0605)"
           id="g102"><path
             id="path104"
             style="fill:#1e130f;fill-opacity:1;fill-rule:nonzero;stroke:none"
             d="m 0,0 h 2.233 c 0.534,0 0.963,0.201 0.963,0.668 0,0.466 -0.429,0.673 -0.963,0.673 L 0,1.341 Z m -0.023,-2.839 c 0,-0.16 0.03,-0.214 0.21,-0.214 v -0.106 h -1.461 v 0.106 c 0.175,0 0.208,0.054 0.208,0.214 v 4.725 c 0,0.163 -0.033,0.221 -0.208,0.221 v 0.106 h 3.552 c 1.285,0 1.965,-0.681 1.965,-1.545 0,-0.877 -0.54,-1.43 -1.446,-1.573 l 1.367,-1.934 c 0.101,-0.143 0.162,-0.214 0.315,-0.214 v -0.106 h -1.64 v 0.106 c 0.093,0 0.105,0.024 0.105,0.054 0,0.06 -0.019,0.093 -0.094,0.194 l -1.354,1.933 h -1.519 z" /></g><g
           transform="translate(91.146,0.0078)"
           id="g106"><path
             id="path108"
             style="fill:#1e130f;fill-opacity:1;fill-rule:nonzero;stroke:none"
             d="M 0,0 C 0.158,0 0.19,0.054 0.19,0.213 V 4.938 C 0.19,5.102 0.158,5.159 0,5.159 V 5.266 H 1.456 V 5.159 C 1.27,5.159 1.235,5.102 1.235,4.938 v -4.18 h 3.411 c 0.178,0 0.251,0.064 0.251,0.183 H 4.999 V -0.267 H 4.897 c 0,0.097 -0.073,0.162 -0.251,0.162 l -4.646,0 z" /></g><g
           transform="translate(100.3296,2.1553)"
           id="g110"><path
             id="path112"
             style="fill:#1e130f;fill-opacity:1;fill-rule:nonzero;stroke:none"
             d="M 0,0 -0.888,1.931 -1.758,0 Z m -3.847,-2.253 v 0.106 c 0.13,10e-4 0.179,0.041 0.284,0.277 l 2.014,4.53 c 0.036,0.069 0.081,0.152 0.081,0.22 0,0.084 -0.059,0.115 -0.157,0.132 v 0.106 h 1.606 V 3.012 c -0.108,-0.017 -0.15,-0.058 -0.15,-0.111 0,-0.06 0.025,-0.118 0.065,-0.193 L 2.039,-1.87 c 0.1,-0.233 0.13,-0.277 0.282,-0.277 V -2.253 H 0.856 v 0.106 c 0.095,0 0.133,0.031 0.133,0.069 0,0.078 -0.065,0.181 -0.563,1.24 h -2.531 c -0.424,-0.96 -0.539,-1.108 -0.539,-1.204 0,-0.064 0.045,-0.104 0.115,-0.105 v -0.106 z" /></g><g
           transform="translate(111.7866,5.2734)"
           id="g114"><path
             id="path116"
             style="fill:#1e130f;fill-opacity:1;fill-rule:nonzero;stroke:none"
             d="m 0,0 v -0.105 c -0.162,-0.013 -0.209,-0.102 -0.299,-0.29 l -1.995,-4.573 c -0.03,-0.07 -0.06,-0.111 -0.06,-0.192 0,-0.074 0.055,-0.106 0.147,-0.106 v -0.106 h -1.445 v 0.106 c 0.103,0.01 0.119,0.024 0.119,0.082 0,0.082 -0.044,0.146 -0.074,0.216 l -2.044,4.579 c -0.094,0.225 -0.13,0.248 -0.334,0.284 V 0 h 1.55 v -0.105 c -0.072,0 -0.142,-0.049 -0.142,-0.111 0,-0.054 0.053,-0.146 0.134,-0.329 l 1.555,-3.428 1.521,3.459 c 0.053,0.119 0.109,0.205 0.109,0.298 0,0.062 -0.056,0.111 -0.132,0.111 l 0,0.105 z" /></g><g
           transform="translate(113.8257,0.2217)"
           id="g118"><path
             id="path120"
             style="fill:#1e130f;fill-opacity:1;fill-rule:nonzero;stroke:none"
             d="M 0,0 C 0,-0.16 0.03,-0.214 0.268,-0.214 V -0.32 h -1.582 v 0.106 c 0.235,0 0.263,0.054 0.263,0.214 v 4.726 c 0,0.162 -0.028,0.22 -0.263,0.22 V 5.052 H 0.268 V 4.946 C 0.03,4.946 0,4.888 0,4.726 Z" /></g><g
           transform="translate(116.5483,0.7666)"
           id="g122"><path
             id="path124"
             style="fill:#1e130f;fill-opacity:1;fill-rule:nonzero;stroke:none"
             d="m 0,0 h 2.172 c 0.917,0 1.461,0.478 1.461,1.813 0,1.436 -0.737,1.822 -1.713,1.822 H 0 Z m -1.044,4.18 c 0,0.163 -0.03,0.221 -0.207,0.221 v 0.106 h 3.26 c 1.874,0 2.672,-1.074 2.672,-2.694 0,-1.781 -0.989,-2.678 -2.509,-2.678 h -3.423 v 0.106 c 0.177,0 0.207,0.054 0.207,0.214 z" /></g><g
           transform="translate(125.2905,2.1553)"
           id="g126"><path
             id="path128"
             style="fill:#1e130f;fill-opacity:1;fill-rule:nonzero;stroke:none"
             d="M 0,0 -0.888,1.931 -1.756,0 Z m -3.849,-2.253 v 0.106 c 0.136,10e-4 0.179,0.041 0.283,0.277 l 2.012,4.53 c 0.037,0.069 0.084,0.152 0.084,0.22 0,0.084 -0.059,0.115 -0.153,0.132 v 0.106 h 1.604 V 3.012 C -0.127,2.995 -0.176,2.954 -0.176,2.901 c 0,-0.06 0.034,-0.118 0.069,-0.193 L 2.035,-1.87 c 0.1,-0.233 0.131,-0.277 0.286,-0.277 V -2.253 H 0.854 v 0.106 c 0.097,0 0.129,0.031 0.129,0.069 0,0.078 -0.064,0.181 -0.561,1.24 h -2.527 c -0.426,-0.96 -0.539,-1.108 -0.539,-1.204 0,-0.064 0.043,-0.104 0.113,-0.105 v -0.106 z" /></g><g
           transform="translate(75.9683,38.5352)"
           id="g130"><path
             id="path132"
             style="fill:#ffffff;fill-opacity:1;fill-rule:nonzero;stroke:none"
             d="m 0,0 c -3.043,-0.535 -6.158,-0.814 -9.352,-0.814 -3.161,0 -6.263,0.255 -9.274,0.778 -0.028,0.788 -0.052,1.562 -0.052,2.351 0,12.526 3.406,24.298 9.328,34.364 C -3.398,26.591 0.024,14.87 0.024,2.315 0.024,1.542 0.024,0.768 0,0 m 1.528,2.262 c 0,13.699 -3.989,26.47 -10.852,37.218 -6.861,-10.748 -10.853,-23.523 -10.853,-37.218 0,-1.2 0.031,-2.385 0.09,-3.574 3.474,-0.676 7.06,-1.028 10.735,-1.028 3.692,0 7.302,0.358 10.788,1.044 0.06,1.176 0.092,2.364 0.092,3.558" /></g></g></g></g></svg>