<?xml version="1.0" encoding="UTF-8" standalone="no"?>
<svg
   xmlns:dc="http://purl.org/dc/elements/1.1/"
   xmlns:cc="http://creativecommons.org/ns#"
   xmlns:rdf="http://www.w3.org/1999/02/22-rdf-syntax-ns#"
   xmlns:svg="http://www.w3.org/2000/svg"
   xmlns="http://www.w3.org/2000/svg"
   viewBox="0 0 359.95468 716"
   height="716"
   width="359.95468"
   xml:space="preserve"
   id="svg2"
   version="1.1"><metadata
     id="metadata8"><rdf:RDF><cc:Work
         rdf:about=""><dc:format>image/svg+xml</dc:format><dc:type
           rdf:resource="http://purl.org/dc/dcmitype/StillImage" /></cc:Work></rdf:RDF></metadata><defs
     id="defs6"><clipPath
       id="clipPath18"
       clipPathUnits="userSpaceOnUse"><path
         id="path16"
         d="M 0,537 H 269.966 V 0 H 0 Z" /></clipPath></defs><g
     transform="matrix(1.3333333,0,0,-1.3333333,0,716)"
     id="g10"><g
       id="g12"><g
         clip-path="url(#clipPath18)"
         id="g14"><g
           transform="translate(122.9927,541.6792)"
           id="g20"><path
             id="path22"
             style="fill:#1e130f;fill-opacity:1;fill-rule:nonzero;stroke:none"
             d="m 0,0 c -9.699,-0.593 -19.127,-2.021 -28.216,-4.224 94.144,-155.667 147.774,-333.327 147.774,-522.629 0,-4.965 0.009,-9.897 0,-14.826 h 27.224 c 0.061,4.661 0.192,9.3 0.192,13.979 C 146.974,-337.064 93.754,-157.478 0,0" /></g><g
           transform="translate(30.4116,393.8511)"
           id="g24"><path
             id="path26"
             style="fill:#1e130f;fill-opacity:1;fill-rule:nonzero;stroke:none"
             d="m 0,0 c -28.186,-65.665 -41.763,-121.982 -41.763,-121.982 0,0 22.033,-48.637 6.098,-136.161 -11.648,-63.997 -26.433,-104.667 -51.858,-128.095 0,0 22.377,-7.118 70.108,-8.153 0,0 -0.1,37.622 7.119,62.012 8.14,27.498 10.21,96.641 10.21,122.01 l 35.523,17.286 c 14.021,-9.204 41.907,-61.853 50.836,-100.582 9.19,-39.663 3.05,-101.186 3.05,-101.186 51.412,1.064 68.11,6.616 68.11,6.616 0,0 -22.939,44.206 -34.531,94.57 -14.237,61.955 -63.061,120.904 -63.061,120.904 4.098,4.069 42.698,26.461 41.72,89.407 C 100.382,-14.18 39.521,78.277 39.521,78.277 23.931,52.995 13.217,30.775 0,0 m 18.87,-18.106 c 12.684,30.603 22.679,48.651 22.679,48.651 0,0 28.157,-40.755 19.342,-121.003 -9.146,-83.325 -63.047,-90.429 -63.047,-90.429 -2.014,33.479 -11.189,63.018 -11.189,63.018 5.063,32.501 19.242,68.253 32.215,99.763" /></g></g></g></g></svg>