<?xml version="1.0" encoding="UTF-8" standalone="no"?>
<svg
   xmlns:dc="http://purl.org/dc/elements/1.1/"
   xmlns:cc="http://creativecommons.org/ns#"
   xmlns:rdf="http://www.w3.org/1999/02/22-rdf-syntax-ns#"
   xmlns:svg="http://www.w3.org/2000/svg"
   xmlns="http://www.w3.org/2000/svg"
   viewBox="0 0 1133.8533 1511.8134"
   height="1511.8134"
   width="1133.8533"
   xml:space="preserve"
   id="svg2"
   version="1.1"><metadata
     id="metadata8"><rdf:RDF><cc:Work
         rdf:about=""><dc:format>image/svg+xml</dc:format><dc:type
           rdf:resource="http://purl.org/dc/dcmitype/StillImage" /></cc:Work></rdf:RDF></metadata><defs
     id="defs6"><clipPath
       id="clipPath18"
       clipPathUnits="userSpaceOnUse"><path
         id="path16"
         d="M 0,1133.86 H 850.39 V 0 H 0 Z" /></clipPath><clipPath
       id="clipPath26"
       clipPathUnits="userSpaceOnUse"><path
         id="path24"
         d="m 363.754,826.754 h 10.072 v -11.65 h -10.072 z" /></clipPath><clipPath
       id="clipPath42"
       clipPathUnits="userSpaceOnUse"><path
         id="path40"
         d="m 378.25,826.928 h 10.576 V 814.939 H 378.25 Z" /></clipPath><clipPath
       id="clipPath58"
       clipPathUnits="userSpaceOnUse"><path
         id="path56"
         d="m 394.16,826.763 h 8.416 v -11.667 h -8.416 z" /></clipPath><clipPath
       id="clipPath74"
       clipPathUnits="userSpaceOnUse"><path
         id="path72"
         d="m 407.581,826.754 h 13.402 v -11.65 h -13.402 z" /></clipPath><clipPath
       id="clipPath90"
       clipPathUnits="userSpaceOnUse"><path
         id="path88"
         d="m 425.486,826.754 h 13.41 v -11.65 h -13.41 z" /></clipPath><clipPath
       id="clipPath106"
       clipPathUnits="userSpaceOnUse"><path
         id="path104"
         d="m 443.737,826.763 h 8.407 v -11.667 h -8.407 z" /></clipPath><clipPath
       id="clipPath122"
       clipPathUnits="userSpaceOnUse"><path
         id="path120"
         d="m 457.15,826.754 h 10.073 v -11.65 H 457.15 Z" /></clipPath><clipPath
       id="clipPath138"
       clipPathUnits="userSpaceOnUse"><path
         id="path136"
         d="m 471.818,826.929 h 7.776 v -12.008 h -7.776 z" /></clipPath><clipPath
       id="clipPath154"
       clipPathUnits="userSpaceOnUse"><path
         id="path152"
         d="m 269.661,857.967 h 12.964 v -20.698 h -12.964 z" /></clipPath><clipPath
       id="clipPath170"
       clipPathUnits="userSpaceOnUse"><path
         id="path168"
         d="m 289.106,857.637 h 4.19 v -20.039 h -4.19 z" /></clipPath><clipPath
       id="clipPath184"
       clipPathUnits="userSpaceOnUse"><path
         id="path182"
         d="m 300.209,857.637 h 19.797 v -20.039 h -19.797 z" /></clipPath><clipPath
       id="clipPath200"
       clipPathUnits="userSpaceOnUse"><path
         id="path198"
         d="m 326.816,857.637 h 13.628 v -20.368 h -13.628 z" /></clipPath><clipPath
       id="clipPath216"
       clipPathUnits="userSpaceOnUse"><path
         id="path214"
         d="m 347.367,857.637 h 10.471 v -20.039 h -10.471 z" /></clipPath><clipPath
       id="clipPath232"
       clipPathUnits="userSpaceOnUse"><path
         id="path230"
         d="m 361.62,857.637 h 16.518 V 837.598 H 361.62 Z" /></clipPath><clipPath
       id="clipPath248"
       clipPathUnits="userSpaceOnUse"><path
         id="path246"
         d="m 383.386,857.967 h 12.969 V 837.26 h -12.969 z" /></clipPath><clipPath
       id="clipPath264"
       clipPathUnits="userSpaceOnUse"><path
         id="path262"
         d="m 402.497,857.637 h 4.199 v -20.039 h -4.199 z" /></clipPath><clipPath
       id="clipPath278"
       clipPathUnits="userSpaceOnUse"><path
         id="path276"
         d="m 413.497,863.658 h 13.819 v -26.389 h -13.819 z" /></clipPath><clipPath
       id="clipPath294"
       clipPathUnits="userSpaceOnUse"><path
         id="path292"
         d="m 434.161,857.637 h 14.956 v -20.039 h -14.956 z" /></clipPath><clipPath
       id="clipPath310"
       clipPathUnits="userSpaceOnUse"><path
         id="path308"
         d="m 465.678,857.637 h 19.788 v -20.039 h -19.788 z" /></clipPath><clipPath
       id="clipPath326"
       clipPathUnits="userSpaceOnUse"><path
         id="path324"
         d="m 492.37,863.658 h 11.157 v -26.06 H 492.37 Z" /></clipPath><clipPath
       id="clipPath342"
       clipPathUnits="userSpaceOnUse"><path
         id="path340"
         d="M 509.808,857.637 H 523.33 V 837.598 H 509.808 Z" /></clipPath><clipPath
       id="clipPath358"
       clipPathUnits="userSpaceOnUse"><path
         id="path356"
         d="m 530.167,857.637 h 4.199 v -20.039 h -4.199 z" /></clipPath><clipPath
       id="clipPath372"
       clipPathUnits="userSpaceOnUse"><path
         id="path370"
         d="m 541.158,857.967 h 12.97 V 837.26 h -12.97 z" /></clipPath><clipPath
       id="clipPath388"
       clipPathUnits="userSpaceOnUse"><path
         id="path386"
         d="m 558.744,857.637 h 16.517 v -20.039 h -16.517 z" /></clipPath><clipPath
       id="clipPath404"
       clipPathUnits="userSpaceOnUse"><path
         id="path402"
         d="m 377.73,1007.63 h 23.691 V 993.948 H 377.73 Z" /></clipPath><clipPath
       id="clipPath420"
       clipPathUnits="userSpaceOnUse"><path
         id="path418"
         d="m 396.416,1018.84 h 23.96 v -13.87 h -23.96 z" /></clipPath><clipPath
       id="clipPath436"
       clipPathUnits="userSpaceOnUse"><path
         id="path434"
         d="m 380.401,1009.23 h 23.684 v -13.685 h -23.684 z" /></clipPath><clipPath
       id="clipPath452"
       clipPathUnits="userSpaceOnUse"><path
         id="path450"
         d="m 383.065,1010.84 h 23.691 v -13.691 h -23.691 z" /></clipPath><clipPath
       id="clipPath468"
       clipPathUnits="userSpaceOnUse"><path
         id="path466"
         d="m 385.737,1012.44 h 23.822 v -13.781 h -23.822 z" /></clipPath><clipPath
       id="clipPath484"
       clipPathUnits="userSpaceOnUse"><path
         id="path482"
         d="m 388.409,1014.03 h 23.856 v -13.81 h -23.856 z" /></clipPath><clipPath
       id="clipPath500"
       clipPathUnits="userSpaceOnUse"><path
         id="path498"
         d="m 391.072,1015.65 h 23.83 v -13.8 h -23.83 z" /></clipPath><clipPath
       id="clipPath516"
       clipPathUnits="userSpaceOnUse"><path
         id="path514"
         d="m 393.744,1017.24 h 23.873 v -13.78 h -23.873 z" /></clipPath><clipPath
       id="clipPath532"
       clipPathUnits="userSpaceOnUse"><path
         id="path530"
         d="m 446.515,1045.82 h 23.682 v -13.67 h -23.682 z" /></clipPath><clipPath
       id="clipPath548"
       clipPathUnits="userSpaceOnUse"><path
         id="path546"
         d="m 427.559,1034.82 h 23.961 v -13.88 h -23.961 z" /></clipPath><clipPath
       id="clipPath564"
       clipPathUnits="userSpaceOnUse"><path
         id="path562"
         d="m 443.843,1044.22 h 23.691 v -13.67 h -23.691 z" /></clipPath><clipPath
       id="clipPath580"
       clipPathUnits="userSpaceOnUse"><path
         id="path578"
         d="m 441.17,1042.62 h 23.692 v -13.68 H 441.17 Z" /></clipPath><clipPath
       id="clipPath596"
       clipPathUnits="userSpaceOnUse"><path
         id="path594"
         d="m 438.377,1041.11 h 23.812 v -13.77 h -23.812 z" /></clipPath><clipPath
       id="clipPath612"
       clipPathUnits="userSpaceOnUse"><path
         id="path610"
         d="m 435.68,1039.56 h 23.839 v -13.83 H 435.68 Z" /></clipPath><clipPath
       id="clipPath628"
       clipPathUnits="userSpaceOnUse"><path
         id="path626"
         d="m 433.025,1037.94 h 23.829 v -13.79 h -23.829 z" /></clipPath><clipPath
       id="clipPath644"
       clipPathUnits="userSpaceOnUse"><path
         id="path642"
         d="m 430.326,1036.31 h 23.857 v -13.78 h -23.857 z" /></clipPath><clipPath
       id="clipPath660"
       clipPathUnits="userSpaceOnUse"><path
         id="path658"
         d="m 377.695,1033.62 h 92.528 v -79.672 h -92.528 z" /></clipPath><clipPath
       id="clipPath676"
       clipPathUnits="userSpaceOnUse"><path
         id="path674"
         d="m 377.695,1085.86 h 92.528 v -79.66 h -92.528 z" /></clipPath><clipPath
       id="clipPath692"
       clipPathUnits="userSpaceOnUse"><path
         id="path690"
         d="m 268.841,928.877 h 41.527 v -54.574 h -41.527 z" /></clipPath><clipPath
       id="clipPath708"
       clipPathUnits="userSpaceOnUse"><path
         id="path706"
         d="m 322.531,927.828 h 10.427 v -52.476 h -10.427 z" /></clipPath><clipPath
       id="clipPath722"
       clipPathUnits="userSpaceOnUse"><path
         id="path720"
         d="m 349.146,927.828 h 51.13 v -52.476 h -51.13 z" /></clipPath><clipPath
       id="clipPath738"
       clipPathUnits="userSpaceOnUse"><path
         id="path736"
         d="m 416.481,927.828 h 51.13 v -52.476 h -51.13 z" /></clipPath><clipPath
       id="clipPath754"
       clipPathUnits="userSpaceOnUse"><path
         id="path752"
         d="m 483.816,927.828 h 37.556 v -52.476 h -37.556 z" /></clipPath><clipPath
       id="clipPath770"
       clipPathUnits="userSpaceOnUse"><path
         id="path768"
         d="m 536.457,927.836 h 41.077 v -52.484 h -41.077 z" /></clipPath><clipPath
       id="clipPath786"
       clipPathUnits="userSpaceOnUse"><path
         id="path784"
         d="m 531.842,902.393 h 9.707 v -9.318 h -9.707 z" /></clipPath><clipPath
       id="clipPath800"
       clipPathUnits="userSpaceOnUse"><path
         id="path798"
         d="m 269.812,822.382 h 77.72 v -4.077 h -77.72 z" /></clipPath><clipPath
       id="clipPath814"
       clipPathUnits="userSpaceOnUse"><path
         id="path812"
         d="m 497.549,822.382 h 77.712 v -4.077 h -77.712 z" /></clipPath><clipPath
       id="clipPath1106"
       clipPathUnits="userSpaceOnUse"><path
         id="path1104"
         d="M 384.954,465.474 H 462.73 V 396.382 H 384.954 Z" /></clipPath><clipPath
       id="clipPath1110"
       clipPathUnits="userSpaceOnUse"><path
         id="path1108"
         d="m 384.956,396.382 h 77.771 v 69.088 h -77.771 z" /></clipPath></defs><g
     transform="matrix(1.3333333,0,0,-1.3333333,0,1511.8133)"
     id="g10"><g
       id="g12"><g
         clip-path="url(#clipPath18)"
         id="g14"><g
           id="g20"><g
             id="g22" /><g
             id="g34"><g
               style="opacity:0.80000299"
               id="g32"
               clip-path="url(#clipPath26)"><g
                 id="g30"
                 transform="translate(366.9209,821.4282)"><path
                   id="path28"
                   style="fill:#373639;fill-opacity:1;fill-rule:nonzero;stroke:none"
                   d="m 0,0 h 1.249 c 1.631,0 2.576,0.764 2.576,2.082 0,1.119 -0.867,1.917 -2.081,1.917 L 0,3.999 Z m -3.167,-5.326 1.415,0.329 v 8.996 l -1.415,0.33 V 5.257 L 0,5.326 h 1.83 c 2.342,0 3.748,-1.128 3.748,-2.984 0,-1.622 -0.738,-2.724 -2.169,-3.262 0.269,-0.226 0.564,-0.659 0.998,-1.492 l 1.319,-2.654 1.179,-0.26 V -6.324 H 4.407 L 2.993,-3.245 C 2.212,-1.579 1.847,-1.25 0.746,-1.25 H 0 v -3.747 l 1.414,-0.329 v -0.998 h -4.581 z" /></g></g></g></g><g
           id="g36"><g
             id="g38" /><g
             id="g50"><g
               style="opacity:0.80000299"
               id="g48"
               clip-path="url(#clipPath42)"><g
                 id="g46"
                 transform="translate(380.1675,820.9336)"><path
                   id="path44"
                   style="fill:#373639;fill-opacity:1;fill-rule:nonzero;stroke:none"
                   d="m 0,0 c 0,-2.993 1.084,-4.589 3.245,-4.589 2.169,0 3.496,1.509 3.496,4.667 C 6.741,3.08 5.578,4.581 3.41,4.581 1.249,4.581 0,3.167 0,0 m 8.658,0.165 c 0,-3.662 -2.247,-6.16 -5.491,-6.16 -3.254,0 -5.084,2.082 -5.084,5.917 0,3.661 2.082,6.073 5.414,6.073 3.244,0 5.161,-2.247 5.161,-5.83" /></g></g></g></g><g
           id="g52"><g
             id="g54" /><g
             id="g66"><g
               style="opacity:0.80000299"
               id="g64"
               clip-path="url(#clipPath58)"><g
                 id="g62"
                 transform="translate(397.3267,825.4272)"><path
                   id="path60"
                   style="fill:#373639;fill-opacity:1;fill-rule:nonzero;stroke:none"
                   d="M 0,0 V -3.583 H 3.834 V -4.91 H 0 v -4.086 h 3.834 l 0.33,1.666 h 1.085 v -3.002 h -8.416 v 1.007 l 1.423,0.329 V 0 L -3.167,0.33 V 1.258 L 0,1.336 H 5.084 V -1.5 L 4,-1.5 3.583,0 Z" /></g></g></g></g><g
           id="g68"><g
             id="g70" /><g
             id="g82"><g
               style="opacity:0.80000299"
               id="g80"
               clip-path="url(#clipPath74)"><g
                 id="g78"
                 transform="translate(416.3164,816.1021)"><path
                   id="path76"
                   style="fill:#373639;fill-opacity:1;fill-rule:nonzero;stroke:none"
                   d="M 0,0 1.587,0.329 V 8.657 L 1.084,7.408 -1.492,2.168 -2.828,2.081 -5.405,7.495 -5.83,8.657 V 0.329 L -4.25,0 V -0.998 H -8.736 V 0 l 1.414,0.329 v 8.996 l -1.414,0.33 v 0.919 l 3.739,0.078 3.019,-6.662 3.149,6.584 3.496,0.078 V 9.655 L 3.253,9.325 V 0.329 L 4.667,0 V -0.998 H 0 Z" /></g></g></g></g><g
           id="g84"><g
             id="g86" /><g
             id="g98"><g
               style="opacity:0.80000299"
               id="g96"
               clip-path="url(#clipPath90)"><g
                 id="g94"
                 transform="translate(434.2305,816.1021)"><path
                   id="path92"
                   style="fill:#373639;fill-opacity:1;fill-rule:nonzero;stroke:none"
                   d="M 0,0 1.587,0.329 V 8.657 L 1.085,7.408 -1.492,2.168 -2.828,2.081 -5.404,7.495 -5.829,8.657 V 0.329 L -4.242,0 V -0.998 H -8.745 V 0 l 1.424,0.329 v 8.996 l -1.424,0.33 v 0.919 l 3.756,0.078 3.01,-6.662 3.151,6.584 3.494,0.078 V 9.655 L 3.253,9.325 V 0.329 L 4.666,0 V -0.998 H 0 Z" /></g></g></g></g><g
           id="g100"><g
             id="g102" /><g
             id="g114"><g
               style="opacity:0.80000299"
               id="g112"
               clip-path="url(#clipPath106)"><g
                 id="g110"
                 transform="translate(446.8955,825.4272)"><path
                   id="path108"
                   style="fill:#373639;fill-opacity:1;fill-rule:nonzero;stroke:none"
                   d="M 0,0 V -3.583 H 3.835 V -4.91 H 0 v -4.086 h 3.835 l 0.33,1.666 h 1.083 v -3.002 h -8.406 v 1.007 l 1.415,0.329 V 0 L -3.158,0.33 V 1.258 L 0,1.336 H 5.084 V -1.5 H 3.999 L 3.584,0 Z" /></g></g></g></g><g
           id="g116"><g
             id="g118" /><g
             id="g130"><g
               style="opacity:0.80000299"
               id="g128"
               clip-path="url(#clipPath122)"><g
                 id="g126"
                 transform="translate(460.3164,821.4282)"><path
                   id="path124"
                   style="fill:#373639;fill-opacity:1;fill-rule:nonzero;stroke:none"
                   d="m 0,0 h 1.249 c 1.631,0 2.576,0.764 2.576,2.082 0,1.119 -0.858,1.917 -2.082,1.917 L 0,3.999 Z m -3.166,-5.326 1.413,0.329 v 8.996 l -1.413,0.33 V 5.257 L 0,5.326 h 1.83 c 2.351,0 3.748,-1.128 3.748,-2.984 0,-1.622 -0.728,-2.724 -2.169,-3.262 0.27,-0.226 0.573,-0.659 1.007,-1.492 l 1.31,-2.654 1.18,-0.26 V -6.324 H 4.416 L 2.992,-3.245 C 2.211,-1.579 1.847,-1.25 0.745,-1.25 H 0 v -3.747 l 1.414,-0.329 v -0.998 h -4.58 z" /></g></g></g></g><g
           id="g132"><g
             id="g134" /><g
             id="g146"><g
               style="opacity:0.80000299"
               id="g144"
               clip-path="url(#clipPath138)"><g
                 id="g142"
                 transform="translate(473.4766,816.7607)"><path
                   id="path140"
                   style="fill:#373639;fill-opacity:1;fill-rule:nonzero;stroke:none"
                   d="m 0,0 c 0,0 0.755,-0.451 1.839,-0.416 1.214,0.017 2.558,0.607 2.542,1.787 -0.044,2.568 -5.943,1.458 -6.013,5.483 -0.026,2.325 1.866,3.278 3.948,3.313 1.587,0.026 3.513,-0.659 3.513,-0.659 L 5.752,6.662 H 4.667 L 4.104,8.45 c 0,0 -0.851,0.312 -1.77,0.295 C 0.832,8.727 0.104,7.964 0.121,7.131 0.182,4.607 6.063,5.57 6.116,1.822 6.167,-0.676 4.104,-1.787 1.77,-1.839 0.017,-1.856 -1.658,-1.162 -1.658,-1.162 v 2.914 h 1.328 z" /></g></g></g></g><g
           id="g148"><g
             id="g150" /><g
             id="g162"><g
               style="opacity:0.80000299"
               id="g160"
               clip-path="url(#clipPath154)"><g
                 id="g158"
                 transform="translate(275.6333,837.269)"><path
                   id="path156"
                   style="fill:#007692;fill-opacity:1;fill-rule:nonzero;stroke:none"
                   d="m 0,0 c -5.196,0 -6.168,3.053 -5.942,6.515 h 4.19 c 0,-1.909 0.095,-3.531 2.385,-3.531 1.423,0 2.117,0.919 2.117,2.282 0,3.617 -8.441,3.834 -8.441,9.794 0,3.149 1.501,5.638 6.602,5.638 4.077,0 6.107,-1.822 5.83,-6.02 H 2.663 c 0,1.509 -0.26,3.019 -1.943,3.019 -1.362,0 -2.169,-0.746 -2.169,-2.134 0,-3.8 8.441,-3.47 8.441,-9.769 C 6.992,0.607 3.193,0 0,0" /></g></g></g></g><g
           id="g164"><g
             id="g166" /><g
             id="g176"><g
               style="opacity:0.80000299"
               id="g174"
               clip-path="url(#clipPath170)"><path
                 id="path172"
                 style="fill:#007692;fill-opacity:1;fill-rule:nonzero;stroke:none"
                 d="m 289.106,857.637 h 4.19 v -20.039 h -4.19 z" /></g></g></g><g
           id="g178"><g
             id="g180" /><g
             id="g192"><g
               style="opacity:0.80000299"
               id="g190"
               clip-path="url(#clipPath184)"><g
                 id="g188"
                 transform="translate(300.2095,837.5981)"><path
                   id="path186"
                   style="fill:#007692;fill-opacity:1;fill-rule:nonzero;stroke:none"
                   d="M 0,0 V 20.039 H 6.749 L 9.881,6.411 h 0.061 l 3.331,13.628 h 6.523 V 0 H 15.711 V 15.459 H 15.659 L 11.798,0 H 7.799 L 4.138,15.459 H 4.086 V 0 Z" /></g></g></g></g><g
           id="g194"><g
             id="g196" /><g
             id="g208"><g
               style="opacity:0.80000299"
               id="g206"
               clip-path="url(#clipPath200)"><g
                 id="g204"
                 transform="translate(340.4443,857.6372)"><path
                   id="path202"
                   style="fill:#007692;fill-opacity:1;fill-rule:nonzero;stroke:none"
                   d="m 0,0 v -14.209 c 0,-3.002 -1.691,-6.159 -6.801,-6.159 -4.607,0 -6.827,2.376 -6.827,6.159 V 0 h 4.19 v -13.932 c 0,-2.472 1.058,-3.444 2.584,-3.444 1.832,0 2.664,1.224 2.664,3.444 L -4.19,0 Z" /></g></g></g></g><g
           id="g210"><g
             id="g212" /><g
             id="g224"><g
               style="opacity:0.80000299"
               id="g222"
               clip-path="url(#clipPath216)"><g
                 id="g220"
                 transform="translate(347.3672,837.5981)"><path
                   id="path218"
                   style="fill:#007692;fill-opacity:1;fill-rule:nonzero;stroke:none"
                   d="M 0,0 V 20.039 H 4.19 V 3.331 h 6.281 V 0 Z" /></g></g></g></g><g
           id="g226"><g
             id="g228" /><g
             id="g240"><g
               style="opacity:0.80000299"
               id="g238"
               clip-path="url(#clipPath232)"><g
                 id="g236"
                 transform="translate(369.6963,853.7773)"><path
                   id="path234"
                   style="fill:#007692;fill-opacity:1;fill-rule:nonzero;stroke:none"
                   d="m 0,0 h -0.061 l -1.908,-8.658 h 4 z M -8.076,-16.179 -2.523,3.86 H 2.993 L 8.441,-16.179 H 4.026 l -1.11,4.442 h -5.718 l -1.145,-4.442 z" /></g></g></g></g><g
           id="g242"><g
             id="g244" /><g
             id="g256"><g
               style="opacity:0.80000299"
               id="g254"
               clip-path="url(#clipPath248)"><g
                 id="g252"
                 transform="translate(383.3857,847.6177)"><path
                   id="path250"
                   style="fill:#007692;fill-opacity:1;fill-rule:nonzero;stroke:none"
                   d="m 0,0 c 0,5.301 0,10.35 6.914,10.35 4.277,0 5.995,-2.351 5.83,-6.654 H 8.641 c 0,2.663 -0.477,3.661 -1.727,3.661 -2.36,0 -2.663,-2.221 -2.663,-7.357 0,-5.126 0.303,-7.347 2.663,-7.347 1.943,0 1.857,2.489 1.917,4.077 h 4.138 c 0,-5.361 -2.142,-7.088 -6.055,-7.088 C 0,-10.358 0,-5.248 0,0" /></g></g></g></g><g
           id="g258"><g
             id="g260" /><g
             id="g270"><g
               style="opacity:0.80000299"
               id="g268"
               clip-path="url(#clipPath264)"><path
                 id="path266"
                 style="fill:#007692;fill-opacity:1;fill-rule:nonzero;stroke:none"
                 d="m 402.497,857.637 h 4.199 v -20.039 h -4.199 z" /></g></g></g><g
           id="g272"><g
             id="g274" /><g
             id="g286"><g
               style="opacity:0.80000299"
               id="g284"
               clip-path="url(#clipPath278)"><g
                 id="g282"
                 transform="translate(424.2891,863.6582)"><path
                   id="path280"
                   style="fill:#007692;fill-opacity:1;fill-rule:nonzero;stroke:none"
                   d="M 0,0 -4.442,-3.973 H -6.247 L -3.748,0 Z m -1.215,-16.041 c 0,5.127 -0.312,7.349 -2.663,7.349 -2.369,0 -2.672,-2.222 -2.672,-7.349 0,-5.135 0.303,-7.356 2.672,-7.356 2.351,0 2.663,2.221 2.663,7.356 m -9.577,0 c 0,5.302 0,10.35 6.914,10.35 6.905,0 6.905,-5.048 6.905,-10.35 0,-5.248 0,-10.348 -6.905,-10.348 -6.914,0 -6.914,5.1 -6.914,10.348" /></g></g></g></g><g
           id="g288"><g
             id="g290" /><g
             id="g302"><g
               style="opacity:0.80000299"
               id="g300"
               clip-path="url(#clipPath294)"><g
                 id="g298"
                 transform="translate(434.1611,837.5981)"><path
                   id="path296"
                   style="fill:#007692;fill-opacity:1;fill-rule:nonzero;stroke:none"
                   d="M 0,0 V 20.039 H 5.656 L 10.991,6.16 h 0.053 v 13.879 h 3.912 V 0 H 9.431 L 3.964,14.661 H 3.912 L 3.912,0 Z" /></g></g></g></g><g
           id="g304"><g
             id="g306" /><g
             id="g318"><g
               style="opacity:0.80000299"
               id="g316"
               clip-path="url(#clipPath310)"><g
                 id="g314"
                 transform="translate(465.6777,837.5981)"><path
                   id="path312"
                   style="fill:#007692;fill-opacity:1;fill-rule:nonzero;stroke:none"
                   d="M 0,0 V 20.039 H 6.748 L 9.88,6.411 h 0.061 l 3.332,13.628 h 6.515 V 0 H 15.711 V 15.459 H 15.658 L 11.798,0 H 7.799 L 4.138,15.459 H 4.077 V 0 Z" /></g></g></g></g><g
           id="g320"><g
             id="g322" /><g
             id="g334"><g
               style="opacity:0.80000299"
               id="g332"
               clip-path="url(#clipPath326)"><g
                 id="g330"
                 transform="translate(501.418,863.6582)"><path
                   id="path328"
                   style="fill:#007692;fill-opacity:1;fill-rule:nonzero;stroke:none"
                   d="M 0,0 -4.44,-3.973 H -6.246 L -3.747,0 Z M -9.048,-26.06 V -6.021 H 1.883 v -3.087 h -6.74 v -4.937 h 6.211 v -3.08 h -6.211 v -5.855 h 6.966 v -3.08 z" /></g></g></g></g><g
           id="g336"><g
             id="g338" /><g
             id="g350"><g
               style="opacity:0.80000299"
               id="g348"
               clip-path="url(#clipPath342)"><g
                 id="g346"
                 transform="translate(513.9971,840.6782)"><path
                   id="path344"
                   style="fill:#007692;fill-opacity:1;fill-rule:nonzero;stroke:none"
                   d="m 0,0 h 2.03 c 2.551,0 3.053,1.917 3.053,6.939 0,3.696 0,6.933 -2.913,6.933 H 0 Z m -4.189,16.959 h 6.991 c 5.5,0 6.524,-3.661 6.524,-9.915 0,-3.071 0.477,-10.124 -6.688,-10.124 h -6.827 z" /></g></g></g></g><g
           id="g352"><g
             id="g354" /><g
             id="g364"><g
               style="opacity:0.80000299"
               id="g362"
               clip-path="url(#clipPath358)"><path
                 id="path360"
                 style="fill:#007692;fill-opacity:1;fill-rule:nonzero;stroke:none"
                 d="m 530.167,857.637 h 4.199 v -20.039 h -4.199 z" /></g></g></g><g
           id="g366"><g
             id="g368" /><g
             id="g380"><g
               style="opacity:0.80000299"
               id="g378"
               clip-path="url(#clipPath372)"><g
                 id="g376"
                 transform="translate(541.1582,847.6177)"><path
                   id="path374"
                   style="fill:#007692;fill-opacity:1;fill-rule:nonzero;stroke:none"
                   d="m 0,0 c 0,5.301 0,10.35 6.914,10.35 4.277,0 5.995,-2.351 5.831,-6.654 H 8.641 C 8.641,6.359 8.163,7.357 6.914,7.357 4.556,7.357 4.252,5.136 4.252,0 c 0,-5.126 0.304,-7.347 2.662,-7.347 1.943,0 1.857,2.489 1.917,4.077 h 4.139 c 0,-5.361 -2.143,-7.088 -6.056,-7.088 C 0,-10.358 0,-5.248 0,0" /></g></g></g></g><g
           id="g382"><g
             id="g384" /><g
             id="g396"><g
               style="opacity:0.80000299"
               id="g394"
               clip-path="url(#clipPath388)"><g
                 id="g392"
                 transform="translate(566.8203,853.7773)"><path
                   id="path390"
                   style="fill:#007692;fill-opacity:1;fill-rule:nonzero;stroke:none"
                   d="M 0,0 H -0.053 L -1.971,-8.658 H 2.03 Z M -8.076,-16.179 -2.525,3.86 H 3 L 8.44,-16.179 H 4.024 l -1.109,4.442 h -5.718 l -1.135,-4.442 z" /></g></g></g></g><g
           id="g398"><g
             id="g400" /><g
             id="g412"><g
               style="opacity:0.80000299"
               id="g410"
               clip-path="url(#clipPath404)"><g
                 id="g408"
                 transform="translate(377.73,1006.1807)"><path
                   id="path406"
                   style="fill:#373639;fill-opacity:1;fill-rule:nonzero;stroke:none"
                   d="M 0,0 23.691,-12.232 2.507,1.449 Z" /></g></g></g></g><g
           id="g414"><g
             id="g416" /><g
             id="g428"><g
               style="opacity:0.80000299"
               id="g426"
               clip-path="url(#clipPath420)"><g
                 id="g424"
                 transform="translate(396.416,1017.397)"><path
                   id="path422"
                   style="fill:#373639;fill-opacity:1;fill-rule:nonzero;stroke:none"
                   d="M 0,0 23.96,-12.431 2.507,1.44 Z" /></g></g></g></g><g
           id="g430"><g
             id="g432" /><g
             id="g444"><g
               style="opacity:0.80000299"
               id="g442"
               clip-path="url(#clipPath436)"><g
                 id="g440"
                 transform="translate(380.4014,1007.7852)"><path
                   id="path438"
                   style="fill:#373639;fill-opacity:1;fill-rule:nonzero;stroke:none"
                   d="M 0,0 23.684,-12.24 2.499,1.449 Z" /></g></g></g></g><g
           id="g446"><g
             id="g448" /><g
             id="g460"><g
               style="opacity:0.80000299"
               id="g458"
               clip-path="url(#clipPath452)"><g
                 id="g456"
                 transform="translate(383.0649,1009.3818)"><path
                   id="path454"
                   style="fill:#373639;fill-opacity:1;fill-rule:nonzero;stroke:none"
                   d="M 0,0 23.691,-12.232 2.507,1.457 Z" /></g></g></g></g><g
           id="g462"><g
             id="g464" /><g
             id="g476"><g
               style="opacity:0.80000299"
               id="g474"
               clip-path="url(#clipPath468)"><g
                 id="g472"
                 transform="translate(385.7373,1010.9863)"><path
                   id="path470"
                   style="fill:#373639;fill-opacity:1;fill-rule:nonzero;stroke:none"
                   d="M 0,0 23.821,-12.327 2.506,1.449 Z" /></g></g></g></g><g
           id="g478"><g
             id="g480" /><g
             id="g492"><g
               style="opacity:0.80000299"
               id="g490"
               clip-path="url(#clipPath484)"><g
                 id="g488"
                 transform="translate(388.4087,1012.5825)"><path
                   id="path486"
                   style="fill:#373639;fill-opacity:1;fill-rule:nonzero;stroke:none"
                   d="M 0,0 23.856,-12.362 2.507,1.449 Z" /></g></g></g></g><g
           id="g494"><g
             id="g496" /><g
             id="g508"><g
               style="opacity:0.80000299"
               id="g506"
               clip-path="url(#clipPath500)"><g
                 id="g504"
                 transform="translate(391.0718,1014.187)"><path
                   id="path502"
                   style="fill:#373639;fill-opacity:1;fill-rule:nonzero;stroke:none"
                   d="M 0,0 23.831,-12.335 2.507,1.458 Z" /></g></g></g></g><g
           id="g510"><g
             id="g512" /><g
             id="g524"><g
               style="opacity:0.80000299"
               id="g522"
               clip-path="url(#clipPath516)"><g
                 id="g520"
                 transform="translate(393.7441,1015.7837)"><path
                   id="path518"
                   style="fill:#373639;fill-opacity:1;fill-rule:nonzero;stroke:none"
                   d="M 0,0 23.873,-12.319 2.507,1.458 Z" /></g></g></g></g><g
           id="g526"><g
             id="g528" /><g
             id="g540"><g
               style="opacity:0.80000299"
               id="g538"
               clip-path="url(#clipPath532)"><g
                 id="g536"
                 transform="translate(470.1973,1033.5845)"><path
                   id="path534"
                   style="fill:#373639;fill-opacity:1;fill-rule:nonzero;stroke:none"
                   d="M 0,0 -23.683,12.232 -2.499,-1.439 Z" /></g></g></g></g><g
           id="g542"><g
             id="g544" /><g
             id="g556"><g
               style="opacity:0.80000299"
               id="g554"
               clip-path="url(#clipPath548)"><g
                 id="g552"
                 transform="translate(451.5195,1022.3765)"><path
                   id="path550"
                   style="fill:#373639;fill-opacity:1;fill-rule:nonzero;stroke:none"
                   d="M 0,0 -23.961,12.44 -2.506,-1.439 Z" /></g></g></g></g><g
           id="g558"><g
             id="g560" /><g
             id="g572"><g
               style="opacity:0.80000299"
               id="g570"
               clip-path="url(#clipPath564)"><g
                 id="g568"
                 transform="translate(467.5342,1031.9883)"><path
                   id="path566"
                   style="fill:#373639;fill-opacity:1;fill-rule:nonzero;stroke:none"
                   d="M 0,0 -23.691,12.232 -2.508,-1.439 Z" /></g></g></g></g><g
           id="g574"><g
             id="g576" /><g
             id="g588"><g
               style="opacity:0.80000299"
               id="g586"
               clip-path="url(#clipPath580)"><g
                 id="g584"
                 transform="translate(464.8623,1030.375)"><path
                   id="path582"
                   style="fill:#373639;fill-opacity:1;fill-rule:nonzero;stroke:none"
                   d="M 0,0 -23.692,12.25 -2.507,-1.44 Z" /></g></g></g></g><g
           id="g590"><g
             id="g592" /><g
             id="g604"><g
               style="opacity:0.80000299"
               id="g602"
               clip-path="url(#clipPath596)"><g
                 id="g600"
                 transform="translate(462.1895,1028.7876)"><path
                   id="path598"
                   style="fill:#373639;fill-opacity:1;fill-rule:nonzero;stroke:none"
                   d="M 0,0 -23.812,12.327 -2.498,-1.449 Z" /></g></g></g></g><g
           id="g606"><g
             id="g608" /><g
             id="g620"><g
               style="opacity:0.80000299"
               id="g618"
               clip-path="url(#clipPath612)"><g
                 id="g616"
                 transform="translate(459.5186,1027.1826)"><path
                   id="path614"
                   style="fill:#373639;fill-opacity:1;fill-rule:nonzero;stroke:none"
                   d="M 0,0 -23.839,12.379 -2.498,-1.448 Z" /></g></g></g></g><g
           id="g622"><g
             id="g624" /><g
             id="g636"><g
               style="opacity:0.80000299"
               id="g634"
               clip-path="url(#clipPath628)"><g
                 id="g632"
                 transform="translate(456.8545,1025.5864)"><path
                   id="path630"
                   style="fill:#373639;fill-opacity:1;fill-rule:nonzero;stroke:none"
                   d="M 0,0 -23.829,12.353 -2.507,-1.44 Z" /></g></g></g></g><g
           id="g638"><g
             id="g640" /><g
             id="g652"><g
               style="opacity:0.80000299"
               id="g650"
               clip-path="url(#clipPath644)"><g
                 id="g648"
                 transform="translate(454.1826,1023.9819)"><path
                   id="path646"
                   style="fill:#373639;fill-opacity:1;fill-rule:nonzero;stroke:none"
                   d="M 0,0 -23.856,12.327 -2.498,-1.449 Z" /></g></g></g></g><g
           id="g654"><g
             id="g656" /><g
             id="g668"><g
               style="opacity:0.80000299"
               id="g666"
               clip-path="url(#clipPath660)"><g
                 id="g664"
                 transform="translate(470.2227,1007.3511)"><path
                   id="path662"
                   style="fill:#007692;fill-opacity:1;fill-rule:nonzero;stroke:none"
                   d="m 0,0 -46.376,-26.771 -46.151,-26.632 v 26.25 L -46.142,-0.381 0,26.269 Z" /></g></g></g></g><g
           id="g670"><g
             id="g672" /><g
             id="g684"><g
               style="opacity:0.80000299"
               id="g682"
               clip-path="url(#clipPath676)"><g
                 id="g680"
                 transform="translate(470.2227,1059.5923)"><path
                   id="path678"
                   style="fill:#007692;fill-opacity:1;fill-rule:nonzero;stroke:none"
                   d="m 0,0 -46.376,-26.771 -46.151,-26.624 v 26.243 l 46.385,26.779 V -0.39 L 0,26.268 Z" /></g></g></g></g><g
           id="g686"><g
             id="g688" /><g
             id="g700"><g
               style="opacity:0.80000299"
               id="g698"
               clip-path="url(#clipPath692)"><g
                 id="g696"
                 transform="translate(299.7236,911.8564)"><path
                   id="path694"
                   style="fill:#1b1d20;fill-opacity:1;fill-rule:nonzero;stroke:none"
                   d="m 0,0 c -1.197,5.257 -5.769,7.956 -10.418,7.956 -4.798,0 -7.869,-2.326 -7.869,-5.475 0,-4.199 5.917,-5.699 12.518,-7.946 7.643,-2.62 16.414,-6.671 16.414,-16.049 0,-9.369 -8.094,-16.04 -20.092,-16.04 -11.017,0 -18.59,6.229 -21.436,15.745 l 10.046,2.698 c 1.119,-4.727 5.317,-9.152 11.841,-9.152 5.622,0 8.545,2.785 8.545,6.298 0,5.326 -7.131,6.602 -14.539,9.221 -6.22,2.247 -14.019,5.483 -14.019,14.627 0,8.171 8.102,15.138 19.189,15.138 9.82,0 17.619,-6.003 19.866,-14.245 z" /></g></g></g></g><g
           id="g702"><g
             id="g704" /><g
             id="g714"><g
               style="opacity:0.80000299"
               id="g712"
               clip-path="url(#clipPath708)"><path
                 id="path710"
                 style="fill:#1b1d20;fill-opacity:1;fill-rule:nonzero;stroke:none"
                 d="m 322.531,927.828 h 10.427 v -52.476 h -10.427 z" /></g></g></g><g
           id="g716"><g
             id="g718" /><g
             id="g730"><g
               style="opacity:0.80000299"
               id="g728"
               clip-path="url(#clipPath722)"><g
                 id="g726"
                 transform="translate(400.2764,927.8276)"><path
                   id="path724"
                   style="fill:#1b1d20;fill-opacity:1;fill-rule:nonzero;stroke:none"
                   d="m 0,0 v -52.476 h -10.271 v 16.422 c 0,11.009 0.373,18.591 0.294,18.591 h -0.069 c -0.078,0 -3.756,-6.454 -4.649,-7.947 l -8.172,-14.088 h -5.397 l -8.18,14.088 c -0.963,1.493 -4.641,7.947 -4.72,7.947 h -0.068 c -0.079,0 0.372,-7.582 0.372,-18.591 V -52.476 H -51.13 V 0 h 9.819 l 10.871,-17.983 c 4.051,-6.681 4.718,-8.329 4.797,-8.329 h 0.078 c 0.078,0 0.746,1.648 4.797,8.329 L -9.82,0 Z" /></g></g></g></g><g
           id="g732"><g
             id="g734" /><g
             id="g746"><g
               style="opacity:0.80000299"
               id="g744"
               clip-path="url(#clipPath738)"><g
                 id="g742"
                 transform="translate(467.6113,927.8276)"><path
                   id="path740"
                   style="fill:#1b1d20;fill-opacity:1;fill-rule:nonzero;stroke:none"
                   d="m 0,0 v -52.476 h -10.271 v 16.422 c 0,11.009 0.373,18.591 0.295,18.591 h -0.07 c -0.077,0 -3.756,-6.454 -4.648,-7.947 l -8.173,-14.088 h -5.396 l -8.179,14.088 c -0.964,1.493 -4.642,7.947 -4.721,7.947 h -0.068 c -0.079,0 0.372,-7.582 0.372,-18.591 V -52.476 H -51.13 V 0 h 9.82 l 10.871,-17.983 c 4.05,-6.681 4.718,-8.329 4.795,-8.329 h 0.08 c 0.077,0 0.745,1.648 4.796,8.329 L -9.819,0 Z" /></g></g></g></g><g
           id="g748"><g
             id="g750" /><g
             id="g762"><g
               style="opacity:0.80000299"
               id="g760"
               clip-path="url(#clipPath754)"><g
                 id="g758"
                 transform="translate(521.3721,885.1025)"><path
                   id="path756"
                   style="fill:#1b1d20;fill-opacity:1;fill-rule:nonzero;stroke:none"
                   d="M 0,0 V -9.75 H -37.556 V 42.725 H -0.443 V 32.983 H -27.136 V 21.809 H -6.073 V 12.666 H -27.136 V 0 Z" /></g></g></g></g><g
           id="g764"><g
             id="g766" /><g
             id="g778"><g
               style="opacity:0.80000299"
               id="g776"
               clip-path="url(#clipPath770)"><g
                 id="g774"
                 transform="translate(546.876,902.5659)"><path
                   id="path772"
                   style="fill:#1b1d20;fill-opacity:1;fill-rule:nonzero;stroke:none"
                   d="m 0,0 h 9.299 c 5.769,0 8.467,3.756 8.467,7.721 0,4.12 -2.766,7.799 -8.467,7.799 H 0 Z M 18.972,-27.214 8.545,-9.291 H 7.946 0 V -27.214 H -10.419 V 25.271 H 7.946 c 12.901,0 20.62,-6.976 20.62,-17.55 0,-7.192 -3.53,-12.45 -9.897,-15.069 l 11.989,-19.866 z" /></g></g></g></g><g
           id="g780"><g
             id="g782" /><g
             id="g792"><g
               style="opacity:0.80000299"
               id="g790"
               clip-path="url(#clipPath786)"><path
                 id="path788"
                 style="fill:#1b1d20;fill-opacity:1;fill-rule:nonzero;stroke:none"
                 d="m 541.549,893.075 h -9.707 v 9.317 h 9.707 z" /></g></g></g><g
           id="g794"><g
             id="g796" /><g
             id="g806"><g
               style="opacity:0.80000299"
               id="g804"
               clip-path="url(#clipPath800)"><path
                 id="path802"
                 style="fill:#373639;fill-opacity:1;fill-rule:nonzero;stroke:none"
                 d="m 347.532,818.305 h -77.72 v 4.078 h 77.72 z" /></g></g></g><g
           id="g808"><g
             id="g810" /><g
             id="g820"><g
               style="opacity:0.80000299"
               id="g818"
               clip-path="url(#clipPath814)"><path
                 id="path816"
                 style="fill:#373639;fill-opacity:1;fill-rule:nonzero;stroke:none"
                 d="m 575.261,818.305 h -77.712 v 4.078 h 77.712 z" /></g></g></g><g
           transform="translate(119.1968,174.9092)"
           id="g822"><path
             id="path824"
             style="fill:#007692;fill-opacity:1;fill-rule:nonzero;stroke:none"
             d="m 0,0 v -30.59 c 0,-4.181 1.804,-6.367 5.864,-6.367 4.069,0 5.95,2.186 5.95,6.367 V 0 h 8.364 v -30.658 c 0,-9.629 -5.7,-13.692 -14.314,-13.692 -8.605,0 -14.227,4.063 -14.227,13.692 V 0 Z" /></g><g
           transform="translate(155.7271,155.8916)"
           id="g826"><path
             id="path828"
             style="fill:#007692;fill-opacity:1;fill-rule:nonzero;stroke:none"
             d="m 0,0 h 4.303 c 3.696,0 5.933,1.822 5.933,6.055 0,4.234 -2.237,6.056 -5.933,6.056 H 0 Z M 11.269,-24.725 3.999,-6.906 H 0 V -24.725 H -8.363 V 19.018 H 3.756 c 10.055,0 14.843,-4.842 14.843,-13.084 0,-5.448 -1.934,-9.405 -6.602,-11.139 l 8.242,-19.52 z" /></g><g
           transform="translate(201.9561,134.8115)"
           id="g830"><path
             id="path832"
             style="fill:#007692;fill-opacity:1;fill-rule:nonzero;stroke:none"
             d="m 0,0 c -2.247,-2.551 -4.667,-4.252 -7.816,-4.252 -8.12,0 -13.819,3.889 -13.819,14.662 v 15.633 c 0,10.773 5.699,14.66 13.819,14.66 8.536,0 13.142,-4.91 13.446,-14.834 h -8.362 c 0,5.639 -2.057,7.444 -5.084,7.444 -3.331,0 -5.456,-1.321 -5.456,-6.178 V 9.316 c 0,-4.839 2.125,-6.175 5.456,-6.175 3.149,0 5.084,2.289 5.084,6.054 v 2.672 h -5.874 v 6.904 H 5.63 V -3.645 H 1.267 Z" /></g><g
           transform="translate(214.7432,131.167)"
           id="g834"><path
             id="path836"
             style="fill:#007692;fill-opacity:1;fill-rule:nonzero;stroke:none"
             d="M 0,0 V 43.742 H 22.902 V 36.35 H 8.363 V 26.305 H 19.45 V 18.912 H 8.363 V 7.393 h 15.146 l 0,-7.393 z" /></g><g
           transform="translate(245.5225,131.167)"
           id="g838"><path
             id="path840"
             style="fill:#007692;fill-opacity:1;fill-rule:nonzero;stroke:none"
             d="M 0,0 V 43.742 H 9.152 L 20.786,17.818 h 0.121 v 25.924 h 7.634 V 0 H 20.542 L 7.755,28.229 H 7.634 V 0 Z" /></g><g
           transform="translate(289.687,144.1279)"
           id="g842"><path
             id="path844"
             style="fill:#007692;fill-opacity:1;fill-rule:nonzero;stroke:none"
             d="m 0,0 c 0,-4.84 2.125,-6.176 5.456,-6.176 3.332,0 5.448,1.336 5.448,6.176 v 2.916 h 8.363 V 1.094 c 0,-10.774 -5.69,-14.662 -13.811,-14.662 -8.12,0 -13.819,3.888 -13.819,14.662 v 15.633 c 0,10.791 5.699,14.66 13.819,14.66 8.121,0 13.811,-3.869 13.811,-14.66 v -0.122 h -8.363 v 1.213 c 0,4.858 -2.116,6.178 -5.448,6.178 C 2.125,23.996 0,22.676 0,17.818 Z" /></g><path
           id="path846"
           style="fill:#007692;fill-opacity:1;fill-rule:nonzero;stroke:none"
           d="m 316.224,174.909 h 8.362 v -43.742 h -8.362 z" /><g
           transform="translate(341.5547,147.7725)"
           id="g848"><path
             id="path850"
             style="fill:#007692;fill-opacity:1;fill-rule:nonzero;stroke:none"
             d="M 0,0 H 8.303 L 4.243,17.697 H 4.121 Z M -11.937,-16.605 -1.093,27.137 H 9.63 L 20.178,-16.605 H 12.18 l -2.125,9.214 H -1.518 l -2.368,-9.214 z" /></g><g
           transform="translate(384.748,162.7451)"
           id="g852"><path
             id="path854"
             style="fill:#007692;fill-opacity:1;fill-rule:nonzero;stroke:none"
             d="m 0,0 c -1.388,4.111 -3.21,5.865 -6.116,5.865 -2.967,0 -4.606,-1.806 -4.606,-4.791 0,-6.592 18.659,-7.094 18.659,-20.783 0,-7.514 -5.144,-12.477 -13.932,-12.477 -6.783,0 -12.058,3.698 -14.304,12.303 l 8.24,1.752 c 0.973,-5.273 4,-7.148 6.49,-7.148 2.906,0 5.144,1.943 5.144,5.205 0,8.258 -18.66,8.381 -18.66,20.613 0,7.512 4.485,12.231 13.151,12.231 7.453,0 11.998,-4.424 13.446,-10.602 z" /></g><g
           transform="translate(425.6509,155.6494)"
           id="g856"><path
             id="path858"
             style="fill:#007692;fill-opacity:1;fill-rule:nonzero;stroke:none"
             d="m 0,0 h 4.485 c 4.12,0 6.177,2.047 6.177,6.176 0,4.131 -2.057,6.178 -6.177,6.178 H 0 Z M -8.363,-24.482 V 19.26 H 3.696 c 10.297,0 15.328,-4.842 15.328,-13.084 0,-8.242 -5.031,-13.082 -15.328,-13.082 H 0 v -17.576 z" /></g><g
           transform="translate(450.4873,131.167)"
           id="g860"><path
             id="path862"
             style="fill:#007692;fill-opacity:1;fill-rule:nonzero;stroke:none"
             d="M 0,0 V 43.742 H 22.902 V 36.35 H 8.363 V 26.305 H 19.45 V 18.912 H 8.363 V 7.393 H 23.51 L 23.51,0 Z" /></g><g
           transform="translate(489.1426,138.5596)"
           id="g864"><path
             id="path866"
             style="fill:#007692;fill-opacity:1;fill-rule:nonzero;stroke:none"
             d="m 0,0 h 2.907 c 4.607,0 7.271,2.186 7.271,8.727 v 11.502 c 0,6.195 -2.057,8.728 -7.271,8.728 H 0 Z M -8.361,36.35 H 3.271 c 9.578,0 14.904,-4.114 15.268,-15.149 V 7.756 C 18.175,-3.262 12.849,-7.393 3.271,-7.393 H -8.361 Z" /></g><path
           id="path868"
           style="fill:#007692;fill-opacity:1;fill-rule:nonzero;stroke:none"
           d="m 514.952,174.909 h 8.361 v -43.742 h -8.361 z" /><g
           transform="translate(540.2832,147.7725)"
           id="g870"><path
             id="path872"
             style="fill:#007692;fill-opacity:1;fill-rule:nonzero;stroke:none"
             d="M 0,0 H 8.302 L 4.25,17.697 H 4.12 Z M 13.992,38.482 5.084,29.635 h -6.116 l 5.638,8.847 z M -11.937,-16.605 -1.093,27.137 H 9.629 l 10.549,-43.742 h -7.999 l -2.124,9.214 H -1.519 l -2.36,-9.214 z" /></g><g
           transform="translate(586.9971,174.9092)"
           id="g874"><path
             id="path876"
             style="fill:#007692;fill-opacity:1;fill-rule:nonzero;stroke:none"
             d="m 0,0 v -7.393 h -9.759 v -36.349 h -8.363 v 36.349 h -9.75 V 0 Z" /></g><g
           transform="translate(600.3223,155.8916)"
           id="g878"><path
             id="path880"
             style="fill:#007692;fill-opacity:1;fill-rule:nonzero;stroke:none"
             d="m 0,0 h 4.303 c 3.696,0 5.933,1.822 5.933,6.055 0,4.234 -2.237,6.056 -5.933,6.056 H 0 Z M 11.27,-24.725 3.999,-6.906 H 0 V -24.725 H -8.363 V 19.018 H 3.756 c 10.056,0 14.844,-4.842 14.844,-13.084 0,-5.448 -1.935,-9.405 -6.602,-11.139 l 8.242,-19.52 z" /></g><path
           id="path882"
           style="fill:#007692;fill-opacity:1;fill-rule:nonzero;stroke:none"
           d="m 626.132,174.909 h 8.354 v -43.742 h -8.354 z" /><g
           transform="translate(650.126,144.1279)"
           id="g884"><path
             id="path886"
             style="fill:#007692;fill-opacity:1;fill-rule:nonzero;stroke:none"
             d="m 0,0 c 0,-4.84 2.125,-6.176 5.457,-6.176 3.331,0 5.447,1.336 5.447,6.176 v 2.916 h 8.364 V 1.094 c 0,-10.774 -5.692,-14.662 -13.811,-14.662 -8.12,0 -13.819,3.888 -13.819,14.662 v 15.633 c 0,10.791 5.699,14.66 13.819,14.66 8.119,0 13.811,-3.869 13.811,-14.66 v -0.122 h -8.364 v 1.213 c 0,4.858 -2.116,6.178 -5.447,6.178 C 2.125,23.996 0,22.676 0,17.818 Z" /></g><g
           transform="translate(685.1465,147.7725)"
           id="g888"><path
             id="path890"
             style="fill:#007692;fill-opacity:1;fill-rule:nonzero;stroke:none"
             d="M 0,0 H 8.303 L 4.243,17.697 H 4.122 Z M -11.937,-16.605 -1.093,27.137 H 9.631 l 10.54,-43.742 H 12.18 l -2.124,9.214 H -1.517 l -2.36,-9.214 z" /></g><g
           transform="translate(728.3408,162.7451)"
           id="g892"><path
             id="path894"
             style="fill:#007692;fill-opacity:1;fill-rule:nonzero;stroke:none"
             d="m 0,0 c -1.389,4.111 -3.211,5.865 -6.116,5.865 -2.968,0 -4.607,-1.806 -4.607,-4.791 0,-6.592 18.66,-7.094 18.66,-20.783 0,-7.514 -5.145,-12.477 -13.932,-12.477 -6.784,0 -12.058,3.698 -14.297,12.303 l 8.233,1.752 c 0.972,-5.273 3.999,-7.148 6.49,-7.148 2.905,0 5.144,1.943 5.144,5.205 0,8.258 -18.661,8.381 -18.661,20.613 0,7.512 4.485,12.231 13.152,12.231 7.453,0 11.997,-4.424 13.446,-10.602 z" /></g><g
           transform="translate(283.5889,87.1846)"
           id="g896"><path
             id="path898"
             style="fill:#9b9aa0;fill-opacity:1;fill-rule:nonzero;stroke:none"
             d="M 0,0 V 18.496 H 4.944 L 8.145,6.352 h 0.052 l 3.201,12.144 h 4.945 V 0 H 13.315 V 14.559 H 13.264 L 9.499,0 H 6.835 L 3.07,14.559 H 3.019 V 0 Z" /></g><g
           transform="translate(307.063,94.2119)"
           id="g900"><path
             id="path902"
             style="fill:#9b9aa0;fill-opacity:1;fill-rule:nonzero;stroke:none"
             d="M 0,0 H 3.522 L 1.796,7.479 H 1.744 Z m -5.048,-7.027 4.589,18.496 H 4.077 L 8.537,-7.027 H 5.153 L 4.25,-3.139 H -0.642 L -1.64,-7.027 Z" /></g><g
           transform="translate(317.6899,87.1846)"
           id="g904"><path
             id="path906"
             style="fill:#9b9aa0;fill-opacity:1;fill-rule:nonzero;stroke:none"
             d="M 0,0 V 18.496 H 3.869 L 8.788,7.531 H 8.84 v 10.965 h 3.227 V 0 H 8.684 L 3.279,11.938 H 3.227 L 3.227,0 Z" /></g><g
           transform="translate(333.105,87.1846)"
           id="g908"><path
             id="path910"
             style="fill:#9b9aa0;fill-opacity:1;fill-rule:nonzero;stroke:none"
             d="M 0,0 V 18.496 H 9.682 V 15.373 H 3.54 v -4.25 H 8.224 V 7.982 H 3.54 V 3.125 H 9.942 V 0 Z" /></g><g
           transform="translate(351.0459,105.6807)"
           id="g912"><path
             id="path914"
             style="fill:#9b9aa0;fill-opacity:1;fill-rule:nonzero;stroke:none"
             d="m 0,0 v -14.574 c 0,-2.481 -1.666,-4.18 -4.746,-4.18 -0.763,0 -1.223,0.033 -1.734,0.068 v 3.141 c 0.355,-0.035 0.633,-0.07 0.945,-0.07 1.614,0 1.995,0.433 1.995,1.752 V 0 Z" /></g><g
           transform="translate(357.6299,92.6689)"
           id="g916"><path
             id="path918"
             style="fill:#9b9aa0;fill-opacity:1;fill-rule:nonzero;stroke:none"
             d="m 0,0 c 0,-2.049 0.902,-2.604 2.308,-2.604 1.405,0 2.316,0.555 2.316,2.604 v 7.529 c 0,2.047 -0.911,2.619 -2.316,2.619 C 0.902,10.148 0,9.576 0,7.529 Z m -3.531,7.078 c 0,4.547 2.403,6.176 5.839,6.176 3.435,0 5.838,-1.629 5.838,-6.176 V 0.469 c 0,-4.565 -2.403,-6.211 -5.838,-6.211 -3.436,0 -5.839,1.646 -5.839,6.211 z" /></g><g
           transform="translate(379.2656,90.3096)"
           id="g920"><path
             id="path922"
             style="fill:#9b9aa0;fill-opacity:1;fill-rule:nonzero;stroke:none"
             d="m 0,0 h 1.223 c 1.952,0 3.079,0.918 3.079,3.695 v 4.858 c 0,2.621 -0.876,3.695 -3.079,3.695 H 0 Z m -3.54,15.371 h 4.919 c 4.051,0 6.307,-1.736 6.454,-6.402 V 3.277 C 7.686,-1.371 5.43,-3.125 1.379,-3.125 H -3.54 Z" /></g><g
           transform="translate(389.9443,87.1846)"
           id="g924"><path
             id="path926"
             style="fill:#9b9aa0;fill-opacity:1;fill-rule:nonzero;stroke:none"
             d="M 0,0 V 18.496 H 9.682 V 15.373 H 3.54 v -4.25 H 8.224 V 7.982 H 3.54 V 3.125 H 9.941 L 9.941,0 Z" /></g><g
           transform="translate(413.3667,90.3096)"
           id="g928"><path
             id="path930"
             style="fill:#9b9aa0;fill-opacity:1;fill-rule:nonzero;stroke:none"
             d="m 0,0 h 1.224 c 1.951,0 3.079,0.918 3.079,3.695 v 4.858 c 0,2.621 -0.876,3.695 -3.079,3.695 H 0 Z m -3.539,15.371 h 4.918 c 4.052,0 6.307,-1.736 6.455,-6.402 V 3.277 C 7.686,-1.371 5.431,-3.125 1.379,-3.125 h -4.918 z" /></g><g
           transform="translate(427.585,97.6475)"
           id="g932"><path
             id="path934"
             style="fill:#9b9aa0;fill-opacity:1;fill-rule:nonzero;stroke:none"
             d="m 0,0 h 1.814 c 1.561,0 2.515,0.764 2.515,2.551 0,1.787 -0.954,2.568 -2.515,2.568 H 0 Z M 4.763,-10.463 1.692,-2.932 H 0 v -7.531 H -3.539 V 8.033 h 5.127 c 4.251,0 6.271,-2.047 6.271,-5.533 0,-2.309 -0.815,-3.975 -2.793,-4.703 l 3.488,-8.26 z" /></g><g
           transform="translate(441.4922,92.6689)"
           id="g936"><path
             id="path938"
             style="fill:#9b9aa0;fill-opacity:1;fill-rule:nonzero;stroke:none"
             d="m 0,0 c 0,-2.049 0.901,-2.604 2.307,-2.604 1.406,0 2.307,0.555 2.307,2.604 v 7.529 c 0,2.047 -0.901,2.619 -2.307,2.619 C 0.901,10.148 0,9.576 0,7.529 Z m -3.531,7.078 c 0,4.547 2.403,6.176 5.838,6.176 3.435,0 5.838,-1.629 5.838,-6.176 V 0.469 c 0,-4.565 -2.403,-6.211 -5.838,-6.211 -3.435,0 -5.838,1.646 -5.838,6.211 z" /></g><g
           transform="translate(461.3145,88.7295)"
           id="g940"><path
             id="path942"
             style="fill:#9b9aa0;fill-opacity:1;fill-rule:nonzero;stroke:none"
             d="m 0,0 c -0.947,-1.074 -1.97,-1.803 -3.306,-1.803 -3.435,0 -5.839,1.629 -5.839,6.211 V 11 c 0,4.564 2.404,6.193 5.839,6.193 3.61,0 5.562,-2.062 5.691,-6.261 h -3.539 c 0,2.392 -0.876,3.156 -2.152,3.156 -1.405,0 -2.307,-0.572 -2.307,-2.619 v -7.53 c 0,-2.048 0.902,-2.621 2.307,-2.621 1.336,0 2.152,0.991 2.152,2.569 V 5.016 H -3.636 V 7.93 H 2.385 V -1.545 H 0.537 Z" /></g><g
           transform="translate(470.4844,94.2119)"
           id="g944"><path
             id="path946"
             style="fill:#9b9aa0;fill-opacity:1;fill-rule:nonzero;stroke:none"
             d="M 0,0 H 3.521 L 1.795,7.479 H 1.743 Z m -5.05,-7.027 4.59,18.496 H 4.075 L 8.535,-7.027 H 5.152 L 4.25,-3.139 h -4.893 l -0.998,-3.888 z" /></g><g
           transform="translate(488.7178,100.5283)"
           id="g948"><path
             id="path950"
             style="fill:#9b9aa0;fill-opacity:1;fill-rule:nonzero;stroke:none"
             d="m 0,0 c -0.59,1.734 -1.361,2.48 -2.585,2.48 -1.258,0 -1.952,-0.763 -1.952,-2.011 0,-2.793 7.895,-3.002 7.895,-8.797 0,-3.176 -2.177,-5.274 -5.899,-5.274 -2.863,0 -5.092,1.561 -6.038,5.204 l 3.478,0.746 c 0.408,-2.237 1.692,-3.018 2.742,-3.018 1.231,0 2.169,0.815 2.169,2.203 0,3.469 -7.878,3.522 -7.878,8.694 0,3.189 1.892,5.168 5.553,5.168 3.157,0 5.075,-1.856 5.691,-4.477 z" /></g><g
           transform="translate(507.8115,98.2373)"
           id="g952"><path
             id="path954"
             style="fill:#9b9aa0;fill-opacity:1;fill-rule:nonzero;stroke:none"
             d="M 0,0 2.994,7.443 H 6.768 L 1.719,-3.574 v -7.479 H -1.82 v 7.479 L -6.87,7.443 h 3.774 z" /></g><g
           transform="translate(527.0879,97.6475)"
           id="g956"><path
             id="path958"
             style="fill:#9b9aa0;fill-opacity:1;fill-rule:nonzero;stroke:none"
             d="m 0,0 h 1.813 c 1.562,0 2.515,0.764 2.515,2.551 0,1.787 -0.953,2.568 -2.515,2.568 H 0 Z M 4.764,-10.463 1.692,-2.932 H 0 v -7.531 H -3.539 V 8.033 h 5.126 c 4.252,0 6.272,-2.047 6.272,-5.533 0,-2.309 -0.814,-3.975 -2.793,-4.703 l 3.488,-8.26 z" /></g><g
           transform="translate(540.9941,92.6689)"
           id="g960"><path
             id="path962"
             style="fill:#9b9aa0;fill-opacity:1;fill-rule:nonzero;stroke:none"
             d="m 0,0 c 0,-2.049 0.902,-2.604 2.308,-2.604 1.405,0 2.306,0.555 2.306,2.604 V 1.232 H 8.146 V 0.469 c 0,-4.565 -2.404,-6.211 -5.838,-6.211 -3.436,0 -5.83,1.646 -5.83,6.211 v 6.609 c 0,4.547 2.394,6.176 5.83,6.176 3.434,0 5.838,-1.629 5.838,-6.176 V 7.025 H 4.614 v 0.504 c 0,2.047 -0.901,2.619 -2.306,2.619 C 0.902,10.148 0,9.576 0,7.529 Z" /></g><g
           transform="translate(555.7148,97.5439)"
           id="g964"><path
             id="path966"
             style="fill:#9b9aa0;fill-opacity:1;fill-rule:nonzero;stroke:none"
             d="m 0,0 h 1.901 c 1.744,0 2.611,0.867 2.611,2.604 0,1.734 -0.867,2.619 -2.611,2.619 L 0,5.223 Z M -3.53,-10.359 V 8.137 h 5.092 c 4.356,0 6.49,-2.047 6.49,-5.533 0,-3.489 -2.134,-5.536 -6.49,-5.536 H 0 v -7.427 z" /></g><g
           transform="translate(258.5083,61.542)"
           id="g968"><path
             id="path970"
             style="fill:#9b9aa0;fill-opacity:1;fill-rule:nonzero;stroke:none"
             d="M 0,0 V 18.494 H 9.682 V 15.355 H 3.54 V 11.121 H 8.225 V 7.98 H 3.54 V 3.123 H 9.942 V 0 Z" /></g><g
           transform="translate(271.5039,61.542)"
           id="g972"><path
             id="path974"
             style="fill:#9b9aa0;fill-opacity:1;fill-rule:nonzero;stroke:none"
             d="M 0,0 V 18.494 H 3.869 L 8.788,7.529 H 8.84 v 10.965 h 3.227 V 0 H 8.684 L 3.279,11.938 H 3.228 L 3.228,0 Z" /></g><g
           transform="translate(294.2324,61.542)"
           id="g976"><path
             id="path978"
             style="fill:#9b9aa0;fill-opacity:1;fill-rule:nonzero;stroke:none"
             d="M 0,0 V 18.494 H 3.87 L 8.788,7.529 H 8.84 v 10.965 h 3.227 V 0 H 8.684 L 3.279,11.938 H 3.227 L 3.227,0 Z" /></g><g
           transform="translate(309.6392,61.542)"
           id="g980"><path
             id="path982"
             style="fill:#9b9aa0;fill-opacity:1;fill-rule:nonzero;stroke:none"
             d="M 0,0 V 18.494 H 9.682 V 15.355 H 3.54 V 11.121 H 8.224 V 7.98 H 3.54 V 3.123 H 9.942 V 0 Z" /></g><g
           transform="translate(325.6538,67.0244)"
           id="g984"><path
             id="path986"
             style="fill:#9b9aa0;fill-opacity:1;fill-rule:nonzero;stroke:none"
             d="m 0,0 c 0,-2.047 0.902,-2.619 2.308,-2.619 1.405,0 2.307,0.572 2.307,2.619 V 7.529 C 4.615,9.578 3.713,10.15 2.308,10.15 0.902,10.15 0,9.578 0,7.529 Z m -3.531,7.062 c 0,4.563 2.403,6.194 5.839,6.194 3.426,0 5.838,-1.631 5.838,-6.194 V 0.451 c 0,-4.545 -2.412,-6.193 -5.838,-6.193 -3.436,0 -5.839,1.648 -5.839,6.193 z" /></g><g
           transform="translate(336.8442,61.542)"
           id="g988"><path
             id="path990"
             style="fill:#9b9aa0;fill-opacity:1;fill-rule:nonzero;stroke:none"
             d="M 0,0 V 18.494 H 3.869 L 8.788,7.529 H 8.84 v 10.965 h 3.227 V 0 H 8.684 L 3.279,11.938 H 3.228 L 3.228,0 Z" /></g><g
           transform="translate(356.0508,68.5518)"
           id="g992"><path
             id="path994"
             style="fill:#9b9aa0;fill-opacity:1;fill-rule:nonzero;stroke:none"
             d="M 0,0 H 3.514 L 1.796,7.494 H 1.744 Z m -5.048,-7.01 4.589,18.494 H 4.078 L 8.537,-7.01 H 5.153 L 4.25,-3.123 H -0.642 L -1.639,-7.01 Z" /></g><g
           transform="translate(375.7783,80.0361)"
           id="g996"><path
             id="path998"
             style="fill:#9b9aa0;fill-opacity:1;fill-rule:nonzero;stroke:none"
             d="m 0,0 v -3.139 h -4.121 v -15.355 h -3.531 v 15.355 h -4.129 V 0 Z" /></g><g
           transform="translate(381.0786,67.0244)"
           id="g1000"><path
             id="path1002"
             style="fill:#9b9aa0;fill-opacity:1;fill-rule:nonzero;stroke:none"
             d="m 0,0 c 0,-2.047 0.902,-2.619 2.307,-2.619 1.406,0 2.308,0.572 2.308,2.619 V 7.529 C 4.615,9.578 3.713,10.15 2.307,10.15 0.902,10.15 0,9.578 0,7.529 Z m -3.531,7.062 c 0,4.563 2.403,6.194 5.838,6.194 3.436,0 5.839,-1.631 5.839,-6.194 V 0.451 c 0,-4.545 -2.403,-6.193 -5.839,-6.193 -3.435,0 -5.838,1.648 -5.838,6.193 z" /></g><g
           transform="translate(392.0698,61.542)"
           id="g1004"><path
             id="path1006"
             style="fill:#9b9aa0;fill-opacity:1;fill-rule:nonzero;stroke:none"
             d="M 0,0 V 18.494 H 3.539 V 3.123 H 9.221 V 0 Z" /></g><g
           transform="translate(406.644,67.0244)"
           id="g1008"><path
             id="path1010"
             style="fill:#9b9aa0;fill-opacity:1;fill-rule:nonzero;stroke:none"
             d="m 0,0 c 0,-2.047 0.902,-2.619 2.307,-2.619 1.406,0 2.308,0.572 2.308,2.619 V 7.529 C 4.615,9.578 3.713,10.15 2.307,10.15 0.902,10.15 0,9.578 0,7.529 Z m -3.531,7.062 c 0,4.563 2.403,6.194 5.838,6.194 3.427,0 5.839,-1.631 5.839,-6.194 V 0.451 c 0,-4.545 -2.412,-6.193 -5.839,-6.193 -3.435,0 -5.838,1.648 -5.838,6.193 z" /></g><g
           transform="translate(426.4746,63.0693)"
           id="g1012"><path
             id="path1014"
             style="fill:#9b9aa0;fill-opacity:1;fill-rule:nonzero;stroke:none"
             d="m 0,0 c -0.945,-1.076 -1.969,-1.787 -3.305,-1.787 -3.436,0 -5.838,1.631 -5.838,6.193 v 6.612 c 0,4.562 2.402,6.193 5.838,6.193 3.609,0 5.561,-2.065 5.691,-6.281 h -3.54 c 0,2.394 -0.867,3.175 -2.151,3.175 -1.405,0 -2.307,-0.572 -2.307,-2.621 V 3.939 c 0,-2.031 0.902,-2.603 2.307,-2.603 1.336,0 2.151,0.971 2.151,2.551 V 5.014 H -3.635 V 7.945 H 2.386 V -1.527 H 0.538 Z" /></g><path
           id="path1016"
           style="fill:#9b9aa0;fill-opacity:1;fill-rule:nonzero;stroke:none"
           d="m 432.054,80.021 h 3.53 V 61.527 h -3.53 z m 5.941,4.806 -3.765,-3.748 h -2.593 l 2.384,3.748 z" /><g
           transform="translate(442.749,68.5518)"
           id="g1018"><path
             id="path1020"
             style="fill:#9b9aa0;fill-opacity:1;fill-rule:nonzero;stroke:none"
             d="M 0,0 H 3.514 L 1.796,7.494 H 1.744 Z m -5.049,-7.01 4.59,18.494 H 4.078 L 8.536,-7.01 H 5.153 L 4.252,-3.123 H -0.642 L -1.64,-7.01 Z" /></g><g
           transform="translate(465.8682,72.5771)"
           id="g1022"><path
             id="path1024"
             style="fill:#9b9aa0;fill-opacity:1;fill-rule:nonzero;stroke:none"
             d="M 0,0 2.992,7.459 H 6.758 L 1.719,-3.557 v -7.478 h -3.541 v 7.478 L -6.87,7.459 h 3.772 z" /></g><g
           transform="translate(485.335,71.8838)"
           id="g1026"><path
             id="path1028"
             style="fill:#9b9aa0;fill-opacity:1;fill-rule:nonzero;stroke:none"
             d="M 0,0 H 1.9 C 3.644,0 4.511,0.885 4.511,2.619 4.511,4.354 3.644,5.24 1.9,5.24 H 0 Z M -3.531,-10.342 V 8.152 h 5.093 c 4.355,0 6.489,-2.047 6.489,-5.533 0,-3.488 -2.134,-5.535 -6.489,-5.535 H 0 v -7.426 z" /></g><g
           transform="translate(495.8145,61.542)"
           id="g1030"><path
             id="path1032"
             style="fill:#9b9aa0;fill-opacity:1;fill-rule:nonzero;stroke:none"
             d="M 0,0 V 18.494 H 9.681 V 15.355 H 3.54 V 11.121 H 8.224 V 7.98 H 3.54 V 3.123 H 9.941 L 9.941,0 Z" /></g><g
           transform="translate(512.1406,64.665)"
           id="g1034"><path
             id="path1036"
             style="fill:#9b9aa0;fill-opacity:1;fill-rule:nonzero;stroke:none"
             d="m 0,0 h 1.224 c 1.952,0 3.08,0.92 3.08,3.695 v 4.86 c 0,2.619 -0.877,3.695 -3.08,3.695 H 0 Z M -3.539,15.355 H 1.38 c 4.052,0 6.307,-1.718 6.454,-6.384 V 3.279 C 7.687,-1.389 5.432,-3.139 1.38,-3.139 h -4.919 z" /></g><path
           id="path1038"
           style="fill:#9b9aa0;fill-opacity:1;fill-rule:nonzero;stroke:none"
           d="m 523.02,80.021 h 3.531 V 61.527 h -3.531 z" /><g
           transform="translate(533.708,68.5518)"
           id="g1040"><path
             id="path1042"
             style="fill:#9b9aa0;fill-opacity:1;fill-rule:nonzero;stroke:none"
             d="M 0,0 H 3.513 L 1.795,7.494 H 1.743 Z m -5.05,-7.01 4.59,18.494 H 4.077 L 8.535,-7.01 H 5.152 L 4.25,-3.123 H -0.643 L -1.648,-7.01 Z" /></g><g
           transform="translate(553.4434,80.0361)"
           id="g1044"><path
             id="path1046"
             style="fill:#9b9aa0;fill-opacity:1;fill-rule:nonzero;stroke:none"
             d="m 0,0 v -3.139 h -4.13 v -15.355 h -3.531 v 15.355 h -4.128 V 0 Z" /></g><g
           transform="translate(559.0557,71.9873)"
           id="g1048"><path
             id="path1050"
             style="fill:#9b9aa0;fill-opacity:1;fill-rule:nonzero;stroke:none"
             d="m 0,0 h 1.812 c 1.563,0 2.516,0.781 2.516,2.566 0,1.788 -0.953,2.571 -2.516,2.571 L 0,5.137 Z m 4.762,-10.461 -3.07,7.545 H 0 v -7.545 H -3.539 V 8.033 h 5.126 c 4.252,0 6.272,-2.031 6.272,-5.517 0,-2.307 -0.815,-3.973 -2.794,-4.719 l 3.489,-8.258 z" /></g><path
           id="path1052"
           style="fill:#9b9aa0;fill-opacity:1;fill-rule:nonzero;stroke:none"
           d="m 569.934,80.021 h 3.522 V 61.527 h -3.522 z m 5.942,4.806 -3.764,-3.748 h -2.595 l 2.386,3.748 z" /><g
           transform="translate(580.6211,68.5518)"
           id="g1054"><path
             id="path1056"
             style="fill:#9b9aa0;fill-opacity:1;fill-rule:nonzero;stroke:none"
             d="M 0,0 H 3.523 L 1.796,7.494 H 1.744 Z m -5.049,-7.01 4.59,18.494 H 4.078 L 8.536,-7.01 H 5.153 L 4.252,-3.123 H -0.642 L -1.64,-7.01 Z" /></g><g
           transform="translate(572.0068,333.5049)"
           id="g1058"><path
             id="path1060"
             style="fill:#89878b;fill-opacity:1;fill-rule:nonzero;stroke:none"
             d="m 0,0 c -17.671,0 -32.045,-12.283 -32.045,-27.379 0,-15.076 14.374,-27.361 32.045,-27.361 17.671,0 32.037,12.285 32.037,27.361 C 32.037,-12.283 17.671,0 0,0 m 0,-66.381 c -24.091,0 -43.679,17.506 -43.679,39.002 0,21.516 19.588,39.004 43.679,39.004 24.082,0 43.671,-17.488 43.671,-39.004 0,-21.496 -19.589,-39.002 -43.671,-39.002" /></g><g
           transform="translate(262.1172,255.7236)"
           id="g1062"><path
             id="path1064"
             style="fill:#89878b;fill-opacity:1;fill-rule:nonzero;stroke:none"
             d="m 0,0 c -3.955,0 -16.127,0.607 -23.448,7.635 -3.67,3.523 -5.613,8.172 -5.613,13.463 0,5.084 1.883,9.648 5.422,13.152 8.302,8.225 23.171,8.311 24.88,8.311 H 204.532 V 30.92 H 1.18 c -3.035,0 -12.535,-0.852 -16.647,-4.947 -1.336,-1.336 -1.952,-2.862 -1.952,-4.875 0,-2.133 0.633,-3.729 2.021,-5.049 4.138,-3.99 13.395,-4.545 16.326,-4.389 h 223.556 c 16.977,0 24.569,11.399 24.569,22.711 0,15.58 -4.183,27.483 -12.449,35.377 -12.188,11.676 -29.652,11.035 -29.791,11.035 L 90.897,80.766 -25.651,71.777 l -0.894,11.608 117,8.986 116.081,0.02 c 0.607,0.017 22.13,0.953 37.996,-14.123 10.723,-10.186 16.162,-24.969 16.162,-43.897 0,-19.9 -15.224,-34.353 -36.21,-34.353 L 1.18,0.018 C 0.998,0.018 0.59,0 0,0" /></g><path
           id="path1066"
           style="fill:#89878b;fill-opacity:1;fill-rule:nonzero;stroke:none"
           d="M 358.333,294.466 H 346.7 v 44.852 h 11.633 z" /><g
           transform="translate(486.2031,639.4043)"
           id="g1068"><path
             id="path1070"
             style="fill:#89878b;fill-opacity:1;fill-rule:nonzero;stroke:none"
             d="m 0,0 c -1.024,-4.32 -2.377,-8.485 -4.035,-12.458 25.67,-4.961 50.515,-26.233 50.75,-53.594 l -6.029,-47.99 H 2.853 l 5.665,39.818 -13.003,1.856 -7.782,-54.791 h 64.534 l 7.529,59.892 0.053,0.816 C 59.849,-32.948 30.666,-6.767 0,0" /></g><g
           transform="translate(301.7109,572.9536)"
           id="g1072"><path
             id="path1074"
             style="fill:#89878b;fill-opacity:1;fill-rule:nonzero;stroke:none"
             d="m 0,0 7.503,-60.708 h 63.632 l -6.793,54.67 -13.03,-1.614 4.962,-39.939 H 19.094 L 13.125,0.381 c 0.243,27.379 25.044,48.65 50.68,53.612 -1.658,3.973 -3.011,8.137 -4.034,12.458 C 29.148,59.684 0,33.503 0,0" /></g><g
           transform="translate(423.8379,703.9595)"
           id="g1076"><path
             id="path1078"
             style="fill:#89878b;fill-opacity:1;fill-rule:nonzero;stroke:none"
             d="m 0,0 c -21.471,0 -38.951,-20.365 -38.951,-45.383 0,-25.002 17.48,-45.371 38.951,-45.371 21.488,0 38.969,20.369 38.969,45.371 C 38.969,-20.365 21.488,0 0,0 m 0,-103.871 c -28.715,0 -52.077,26.233 -52.077,58.488 0,32.266 23.362,58.508 52.077,58.508 28.723,0 52.094,-26.242 52.094,-58.508 0,-32.255 -23.371,-58.488 -52.094,-58.488" /></g><g
           transform="translate(325.168,437.1025)"
           id="g1080"><path
             id="path1082"
             style="fill:#89878b;fill-opacity:1;fill-rule:nonzero;stroke:none"
             d="m 0,0 45.214,-82.432 h 18.07 v 13.135 H 52.978 L 12.752,4.025 6.48,60.533 H -6.723 Z" /></g><g
           transform="translate(477.1816,440.8838)"
           id="g1084"><path
             id="path1086"
             style="fill:#89878b;fill-opacity:1;fill-rule:nonzero;stroke:none"
             d="m 0,0 -32.134,-54.115 -21.21,-6.731 -21.193,6.731 -32.132,54.115 -6.463,56.752 h -13.212 l 6.948,-61.02 36.132,-60.863 29.92,-9.474 29.938,9.474 36.131,60.863 6.94,61.02 H 6.452 Z" /></g><g
           transform="translate(510.5889,441.1104)"
           id="g1088"><path
             id="path1090"
             style="fill:#89878b;fill-opacity:1;fill-rule:nonzero;stroke:none"
             d="m 0,0 -41.016,-73.305 h -10.341 v -13.134 h 18.035 l 46.126,82.431 5.882,60.533 H 5.491 Z" /></g><g
           transform="translate(550.5625,498.9717)"
           id="g1092"><path
             id="path1094"
             style="fill:#d8dade;fill-opacity:1;fill-rule:nonzero;stroke:none"
             d="M 0,0 H 30.059 L 63.475,120.324 86.117,-116.713 118.405,0 h 25.28 L 156.48,13.1 170.291,0 h 15.823 L 200.602,34.753 215.08,0 h 83.941 v 3.436 h -81.66 L 200.602,43.671 183.832,3.436 h -12.18 L 156.377,17.906 142.236,3.436 H 115.794 L 87.766,-97.906 65.141,139.097 27.457,3.436 H 0.348" /></g><g
           transform="translate(264.5903,402.8525)"
           id="g1096"><path
             id="path1098"
             style="fill:#d8dade;fill-opacity:1;fill-rule:nonzero;stroke:none"
             d="M 0,0 -22.46,235.216 -59.858,100.563 h -26.563 l -11.573,21.773 -13.897,-21.773 h -18.391 l -12.552,-31.092 -22.357,71.326 -18.495,-40.234 h -84.113 v -3.401 h 86.282 l 15.72,34.178 22.563,-71.949 15.242,37.771 h 17.966 l 11.755,18.442 9.811,-18.442 h 31.188 L -24.1,216.582 -1.631,-18.686 29.053,94.664 c -0.66,2.531 -0.703,4.111 -1.241,6.193 z" /></g><g
           id="g1100"><g
             id="g1102" /><g
             id="g1122"><g
               style="opacity:0.80000299"
               id="g1120"
               clip-path="url(#clipPath1106)"><g
                 id="g1118"><g
                   id="g1116"
                   clip-path="url(#clipPath1110)"><g
                     id="g1114"
                     transform="translate(461.4707,450.5498)"><path
                       id="path1112"
                       style="fill:#c71d2d;fill-opacity:1;fill-rule:nonzero;stroke:none"
                       d="M 0,0 C -7.123,20.09 -29.513,18.58 -37.625,3.313 -45.744,18.58 -68.134,20.09 -75.257,0 -84.375,-25.73 -41.12,-52.086 -37.625,-54.168 -34.137,-52.086 9.117,-25.73 0,0" /></g></g></g></g></g></g></g></g></g></svg>