<?xml version="1.0" encoding="UTF-8" standalone="no"?>
<svg
   xmlns:dc="http://purl.org/dc/elements/1.1/"
   xmlns:cc="http://creativecommons.org/ns#"
   xmlns:rdf="http://www.w3.org/1999/02/22-rdf-syntax-ns#"
   xmlns:svg="http://www.w3.org/2000/svg"
   xmlns="http://www.w3.org/2000/svg"
   viewBox="0 0 388.65601 374.90399"
   height="374.90399"
   width="388.65601"
   xml:space="preserve"
   id="svg2"
   version="1.1"><metadata
     id="metadata8"><rdf:RDF><cc:Work
         rdf:about=""><dc:format>image/svg+xml</dc:format><dc:type
           rdf:resource="http://purl.org/dc/dcmitype/StillImage" /></cc:Work></rdf:RDF></metadata><defs
     id="defs6"><clipPath
       id="clipPath18"
       clipPathUnits="userSpaceOnUse"><path
         id="path16"
         d="M 0,281.178 H 291.492 V 0 H 0 Z" /></clipPath><clipPath
       id="clipPath50"
       clipPathUnits="userSpaceOnUse"><path
         id="path48"
         d="M 1.94824,18.6699 H 290.329 V 2.08008 H 1.94824 Z" /></clipPath><clipPath
       id="clipPath54"
       clipPathUnits="userSpaceOnUse"><path
         id="path52"
         d="m 1.948,2.08 h 288.38 V 18.67 H 1.948 Z" /></clipPath></defs><g
     transform="matrix(1.3333333,0,0,-1.3333333,0,374.904)"
     id="g10"><g
       id="g12"><g
         clip-path="url(#clipPath18)"
         id="g14"><g
           transform="translate(56.4761,44.9883)"
           id="g20"><path
             id="path22"
             style="fill:#444142;fill-opacity:1;fill-rule:nonzero;stroke:none"
             d="m 0,0 c -0.202,-1.012 -1.012,-1.416 -2.024,-1.416 h -14.575 c -1.011,0 -1.619,0.404 -2.024,1.416 l -37.65,123.479 c 0,0.203 -0.203,0.606 -0.203,0.809 0,1.214 0.81,1.821 2.227,1.821 h 20.242 c 1.215,0 1.821,-0.404 2.025,-1.417 L -8.906,42.51 13.158,124.692 c 0.202,1.013 0.81,1.417 2.024,1.417 h 20.445 c 1.417,0 2.227,-0.607 2.227,-1.821 0,-0.203 -0.203,-0.606 -0.203,-0.809 z" /></g><g
           transform="translate(164.3706,135.2695)"
           id="g24"><path
             id="path26"
             style="fill:#444142;fill-opacity:1;fill-rule:nonzero;stroke:none"
             d="m 0,0 c 0,7.895 -6.478,14.574 -14.575,14.574 h -18.218 c -1.417,0 -2.024,-0.607 -2.024,-2.024 v -26.922 c 0,-1.417 0.607,-2.024 2.024,-2.024 h 18.218 C -6.478,-16.396 0,-9.919 0,-1.822 Z m 23.076,-1.822 c 0,-20.849 -15.181,-35.829 -37.651,-35.829 h -18.218 c -1.417,0 -2.024,-0.607 -2.024,-2.024 v -49.998 c 0,-1.417 -0.608,-2.025 -2.025,-2.025 h -19.229 c -1.417,0 -2.025,0.608 -2.025,2.025 V 33.805 c 0,1.417 0.608,2.024 2.025,2.024 h 41.496 c 22.874,0 37.651,-14.777 37.651,-37.651" /></g><g
           transform="translate(266.189,135.2695)"
           id="g28"><path
             id="path30"
             style="fill:#444142;fill-opacity:1;fill-rule:nonzero;stroke:none"
             d="m 0,0 c 0,7.895 -6.681,14.574 -14.574,14.574 h -22.267 c -1.417,0 -2.024,-0.607 -2.024,-2.024 v -26.922 c 0,-1.417 0.607,-2.024 2.024,-2.024 h 22.267 C -6.681,-16.396 0,-9.919 0,-1.822 Z m 25.303,-90.078 c 0,-1.012 -0.609,-1.62 -2.025,-1.62 H 2.43 c -0.609,0 -1.215,0.405 -1.824,1.417 l -17.812,51.416 -1.619,1.214 h -18.016 c -1.417,0 -2.024,-0.607 -2.024,-2.024 v -49.998 c 0,-1.417 -0.609,-2.025 -2.025,-2.025 h -19.229 c -1.417,0 -2.025,0.608 -2.025,2.025 V 33.805 c 0,1.417 0.608,2.024 2.025,2.024 h 45.545 c 23.076,0 37.65,-14.575 37.65,-37.651 v -2.024 c 0,-9.514 -4.857,-17.206 -8.906,-21.659 -3.644,-3.442 -8.3,-5.87 -8.3,-7.692 V -33.4 l 19.231,-55.666 c 0.202,-0.405 0.202,-0.81 0.202,-1.012" /></g><g
           transform="translate(148.1899,257.6763)"
           id="g32"><path
             id="path34"
             style="fill:#737277;fill-opacity:1;fill-rule:nonzero;stroke:none"
             d="m 0,0 c 0,7.969 -6.483,14.318 -14.588,14.318 h -17.153 c -0.946,0 -1.351,-0.405 -1.351,-1.351 v -27.554 c 0,-0.946 0.405,-1.351 1.351,-1.351 h 17.153 C -6.349,-15.938 0,-9.59 0,-1.351 Z m 9.185,-61.862 c 0,-0.676 -0.54,-1.081 -1.351,-1.081 H 0.54 c -0.675,0.27 -1.08,0.54 -1.215,0.945 l -12.967,37.55 c -0.135,0.27 -0.405,0.541 -1.081,0.811 h -17.018 c -0.946,0 -1.351,-0.405 -1.351,-1.351 v -36.604 c 0,-0.946 -0.405,-1.351 -1.351,-1.351 h -6.348 c -0.945,0 -1.351,0.405 -1.351,1.351 v 82.258 c 0,0.945 0.406,1.351 1.351,1.351 h 26.203 c 14.453,0 23.638,-9.185 23.638,-23.368 v -1.485 c 0,-4.728 -2.836,-10.401 -8.105,-14.858 -2.971,-2.431 -5.538,-2.702 -5.538,-4.052 0,-0.135 0.136,-0.271 0.136,-0.405 L 9.05,-61.187 c 0.135,-0.27 0.135,-0.405 0.135,-0.675" /></g><g
           transform="translate(212.7397,259.0273)"
           id="g36"><path
             id="path38"
             style="fill:#737277;fill-opacity:1;fill-rule:nonzero;stroke:none"
             d="M 0,0 C 0,7.969 -6.349,14.317 -14.452,14.317 H -18.64 C -26.744,14.317 -32.957,8.104 -32.957,0 v -43.493 c 0,-8.104 6.349,-14.453 14.317,-14.453 h 4.188 c 7.834,0 14.452,6.484 14.452,14.453 z m -14.452,-65.645 h -4.188 c -14.317,0 -23.502,8.915 -23.502,22.152 V 0 c 0,13.237 9.185,22.151 23.502,22.151 h 4.188 C -0.135,22.151 9.185,13.102 9.185,0 v -43.493 c 0,-13.237 -9.32,-22.152 -23.637,-22.152" /></g><g
           transform="translate(284.0688,194.7334)"
           id="g40"><path
             id="path42"
             style="fill:#737277;fill-opacity:1;fill-rule:nonzero;stroke:none"
             d="m 0,0 h -44.303 c -0.945,0 -1.35,0.405 -1.35,1.351 v 82.258 c 0,0.945 0.405,1.35 1.35,1.35 H 0 c 0.945,0 1.351,-0.405 1.351,-1.35 v -4.998 c 0,-0.945 -0.406,-1.35 -1.351,-1.35 h -35.253 c -0.945,0 -1.351,-0.406 -1.351,-1.351 V 48.355 c 0,-0.945 0.406,-1.35 1.351,-1.35 h 28.905 c 0.946,0 1.351,-0.405 1.351,-1.351 v -4.998 c 0,-0.945 -0.405,-1.35 -1.351,-1.35 h -28.905 c -0.945,0 -1.351,-0.406 -1.351,-1.351 V 9.05 c 0,-0.946 0.406,-1.351 1.351,-1.351 L 0,7.699 c 0.945,0 1.351,-0.54 1.351,-1.351 V 1.351 C 1.351,0.405 0.945,0 0,0" /></g><g
           id="g44"><g
             id="g46" /><g
             id="g170"><g
               style="opacity:0.80000299"
               id="g168"
               clip-path="url(#clipPath50)"><g
                 id="g166"><g
                   id="g164"
                   clip-path="url(#clipPath54)"><g
                     id="g58"
                     transform="translate(6.8989,2.4277)"><path
                       id="path56"
                       style="fill:#342f2e;fill-opacity:1;fill-rule:nonzero;stroke:none"
                       d="m 0,0 c -0.041,-0.102 -0.102,-0.143 -0.202,-0.143 h -0.809 c -0.1,0 -0.161,0.041 -0.202,0.143 L -4.93,12.303 c 0,0.041 -0.02,0.06 -0.02,0.08 0,0.121 0.081,0.182 0.222,0.182 h 0.97 c 0.101,0 0.182,-0.041 0.202,-0.141 l 2.95,-10.283 h 0.1 l 2.849,10.283 c 0.02,0.1 0.081,0.141 0.202,0.141 h 0.97 c 0.141,0 0.222,-0.061 0.222,-0.182 0,-0.02 -0.02,-0.039 -0.02,-0.08 z" /></g><g
                     id="g62"
                     transform="translate(15.061,11.9424)"><path
                       id="path60"
                       style="fill:#342f2e;fill-opacity:1;fill-rule:nonzero;stroke:none"
                       d="M 0,0 C -0.021,0.081 -0.102,0.344 -0.223,0.788 H -0.304 C -0.384,0.465 -0.465,0.202 -0.525,0 L -1.96,-5.192 c 0,-0.039 -0.02,-0.06 -0.02,-0.08 0,-0.122 0.081,-0.183 0.222,-0.183 h 2.909 c 0.142,0 0.222,0.061 0.222,0.183 0,0.02 -0.019,0.06 -0.019,0.08 z m 4.061,-9.476 c 0,-0.121 -0.082,-0.181 -0.223,-0.181 h -1.03 c -0.121,0 -0.182,0.041 -0.203,0.142 l -0.788,2.787 c -0.019,0.102 -0.08,0.122 -0.201,0.122 h -3.799 c -0.121,0 -0.181,-0.02 -0.201,-0.122 l -0.788,-2.787 c -0.02,-0.101 -0.101,-0.142 -0.202,-0.142 h -1.03 c -0.142,0 -0.223,0.06 -0.223,0.181 0,0.021 0.021,0.041 0.021,0.082 l 3.737,12.303 c 0.04,0.101 0.081,0.142 0.202,0.142 h 0.768 c 0.101,0 0.162,-0.041 0.202,-0.142 L 4.04,-9.394 c 0,-0.041 0.021,-0.061 0.021,-0.082" /></g><g
                     id="g66"
                     transform="translate(27.7681,11.7002)"><path
                       id="path64"
                       style="fill:#342f2e;fill-opacity:1;fill-rule:nonzero;stroke:none"
                       d="M 0,0 C 0,1.192 -0.97,2.142 -2.182,2.142 H -4.748 C -4.89,2.142 -4.95,2.081 -4.95,1.938 v -10 c 0,-0.14 0.06,-0.201 0.202,-0.201 h 2.566 c 1.233,0 2.182,0.95 2.182,2.16 z m -2.182,-9.415 h -3.92 c -0.141,0 -0.202,0.061 -0.202,0.203 V 3.091 c 0,0.14 0.061,0.202 0.202,0.202 h 3.92 c 2.161,0 3.536,-1.374 3.536,-3.495 v -5.677 c 0,-2.162 -1.375,-3.536 -3.536,-3.536" /></g><g
                     id="g70"
                     transform="translate(38.897,2.2852)"><path
                       id="path68"
                       style="fill:#342f2e;fill-opacity:1;fill-rule:nonzero;stroke:none"
                       d="m 0,0 h -6.627 c -0.142,0 -0.202,0.062 -0.202,0.202 v 12.304 c 0,0.141 0.06,0.203 0.202,0.203 H 0 c 0.142,0 0.202,-0.062 0.202,-0.203 V 11.758 C 0.202,11.617 0.142,11.557 0,11.557 h -5.273 c -0.142,0 -0.203,-0.061 -0.203,-0.203 V 7.232 c 0,-0.14 0.061,-0.201 0.203,-0.201 h 4.323 c 0.141,0 0.202,-0.06 0.202,-0.201 V 6.082 c 0,-0.143 -0.061,-0.203 -0.202,-0.203 h -4.323 c -0.142,0 -0.203,-0.061 -0.203,-0.201 V 1.354 c 0,-0.141 0.061,-0.203 0.203,-0.203 H 0 c 0.142,0 0.202,-0.08 0.202,-0.201 V 0.202 C 0.202,0.062 0.142,0 0,0" /></g><g
                     id="g74"
                     transform="translate(47.5239,4.3057)"><path
                       id="path72"
                       style="fill:#342f2e;fill-opacity:1;fill-rule:nonzero;stroke:none"
                       d="m 0,0 c -0.021,-0.04 -0.081,-0.101 -0.182,-0.121 h -0.323 c -0.081,0 -0.141,0.04 -0.182,0.121 l -3.354,7.979 0.121,-9.797 c 0,-0.141 -0.06,-0.203 -0.201,-0.203 h -0.95 c -0.142,0 -0.202,0.062 -0.202,0.203 v 12.303 c 0,0.142 0.06,0.203 0.202,0.203 h 0.929 c 0.101,-0.021 0.162,-0.082 0.182,-0.123 l 3.596,-8.484 h 0.06 l 3.576,8.484 c 0.021,0.062 0.082,0.102 0.182,0.123 h 0.95 c 0.142,0 0.202,-0.061 0.202,-0.203 V -1.818 c 0,-0.141 -0.06,-0.203 -0.202,-0.203 h -0.95 c -0.141,0 -0.201,0.062 -0.201,0.203 l 0.121,9.839 z" /></g><g
                     id="g78"
                     transform="translate(62.7554,2.2852)"><path
                       id="path76"
                       style="fill:#342f2e;fill-opacity:1;fill-rule:nonzero;stroke:none"
                       d="m 0,0 h -6.627 c -0.142,0 -0.202,0.062 -0.202,0.202 v 12.304 c 0,0.141 0.06,0.203 0.202,0.203 H 0 c 0.142,0 0.202,-0.062 0.202,-0.203 V 11.758 C 0.202,11.617 0.142,11.557 0,11.557 h -5.273 c -0.141,0 -0.203,-0.061 -0.203,-0.203 V 7.232 c 0,-0.14 0.062,-0.201 0.203,-0.201 h 4.323 c 0.141,0 0.202,-0.06 0.202,-0.201 V 6.082 c 0,-0.143 -0.061,-0.203 -0.202,-0.203 h -4.323 c -0.141,0 -0.203,-0.061 -0.203,-0.201 V 1.354 c 0,-0.141 0.062,-0.203 0.203,-0.203 H 0 c 0.142,0 0.202,-0.08 0.202,-0.201 V 0.202 C 0.202,0.062 0.142,0 0,0" /></g><g
                     id="g82"
                     transform="translate(72.4507,3.8613)"><path
                       id="path80"
                       style="fill:#342f2e;fill-opacity:1;fill-rule:nonzero;stroke:none"
                       d="m 0,0 c 0,-0.646 -1.232,-1.778 -3.132,-1.778 h -0.626 c -2.141,0 -3.515,1.334 -3.515,3.314 v 6.505 c 0,1.98 1.374,3.313 3.515,3.313 h 0.626 c 1.86,0 3.153,-1.091 3.153,-1.758 0,-0.06 -0.062,-0.121 -0.142,-0.16 L -0.97,9.011 C -1.01,8.99 -1.051,8.99 -1.071,8.99 c -0.061,0 -0.08,0.021 -0.141,0.08 -0.606,0.587 -1.051,1.112 -1.92,1.112 h -0.626 c -1.212,0 -2.141,-0.929 -2.141,-2.141 V 1.536 c 0,-1.213 0.949,-2.162 2.141,-2.162 h 0.626 c 0.465,0 0.99,0.202 1.314,0.505 0.444,0.424 0.626,0.726 0.747,0.726 0.02,0 0.061,0 0.101,-0.019 L -0.121,0.162 C -0.021,0.121 0,0.081 0,0" /></g><g
                     id="g86"
                     transform="translate(79.02,2.084)"><path
                       id="path84"
                       style="fill:#342f2e;fill-opacity:1;fill-rule:nonzero;stroke:none"
                       d="m 0,0 h -0.626 c -2.142,0 -3.516,1.332 -3.516,3.313 v 9.394 c 0,0.142 0.061,0.202 0.203,0.202 h 0.969 c 0.142,0 0.202,-0.06 0.202,-0.202 V 3.313 c 0,-1.212 0.95,-2.162 2.142,-2.162 H 0 c 1.172,0 2.162,0.97 2.162,2.162 v 9.394 c 0,0.142 0.061,0.202 0.202,0.202 h 0.97 c 0.142,0 0.202,-0.06 0.202,-0.202 V 3.313 C 3.536,1.332 2.142,0 0,0" /></g><g
                     id="g90"
                     transform="translate(91.2827,4.3057)"><path
                       id="path88"
                       style="fill:#342f2e;fill-opacity:1;fill-rule:nonzero;stroke:none"
                       d="m 0,0 c -0.021,-0.04 -0.081,-0.101 -0.182,-0.121 h -0.323 c -0.081,0 -0.141,0.04 -0.182,0.121 l -3.354,7.979 0.121,-9.797 c 0,-0.141 -0.06,-0.203 -0.201,-0.203 h -0.95 c -0.142,0 -0.202,0.062 -0.202,0.203 v 12.303 c 0,0.142 0.06,0.203 0.202,0.203 h 0.929 c 0.101,-0.021 0.162,-0.082 0.182,-0.123 l 3.596,-8.484 h 0.061 l 3.575,8.484 c 0.021,0.062 0.082,0.102 0.182,0.123 h 0.95 c 0.141,0 0.202,-0.061 0.202,-0.203 V -1.818 c 0,-0.141 -0.061,-0.203 -0.202,-0.203 h -0.95 c -0.141,0 -0.202,0.062 -0.202,0.203 l 0.122,9.839 z" /></g><g
                     id="g94"
                     transform="translate(110.0093,11.7002)"><path
                       id="path92"
                       style="fill:#342f2e;fill-opacity:1;fill-rule:nonzero;stroke:none"
                       d="m 0,0 c 0,1.192 -0.97,2.142 -2.182,2.142 h -2.566 c -0.141,0 -0.202,-0.061 -0.202,-0.204 v -4.121 c 0,-0.14 0.061,-0.201 0.202,-0.201 h 2.566 c 1.233,0 2.182,0.949 2.182,2.182 z m 1.354,-0.101 c 0,-2.041 -1.415,-3.435 -3.536,-3.435 h -2.566 c -0.141,0 -0.202,-0.061 -0.202,-0.202 v -5.474 c 0,-0.142 -0.061,-0.203 -0.201,-0.203 h -0.951 c -0.141,0 -0.202,0.061 -0.202,0.203 V 3.091 c 0,0.14 0.061,0.202 0.202,0.202 h 3.92 c 2.141,0 3.536,-1.414 3.536,-3.394" /></g><g
                     id="g98"
                     transform="translate(119.9683,11.9023)"><path
                       id="path96"
                       style="fill:#342f2e;fill-opacity:1;fill-rule:nonzero;stroke:none"
                       d="M 0,0 C 0,1.191 -0.949,2.141 -2.162,2.141 H -2.788 C -4,2.141 -4.93,1.212 -4.93,0 v -6.505 c 0,-1.213 0.95,-2.162 2.142,-2.162 h 0.626 c 1.172,0 2.162,0.97 2.162,2.162 z m -2.162,-9.819 h -0.626 c -2.142,0 -3.516,1.334 -3.516,3.314 V 0 c 0,1.979 1.374,3.313 3.516,3.313 h 0.626 C -0.021,3.313 1.374,1.959 1.374,0 v -6.505 c 0,-1.98 -1.395,-3.314 -3.536,-3.314" /></g><g
                     id="g102"
                     transform="translate(125.1558,11.9629)"><path
                       id="path100"
                       style="fill:#342f2e;fill-opacity:1;fill-rule:nonzero;stroke:none"
                       d="M 0,0 C 0,-0.909 0.626,-1.576 1.919,-2.182 2.929,-2.667 3.858,-3.051 4.586,-3.596 5.535,-4.324 6,-5.312 6,-6.566 6,-8.546 4.626,-9.879 2.465,-9.879 H 1.596 c -1.919,0 -3.132,1.131 -3.132,1.757 0,0.081 0.041,0.122 0.122,0.162 l 0.848,0.444 c 0.041,0.021 0.081,0.021 0.101,0.021 0.081,0 0.101,-0.041 0.161,-0.101 0.567,-0.586 0.97,-1.133 1.9,-1.133 h 0.869 c 1.212,0 2.181,0.931 2.181,2.163 0,1.354 -1.03,1.879 -2.748,2.707 -2.08,1.009 -3.272,1.737 -3.272,3.798 0,1.98 1.374,3.313 3.516,3.313 h 0.323 c 1.898,0 3.151,-1.131 3.151,-1.777 0,-0.061 -0.06,-0.101 -0.141,-0.142 L 4.626,0.909 C 4.586,0.889 4.545,0.889 4.525,0.889 4.465,0.889 4.424,0.909 4.384,0.97 3.818,1.556 3.394,2.081 2.465,2.081 H 2.142 C 0.949,2.081 0,1.171 0,0" /></g><g
                     id="g106"
                     transform="translate(139.8618,11.9023)"><path
                       id="path104"
                       style="fill:#342f2e;fill-opacity:1;fill-rule:nonzero;stroke:none"
                       d="M 0,0 C 0,1.191 -0.949,2.141 -2.162,2.141 H -2.788 C -4,2.141 -4.93,1.212 -4.93,0 v -6.505 c 0,-1.213 0.95,-2.162 2.142,-2.162 h 0.626 c 1.172,0 2.162,0.97 2.162,2.162 z m -2.162,-9.819 h -0.626 c -2.142,0 -3.516,1.334 -3.516,3.314 V 0 c 0,1.979 1.374,3.313 3.516,3.313 h 0.626 C -0.021,3.313 1.374,1.959 1.374,0 v -6.505 c 0,-1.98 -1.395,-3.314 -3.536,-3.314" /></g><g
                     id="g110"
                     transform="translate(151.0347,2.2852)"><path
                       id="path108"
                       style="fill:#342f2e;fill-opacity:1;fill-rule:nonzero;stroke:none"
                       d="m 0,0 h -6.627 c -0.142,0 -0.202,0.062 -0.202,0.202 v 12.304 c 0,0.141 0.06,0.203 0.202,0.203 h 0.95 c 0.141,0 0.201,-0.062 0.201,-0.203 V 1.354 c 0,-0.141 0.062,-0.203 0.203,-0.203 H 0 c 0.142,0 0.202,-0.08 0.202,-0.201 V 0.202 C 0.202,0.062 0.142,0 0,0" /></g><g
                     id="g114"
                     transform="translate(157.3569,16.2051)"><path
                       id="path112"
                       style="fill:#342f2e;fill-opacity:1;fill-rule:nonzero;stroke:none"
                       d="m 0,0 -0.525,-0.04 c -0.141,0 -0.222,0.061 -0.222,0.142 0,0.06 0.019,0.121 0.06,0.181 L 0.728,2.384 0.89,2.465 h 1.373 c 0.14,0 0.243,-0.081 0.243,-0.162 0,-0.06 -0.041,-0.121 -0.103,-0.181 z m 2.485,-4.303 c 0,1.192 -0.949,2.141 -2.162,2.141 h -0.627 c -1.211,0 -2.14,-0.929 -2.14,-2.141 v -6.506 c 0,-1.212 0.949,-2.162 2.14,-2.162 h 0.627 c 1.172,0 2.162,0.971 2.162,2.162 z m -2.162,-9.819 h -0.627 c -2.14,0 -3.514,1.334 -3.514,3.313 v 6.506 c 0,1.98 1.374,3.313 3.514,3.313 h 0.627 c 2.142,0 3.535,-1.353 3.535,-3.313 v -6.506 c 0,-1.979 -1.393,-3.313 -3.535,-3.313" /></g><g
                     id="g118"
                     transform="translate(168.4888,2.084)"><path
                       id="path116"
                       style="fill:#342f2e;fill-opacity:1;fill-rule:nonzero;stroke:none"
                       d="m 0,0 h -0.626 c -2.142,0 -3.517,1.332 -3.517,3.313 v 6.505 c 0,1.979 1.375,3.313 3.517,3.313 h 1.01 c 1.879,0 3.132,-1.09 3.132,-1.758 0,-0.06 -0.061,-0.121 -0.142,-0.162 L 2.525,10.789 c -0.041,-0.021 -0.082,-0.021 -0.1,-0.021 -0.062,0 -0.102,0.021 -0.142,0.081 -0.565,0.586 -0.99,1.11 -1.899,1.11 h -1.01 c -1.212,0 -2.142,-0.929 -2.142,-2.141 V 3.313 c 0,-1.212 0.95,-2.162 2.142,-2.162 H 0 c 1.172,0 2.162,0.97 2.162,2.162 V 4.93 c 0,0.121 -0.081,0.201 -0.202,0.201 h -2.121 c -0.142,0 -0.202,0.06 -0.202,0.201 v 0.769 c 0,0.141 0.06,0.202 0.202,0.202 h 3.495 c 0.121,0 0.202,-0.061 0.202,-0.202 V 3.313 C 3.536,1.332 2.142,0 0,0" /></g><g
                     id="g122"
                     transform="translate(175.9644,2.2852)"><path
                       id="path120"
                       style="fill:#342f2e;fill-opacity:1;fill-rule:nonzero;stroke:none"
                       d="m 0,0 h -0.95 c -0.142,0 -0.202,0.062 -0.202,0.202 v 12.304 c 0,0.141 0.06,0.203 0.202,0.203 H 0 c 0.141,0 0.201,-0.062 0.201,-0.203 V 0.202 C 0.201,0.062 0.141,0 0,0" /></g><g
                     id="g126"
                     transform="translate(186.9136,3.8613)"><path
                       id="path124"
                       style="fill:#342f2e;fill-opacity:1;fill-rule:nonzero;stroke:none"
                       d="m 0,0 c 0,-0.646 -1.232,-1.778 -3.132,-1.778 h -0.626 c -2.141,0 -3.515,1.334 -3.515,3.314 v 6.505 c 0,1.98 1.374,3.313 3.515,3.313 h 0.626 c 1.86,0 3.153,-1.091 3.153,-1.758 0,-0.06 -0.062,-0.121 -0.142,-0.16 L -0.97,9.011 C -1.01,8.99 -1.051,8.99 -1.071,8.99 c -0.061,0 -0.08,0.021 -0.141,0.08 -0.606,0.587 -1.051,1.112 -1.92,1.112 h -0.626 c -1.212,0 -2.141,-0.929 -2.141,-2.141 V 1.536 c 0,-1.213 0.949,-2.162 2.141,-2.162 h 0.626 c 0.465,0 0.99,0.202 1.314,0.505 0.444,0.424 0.626,0.726 0.747,0.726 0.02,0 0.061,0 0.101,-0.019 L -0.121,0.162 C -0.021,0.121 0,0.081 0,0" /></g><g
                     id="g130"
                     transform="translate(195.521,11.9023)"><path
                       id="path128"
                       style="fill:#342f2e;fill-opacity:1;fill-rule:nonzero;stroke:none"
                       d="M 0,0 C 0,1.191 -0.949,2.141 -2.162,2.141 H -2.788 C -4,2.141 -4.931,1.212 -4.931,0 v -6.505 c 0,-1.213 0.951,-2.162 2.143,-2.162 h 0.626 c 1.172,0 2.162,0.97 2.162,2.162 z m -2.162,-9.819 h -0.626 c -2.143,0 -3.516,1.334 -3.516,3.314 V 0 c 0,1.979 1.373,3.313 3.516,3.313 h 0.626 C -0.021,3.313 1.374,1.959 1.374,0 v -6.505 c 0,-1.98 -1.395,-3.314 -3.536,-3.314" /></g><g
                     id="g134"
                     transform="translate(210.6714,11.7002)"><path
                       id="path132"
                       style="fill:#342f2e;fill-opacity:1;fill-rule:nonzero;stroke:none"
                       d="M 0,0 C 0,1.192 -0.97,2.142 -2.183,2.142 H -4.748 C -4.89,2.142 -4.95,2.081 -4.95,1.938 v -4.121 c 0,-0.14 0.06,-0.201 0.202,-0.201 h 2.565 c 1.234,0 2.183,0.949 2.183,2.182 z m 1.374,-9.253 c 0,-0.101 -0.081,-0.162 -0.202,-0.162 H 0.081 c -0.102,0.041 -0.162,0.081 -0.184,0.143 l -1.938,5.615 c -0.021,0.041 -0.062,0.081 -0.161,0.121 h -2.546 c -0.142,0 -0.202,-0.061 -0.202,-0.202 v -5.474 c 0,-0.142 -0.061,-0.203 -0.201,-0.203 h -0.952 c -0.14,0 -0.201,0.061 -0.201,0.203 V 3.091 c 0,0.14 0.061,0.202 0.201,0.202 h 3.92 c 2.162,0 3.537,-1.374 3.537,-3.495 v -0.222 c 0,-0.707 -0.424,-1.555 -1.212,-2.222 -0.446,-0.364 -0.829,-0.405 -0.829,-0.607 0,-0.019 0.02,-0.04 0.02,-0.06 l 2.021,-5.839 c 0.02,-0.04 0.02,-0.06 0.02,-0.101" /></g><g
                     id="g138"
                     transform="translate(220.8315,11.9023)"><path
                       id="path136"
                       style="fill:#342f2e;fill-opacity:1;fill-rule:nonzero;stroke:none"
                       d="M 0,0 C 0,1.191 -0.949,2.141 -2.162,2.141 H -2.788 C -4,2.141 -4.931,1.212 -4.931,0 v -6.505 c 0,-1.213 0.951,-2.162 2.143,-2.162 h 0.626 c 1.172,0 2.162,0.97 2.162,2.162 z m -2.162,-9.819 h -0.626 c -2.143,0 -3.516,1.334 -3.516,3.314 V 0 c 0,1.979 1.373,3.313 3.516,3.313 h 0.626 C -0.021,3.313 1.374,1.959 1.374,0 v -6.505 c 0,-1.98 -1.395,-3.314 -3.536,-3.314" /></g><g
                     id="g142"
                     transform="translate(232.0044,2.2852)"><path
                       id="path140"
                       style="fill:#342f2e;fill-opacity:1;fill-rule:nonzero;stroke:none"
                       d="M 0,0 H -6.627 C -6.77,0 -6.829,0.062 -6.829,0.202 v 12.304 c 0,0.141 0.059,0.203 0.202,0.203 H 0 c 0.142,0 0.202,-0.062 0.202,-0.203 V 11.758 C 0.202,11.617 0.142,11.557 0,11.557 h -5.273 c -0.142,0 -0.204,-0.061 -0.204,-0.203 V 7.232 c 0,-0.14 0.062,-0.201 0.204,-0.201 h 4.323 c 0.141,0 0.202,-0.06 0.202,-0.201 V 6.082 c 0,-0.143 -0.061,-0.203 -0.202,-0.203 h -4.323 c -0.142,0 -0.204,-0.061 -0.204,-0.201 V 1.354 c 0,-0.141 0.062,-0.203 0.204,-0.203 H 0 c 0.142,0 0.202,-0.08 0.202,-0.201 V 0.202 C 0.202,0.062 0.142,0 0,0" /></g><g
                     id="g146"
                     transform="translate(240.6304,4.3057)"><path
                       id="path144"
                       style="fill:#342f2e;fill-opacity:1;fill-rule:nonzero;stroke:none"
                       d="m 0,0 c -0.021,-0.04 -0.081,-0.101 -0.183,-0.121 h -0.322 c -0.081,0 -0.141,0.04 -0.182,0.121 l -3.354,7.979 0.121,-9.797 c 0,-0.141 -0.06,-0.203 -0.201,-0.203 h -0.95 c -0.142,0 -0.202,0.062 -0.202,0.203 v 12.303 c 0,0.142 0.06,0.203 0.202,0.203 h 0.929 c 0.101,-0.021 0.162,-0.082 0.182,-0.123 l 3.596,-8.484 h 0.06 l 3.576,8.484 c 0.021,0.062 0.082,0.102 0.182,0.123 h 0.949 c 0.142,0 0.203,-0.061 0.203,-0.203 V -1.818 c 0,-0.141 -0.061,-0.203 -0.203,-0.203 H 3.454 c -0.141,0 -0.202,0.062 -0.202,0.203 l 0.122,9.839 z" /></g><g
                     id="g150"
                     transform="translate(254.3062,4.3057)"><path
                       id="path148"
                       style="fill:#342f2e;fill-opacity:1;fill-rule:nonzero;stroke:none"
                       d="m 0,0 c -0.021,-0.04 -0.081,-0.101 -0.183,-0.121 h -0.322 c -0.081,0 -0.141,0.04 -0.182,0.121 l -3.354,7.979 0.121,-9.797 c 0,-0.141 -0.06,-0.203 -0.201,-0.203 h -0.95 c -0.142,0 -0.202,0.062 -0.202,0.203 v 12.303 c 0,0.142 0.06,0.203 0.202,0.203 h 0.929 c 0.101,-0.021 0.162,-0.082 0.182,-0.123 l 3.596,-8.484 h 0.06 l 3.576,8.484 c 0.021,0.062 0.082,0.102 0.182,0.123 h 0.949 c 0.142,0 0.203,-0.061 0.203,-0.203 V -1.818 c 0,-0.141 -0.061,-0.203 -0.203,-0.203 H 3.454 c -0.141,0 -0.202,0.062 -0.202,0.203 l 0.122,9.839 z" /></g><g
                     id="g154"
                     transform="translate(269.5376,2.2852)"><path
                       id="path152"
                       style="fill:#342f2e;fill-opacity:1;fill-rule:nonzero;stroke:none"
                       d="M 0,0 H -6.627 C -6.77,0 -6.829,0.062 -6.829,0.202 v 12.304 c 0,0.141 0.059,0.203 0.202,0.203 H 0 c 0.142,0 0.202,-0.062 0.202,-0.203 V 11.758 C 0.202,11.617 0.142,11.557 0,11.557 h -5.273 c -0.142,0 -0.204,-0.061 -0.204,-0.203 V 7.232 c 0,-0.14 0.062,-0.201 0.204,-0.201 h 4.323 c 0.141,0 0.202,-0.06 0.202,-0.201 V 6.082 c 0,-0.143 -0.061,-0.203 -0.202,-0.203 h -4.323 c -0.142,0 -0.204,-0.061 -0.204,-0.201 V 1.354 c 0,-0.141 0.062,-0.203 0.204,-0.203 H 0 c 0.142,0 0.202,-0.08 0.202,-0.201 V 0.202 C 0.202,0.062 0.142,0 0,0" /></g><g
                     id="g158"
                     transform="translate(279.1938,11.7002)"><path
                       id="path156"
                       style="fill:#342f2e;fill-opacity:1;fill-rule:nonzero;stroke:none"
                       d="m 0,0 c 0,1.192 -0.971,2.142 -2.182,2.142 h -2.566 c -0.143,0 -0.202,-0.061 -0.202,-0.204 v -4.121 c 0,-0.14 0.059,-0.201 0.202,-0.201 h 2.566 c 1.233,0 2.182,0.949 2.182,2.182 z m 1.374,-9.253 c 0,-0.101 -0.081,-0.162 -0.202,-0.162 H 0.081 c -0.102,0.041 -0.162,0.081 -0.183,0.143 l -1.939,5.615 c -0.02,0.041 -0.061,0.081 -0.161,0.121 h -2.546 c -0.143,0 -0.202,-0.061 -0.202,-0.202 v -5.474 c 0,-0.142 -0.062,-0.203 -0.201,-0.203 h -0.951 c -0.141,0 -0.203,0.061 -0.203,0.203 V 3.091 c 0,0.14 0.062,0.202 0.203,0.202 h 3.92 c 2.161,0 3.536,-1.374 3.536,-3.495 v -0.222 c 0,-0.707 -0.425,-1.555 -1.212,-2.222 -0.445,-0.364 -0.829,-0.405 -0.829,-0.607 0,-0.019 0.02,-0.04 0.02,-0.06 l 2.021,-5.839 c 0.02,-0.04 0.02,-0.06 0.02,-0.101" /></g><g
                     id="g162"
                     transform="translate(284.3257,11.9629)"><path
                       id="path160"
                       style="fill:#342f2e;fill-opacity:1;fill-rule:nonzero;stroke:none"
                       d="M 0,0 C 0,-0.909 0.626,-1.576 1.919,-2.182 2.929,-2.667 3.858,-3.051 4.586,-3.596 5.535,-4.324 6,-5.312 6,-6.566 6,-8.546 4.626,-9.879 2.465,-9.879 H 1.596 c -1.919,0 -3.132,1.131 -3.132,1.757 0,0.081 0.041,0.122 0.122,0.162 l 0.848,0.444 c 0.041,0.021 0.081,0.021 0.101,0.021 0.081,0 0.101,-0.041 0.161,-0.101 0.567,-0.586 0.97,-1.133 1.9,-1.133 h 0.869 c 1.212,0 2.181,0.931 2.181,2.163 0,1.354 -1.03,1.879 -2.749,2.707 -2.08,1.009 -3.271,1.737 -3.271,3.798 0,1.98 1.374,3.313 3.516,3.313 h 0.323 c 1.897,0 3.151,-1.131 3.151,-1.777 0,-0.061 -0.06,-0.101 -0.141,-0.142 L 4.626,0.909 C 4.586,0.889 4.545,0.889 4.524,0.889 4.465,0.889 4.424,0.909 4.384,0.97 3.817,1.556 3.394,2.081 2.465,2.081 H 2.142 C 0.949,2.081 0,1.171 0,0" /></g></g></g></g></g></g></g></g></g></svg>